<?xml version="1.0" encoding="utf-8"?>
<!-- Generator: Adobe Illustrator 22.1.0, SVG Export Plug-In . SVG Version: 6.00 Build 0)  -->
<svg version="1.1" id="Type" xmlns="http://www.w3.org/2000/svg" xmlns:xlink="http://www.w3.org/1999/xlink" x="0px" y="0px"
	 viewBox="0 0 1326.3 1373" style="enable-background:new 0 0 1326.3 1373;" xml:space="preserve">
<style type="text/css">
	.st0{display:none;}
	.st1{display:inline;fill:#EEEEEE;}
	.st2{fill:#FFFFFF;}
	.st3{fill:#EEEEEE;}
	.st4{fill:#C9C9C9;}
	.st5{fill:none;stroke:#4C6677;stroke-width:4;stroke-miterlimit:10;}
	.st6{fill:#4C6677;}
	.st7{fill:none;stroke:#808080;stroke-width:4;stroke-linecap:round;stroke-miterlimit:10;}
	.st8{fill:none;stroke:#808080;stroke-width:3;stroke-linecap:round;stroke-miterlimit:10;}
	.st9{fill:#71EFC3;}
	.st10{fill:#151C3A;}
	.st11{fill:none;stroke:#151D39;stroke-width:3;stroke-linecap:round;stroke-miterlimit:10;}
	.st12{opacity:0.46;}
	.st13{opacity:0.43;fill:none;stroke:#C9C9C9;stroke-width:3;stroke-miterlimit:10;}
	.st14{fill:none;stroke:#C9C9C9;stroke-width:3;stroke-linecap:round;stroke-linejoin:round;stroke-miterlimit:10;}
	.st15{opacity:0.5;fill:none;stroke:#C9C9C9;stroke-width:3;stroke-linecap:round;stroke-miterlimit:10;}
	.st16{fill:#FEC64E;}
	.st17{fill:#FD92F3;}
	.st18{fill:#EED9CC;}
	.st19{fill:#F94D45;}
	.st20{fill:none;stroke:#4C6677;stroke-width:6;stroke-linecap:round;stroke-miterlimit:10;}
	.st21{fill:#214056;}
	.st22{fill:#71EFC2;}
	.st23{fill:none;stroke:#D8E2FA;stroke-width:6;stroke-linecap:round;stroke-miterlimit:10;}
	.st24{opacity:0.55;}
</style>
<rect x="0" class="st21" width="1326.3" height="1374.5"/>
<path class="st4" d="M791.2,509.2H516.8c-6.6,0-12-5.4-12-12V222.8c0-6.6,5.4-12,12-12h274.4c6.6,0,12,5.4,12,12v274.4
	C803.2,503.8,797.8,509.2,791.2,509.2z"/>
<path class="st5" d="M772.5,487.7H534.9c-6.6,0-12-5.4-12-12V276c0-6.6,5.4-12,12-12h237.6c6.6,0,12,5.4,12,12v199.8
	C784.5,482.3,779.1,487.7,772.5,487.7z"/>
<polygon class="st6" points="544.4,533 529.6,533 522.9,509.2 552.5,509.2 "/>
<polygon class="st6" points="776.5,533 761.7,533 754.9,509.2 784.5,509.2 "/>
<path class="st3" d="M724,250.4h-98.1c-6.6,0-12-5.4-12-12v-4.7c0-6.6,5.4-12,12-12H724c6.6,0,12,5.4,12,12v4.7
	C736,245,730.6,250.4,724,250.4z"/>
<circle class="st3" cx="586.6" cy="236.1" r="14.5"/>
<circle class="st3" cx="543.8" cy="236.1" r="14.5"/>
<circle class="st3" cx="766.8" cy="236.1" r="14.5"/>
<line class="st7" x1="692.3" y1="242.8" x2="705.8" y2="229.3"/>
<line class="st7" x1="709.3" y1="242.9" x2="722.7" y2="229.4"/>
<line class="st7" x1="763.8" y1="239.1" x2="775.5" y2="227.4"/>
<line class="st8" x1="625" y1="229.1" x2="680.4" y2="229.1"/>
<line class="st8" x1="625" y1="236.1" x2="680.4" y2="236.1"/>
<line class="st8" x1="625" y1="243" x2="680.4" y2="243"/>
<circle class="st4" cx="586.6" cy="236.1" r="7"/>
<circle class="st4" cx="766.8" cy="236.1" r="7"/>
<circle class="st22" cx="543.8" cy="236.1" r="7"/>
<g>
	<path class="st4" d="M1156.7,1122.5H882.3c-6.6,0-12-5.4-12-12V836.1c0-6.6,5.4-12,12-12h274.4c6.6,0,12,5.4,12,12v274.4
		C1168.7,1117.1,1163.3,1122.5,1156.7,1122.5z"/>
	<path class="st10" d="M1138,1101H900.4c-6.6,0-12-5.4-12-12V886.6c0-6.6,5.4-12,12-12H1138c6.6,0,12,5.4,12,12V1089
		C1150,1095.6,1144.6,1101,1138,1101z"/>
	<polygon class="st6" points="909.9,1146.3 895.1,1146.3 888.4,1122.5 917.9,1122.5 	"/>
	<polygon class="st6" points="1141.9,1146.3 1127.2,1146.3 1120.4,1122.5 1150,1122.5 	"/>
	<path class="st4" d="M1181.4,1205.9H860.6c-6.6,0-12-5.4-12-12l39.8-80.8c0-6.6,5.4-12,12-12H1138c6.6,0,12,5.4,12,12l43.4,80.8
		C1193.4,1200.5,1188,1205.9,1181.4,1205.9z"/>
	<line class="st11" x1="883.3" y1="1120.7" x2="896.1" y2="1098.1"/>
	<line class="st11" x1="1156.3" y1="1120.7" x2="1143.6" y2="1098.1"/>
	<g class="st12">
		<circle class="st2" cx="967.3" cy="1032.3" r="47.1"/>
		<circle class="st13" cx="967.3" cy="1032.3" r="37"/>
	</g>
	<g class="st12">
		<circle class="st2" cx="1071.5" cy="1032.3" r="47.1"/>
		<circle class="st13" cx="1071.5" cy="1032.3" r="37"/>
	</g>
	<g>
		<circle class="st2" cx="946" cy="1032.3" r="47.1"/>
		<circle class="st13" cx="946" cy="1032.3" r="37"/>
	</g>
	<g>
		<circle class="st2" cx="1090.1" cy="1032.3" r="47.1"/>
		<circle class="st13" cx="1090.1" cy="1032.3" r="37"/>
	</g>
	<polygon class="st14" points="1135.2,1080.9 903.2,1080.9 894.8,1043.8 1141.6,1043.8 	"/>
	<path class="st2" d="M985.8,938.1c0-10.9-8.9-19.8-19.8-19.8c-1.1,0-2.1,0.1-3.2,0.3c-2.1-4.7-5-8.8-9-11.4l-24.6,0.2
		C915,917.5,915,945.8,915,957.8h51.1c0,0,0,0,0,0s0,0,0,0l2.6-0.2C978.3,956.4,985.8,948.1,985.8,938.1z M968.6,950.4
		c-0.2-7.3-0.8-16.5-3.2-24.9c0.2,0,0.4,0,0.7,0c6.9,0,12.6,5.6,12.6,12.6C978.7,944.1,974.3,949.2,968.6,950.4z"/>
	<path class="st2" d="M1064.7,938.1c0-10.9-8.9-19.8-19.8-19.8c-1.1,0-2.1,0.1-3.2,0.3c-2.1-4.7-5-8.8-9-11.4l-24.6,0.2
		c-14.4,10.2-14.4,38.4-14.4,50.5h51.1c0,0,0,0,0,0c0,0,0,0,0,0l2.6-0.2C1057.2,956.4,1064.7,948.1,1064.7,938.1z M1047.4,950.4
		c-0.2-7.3-0.8-16.5-3.2-24.9c0.2,0,0.4,0,0.7,0c6.9,0,12.6,5.6,12.6,12.6C1057.5,944.1,1053.2,949.2,1047.4,950.4z"/>
	<g>
		<polygon class="st2" points="1077.5,899.2 1107.4,899.2 1111.2,932.7 1112.8,936.2 1115.9,957.3 1068.4,957.3 1071.7,936.2 
			1073.2,932.7 		"/>
		<line class="st15" x1="1101.8" y1="929.8" x2="1098.4" y2="904.3"/>
		<line class="st15" x1="1081.1" y1="929.8" x2="1084.4" y2="904.3"/>
		<line class="st15" x1="1091.6" y1="929.9" x2="1091.6" y2="904.2"/>
	</g>
	<polygon class="st14" points="1135.2,958.8 903.2,958.8 894.8,921.7 1141.6,921.7 	"/>
	<g>
		<path class="st3" d="M1087,863.7h-98.1c-6.6,0-12-5.4-12-12V847c0-6.6,5.4-12,12-12h98.1c6.6,0,12,5.4,12,12v4.7
			C1099,858.3,1093.6,863.7,1087,863.7z"/>
		<circle class="st3" cx="949.5" cy="849.5" r="14.5"/>
		<circle class="st3" cx="906.7" cy="849.5" r="14.5"/>
		<circle class="st3" cx="1129.7" cy="849.5" r="14.5"/>
		<line class="st7" x1="1055.2" y1="856.1" x2="1068.7" y2="842.7"/>
		<line class="st7" x1="1072.2" y1="856.2" x2="1085.6" y2="842.7"/>
		<line class="st7" x1="1131.6" y1="847.5" x2="1120.9" y2="858.2"/>
		<line class="st8" x1="987.9" y1="842.4" x2="1043.3" y2="842.4"/>
		<line class="st8" x1="987.9" y1="849.5" x2="1043.3" y2="849.5"/>
		<line class="st8" x1="987.9" y1="856.4" x2="1043.3" y2="856.4"/>
		<circle class="st4" cx="949.5" cy="849.5" r="7"/>
		<circle class="st4" cx="1129.6" cy="849.5" r="7"/>
		<circle class="st4" cx="906.7" cy="849.5" r="7"/>
	</g>
</g>
<g>
	<path class="st4" d="M424.1,1122.5H149.8c-6.6,0-12-5.4-12-12V836.1c0-6.6,5.4-12,12-12h274.4c6.6,0,12,5.4,12,12v274.4
		C436.1,1117.1,430.7,1122.5,424.1,1122.5z"/>
	<path class="st10" d="M405.4,1101H167.8c-6.6,0-12-5.4-12-12V886.6c0-6.6,5.4-12,12-12h237.6c6.6,0,12,5.4,12,12V1089
		C417.4,1095.6,412,1101,405.4,1101z"/>
	<polygon class="st6" points="177.4,1146.3 162.6,1146.3 155.8,1122.5 185.4,1122.5 	"/>
	<polygon class="st6" points="409.4,1146.3 394.6,1146.3 387.8,1122.5 417.4,1122.5 	"/>
	<path class="st4" d="M448.8,1205.9H128c-6.6,0-12-5.4-12-12l39.8-80.8c0-6.6,5.4-12,12-12h237.6c6.6,0,12,5.4,12,12l43.4,80.8
		C460.8,1200.5,455.4,1205.9,448.8,1205.9z"/>
	<line class="st11" x1="150.8" y1="1120.7" x2="163.5" y2="1098.1"/>
	<line class="st11" x1="423.8" y1="1120.7" x2="411.1" y2="1098.1"/>
	<g class="st12">
		<circle class="st2" cx="234.8" cy="1032.3" r="47.1"/>
		<circle class="st13" cx="234.8" cy="1032.3" r="37"/>
	</g>
	<g class="st12">
		<circle class="st2" cx="339" cy="1032.3" r="47.1"/>
		<circle class="st13" cx="339" cy="1032.3" r="37"/>
	</g>
	<g>
		<circle class="st2" cx="213.5" cy="1032.3" r="47.1"/>
		<circle class="st13" cx="213.5" cy="1032.3" r="37"/>
	</g>
	<g>
		<circle class="st2" cx="357.6" cy="1032.3" r="47.1"/>
		<circle class="st13" cx="357.6" cy="1032.3" r="37"/>
	</g>
	<path class="st2" d="M253.3,938.1c0-10.9-8.9-19.8-19.8-19.8c-1.1,0-2.1,0.1-3.2,0.3c-2.1-4.7-5-8.8-9-11.4l-24.6,0.2
		c-14.4,10.2-14.4,38.4-14.4,50.5h51.1c0,0,0,0,0,0c0,0,0,0,0,0l2.6-0.2C245.8,956.4,253.3,948.1,253.3,938.1z M236,950.4
		c-0.2-7.3-0.8-16.5-3.2-24.9c0.2,0,0.4,0,0.7,0c6.9,0,12.6,5.6,12.6,12.6C246.1,944.1,241.8,949.2,236,950.4z"/>
	<path class="st2" d="M332.1,938.1c0-10.9-8.9-19.8-19.8-19.8c-1.1,0-2.1,0.1-3.2,0.3c-2.1-4.7-5-8.8-9-11.4l-24.6,0.2
		c-14.4,10.2-14.4,38.4-14.4,50.5h51.1c0,0,0,0,0,0c0,0,0,0,0,0l2.6-0.2C324.6,956.4,332.1,948.1,332.1,938.1z M314.9,950.4
		c-0.2-7.3-0.8-16.5-3.2-24.9c0.2,0,0.4,0,0.7,0c6.9,0,12.6,5.6,12.6,12.6C324.9,944.1,320.6,949.2,314.9,950.4z"/>
	<g>
		<polygon class="st2" points="345,899.2 374.9,899.2 378.6,932.7 380.2,936.2 383.3,957.3 335.9,957.3 339.2,936.2 340.6,932.7 		
			"/>
		<line class="st15" x1="369.2" y1="929.8" x2="365.9" y2="904.3"/>
		<line class="st15" x1="348.5" y1="929.8" x2="351.9" y2="904.3"/>
		<line class="st15" x1="359" y1="929.9" x2="359" y2="904.2"/>
	</g>
	<g>
		<g>
			<g>
				<g>
					<g>
						<path class="st9" d="M388.6,1056.5c-3-0.2-2.5-2.2-3.7-3.1l1.3-0.8c1.9,0.2,5,0.5,4.8,1.8
							C390.8,1054.7,389.8,1056.4,388.6,1056.5z"/>
						<path class="st9" d="M390.4,1050.3c-0.2,0.1-0.3-0.1-0.6,0l0.3-1.6L390.4,1050.3z"/>
						<path class="st9" d="M383,1054.4l-1.3,0.4c-0.3-0.1,0.4-0.5,0.3-0.7l-1.6-0.4C382.5,1054,382.2,1052.6,383,1054.4z"/>
						<path class="st9" d="M365.4,1048.5c-1-0.8,0.6-1.5,1-2.2c0.8,0.1,1.5,0.9,0.9,1.6C366.3,1047.9,365.9,1048.4,365.4,1048.5z"/>
						<g>
							<path class="st9" d="M375.4,1056.1c0.3-1.5,3.3-1.1,2.8-2.4c-0.2-0.6-0.4-1.1-0.8-1.4l-1.3,1c-3.6-0.1,1.2-2-1.3-3
								c-0.5,0.1-0.7,0.2-0.9,0.4c-1,0.9-0.7,1.2,0.1,1.8c-3.3,0.6-2.5-3.5-4.2-3.3c-2.4,0.7-0.7,3-1.2,3.9
								c-0.1-1.6-2.1-2.8-4.5-3.5l2.1,2.2c0.5-1,1-2,1.4-3c0-0.8,0.3-1.6,0.6-2.4c0.4-0.9,1.1-2,1.6-3c0.6-1.1,1.1-2.3,1.3-3.5
								c0.2-1.2,0.2-2.4-0.2-3.5c0.1-1.1,0.2-2.4,0-3.7c-0.2-1.3-0.7-2.7-1.6-3.9l0.3-0.3c-0.1,0-0.2,0.1-0.3,0.1
								c-0.1-1.4-1.7-2.4-3.3-2.8c-1.5-0.5-2.9-0.6-2.6-1.9l-0.7,0.2c-1.4,0-1.4-0.2-1.1-0.5c0.3-0.3,0.8-0.8-0.1-1.1
								c-1.6,0.3-3.2-0.1-4.8-0.2c-0.8,0-1.6,0-2.3,0.2c-0.3,0.1-0.6,0.2-0.9,0.4c-0.2,0.2-0.3,0.4-0.4,0.7c-0.2-0.1,0-0.3-0.2-0.4
								c-0.5,0.2-1,0.4-1.5,0.6c0,0.6-0.2,1.3,0.1,1.8c-0.4,0-0.6,0.7-1.1,0.6c-1.3,0.2-0.3-1.1-0.9-1.5c-3.2,1.1-6.9,2-10.2,1.5
								c-0.4-1.9-3.9-0.9-5.4-0.4c-3.5-1-5.9,3.6-8.6,2.6c1-1.6,3.7-0.9,3.6-2.3l-0.8-0.4c-1.5,0-4-0.3-4.4,1.3
								c1,0.5,1.2,1.2,1.7,1.7c-0.5,0.5-0.5,1.1-1.2,1.5c-1.1,0.5-2.4,0.6-2.7-0.3c0.5-0.5,1.3-0.4,1.8-0.6
								c-0.1-1.1-2.1-0.6-2.9-0.7c1.9,2.1-0.8,4,2.8,4.6l-1.5,1c-0.6,2.5,6.1,0.4,3.9,3.7c-0.1,0.7,0.5,1.3-0.3,2.2
								c0.8,0.7,1.8,0.2,2.1-0.4c1.2,1.5,4.1-1,4.9,1.3c2.2-2.6,4.4,0.4,6.9,0.2c3.3-0.2,0.8-1.6,1.4-3.1c1.8,0.4,3.1-1.1,4-1.9
								c0.9-0.2,1.6,0.6,1.1,1.1c1.7,0.2,3.5,0.4,5.2,0.5c0.9,0,1.7,0.1,2.5,0.1l1.3,0c0.4,0,1,0,0.9,0.1c0.5,0.2,0.9,0.3,1.2,0.4
								c0.3,0.1,0.7,0.2,0.9,0.4c-0.5,0.9-0.3,0.9-0.2,1.1c0.1,0.1-0.1,0.6-1.7,1.1c0.2-0.1,0.4-0.1,0.5-0.2
								c0.3-0.1,0.5-0.1,0.6-0.1c0.6-0.2,1.2-0.5,1.8-0.8c-0.2,0.3-0.4,0.5-0.4,0.7c1.1-0.1,1,0.3,0.9,0.6c-0.1,0.3-0.2,0.6,0.6,1.1
								c-0.2,0.2-0.3,0.4-0.5,0.5c-0.2,0.3-0.5,0.6-0.7,0.9c-0.4,0.5-0.7,0.8-1.1,1.2c-0.3,0.3-0.7,0.7-1.1,1.4
								c-0.4,0.7-0.9,1.7-1.4,3.6c0,0.5,0.1,1.1,0.1,1.7l1,11.8l8.2-2.5c2.4-0.7,5-1.6,7.7-1.7c1.1,0,2.2,0.7,2.1,1.2
								c1.3-0.3,3.3-0.6,4.7-0.8c2.8-1.4,2.4-2.3,1.2-2.7C378.7,1056.2,376.5,1056.1,375.4,1056.1z"/>
							<path class="st9" d="M342.5,1023c0-1.1-1.5-1.3-2.1-1.7l-0.6,0.5c-1.5,0.7-1.3,2-0.2,2.4C339.9,1023.3,341.6,1023,342.5,1023
								z"/>
							<path class="st9" d="M357,1020.1l-0.4,1.2c1.1-0.2,2.2-0.4,3.4-0.6C360,1020,358.3,1020.1,357,1020.1z"/>
							<path class="st9" d="M317.4,1037.8c1.8-0.4,2.8,0.4,4.5-0.6l-1-1.8c-2.1-0.3-4.4-0.9-6.5-0.1
								C313.7,1037.8,317.5,1035.8,317.4,1037.8z"/>
							<path class="st9" d="M322.3,1040.1c-2.4,2.8-7,1.3-8.4,5.2c1.2,2.1,2.4,1.5,3.7,0.6c1.2-1,2.5-2.3,3.7-2
								c1.1-0.9,1.7-1.7,3.2-2.7C325.3,1039.9,323.2,1040,322.3,1040.1z"/>
							<path class="st9" d="M312.2,1043.5c-0.3,0.1-0.6,0.5-0.8,0.6c-0.1,0.5,0.7,0.6,1.1,0.7
								C312.8,1044.8,313.3,1043.5,312.2,1043.5z"/>
						</g>
					</g>
				</g>
			</g>
		</g>
		<g>
			<g>
				<g>
					<g>
						<path class="st9" d="M375.3,1020c-0.8-0.7-1-2.5-1.4-3.6l0.2-0.5c0.4,0.5,1.3,1.4,1.5,2.6
							C375.6,1018.7,375.7,1020.1,375.3,1020z"/>
						<path class="st9" d="M374.6,1014.4c0,0-0.1-0.1-0.1-0.1l-0.3-1.5L374.6,1014.4z"/>
						<path class="st9" d="M373.7,1017.1l-0.2,0.2c-0.1-0.2,0-0.5,0-0.7l-0.4-0.6C373.5,1016.5,373.3,1015.1,373.7,1017.1z"/>
						<path class="st9" d="M370.8,1009.3c0-0.9,0.1-1.5,0.2-2.1c0,0.1,0.1,1,0,1.7C370.9,1008.7,370.8,1009.2,370.8,1009.3z"/>
						<g>
							<path class="st9" d="M372.2,1017.7c0-1.5,0.6-0.6,0.4-2c-0.1-0.6-0.2-1.2-0.3-1.5l-0.2,0.8c-0.6-0.5,0.1-1.8-0.4-3.1
								c-0.1,0.1-0.1,0.1-0.1,0.3c-0.1,0.7-0.1,1.1,0.1,1.8c-0.5,0.2-0.4-3.7-0.6-3.7c-0.3,0.5-0.1,2.9-0.2,3.8
								c0-1.2-0.1-2.3-0.3-3.1c-0.2-0.8-0.3-1.3-0.5-1.4c-0.2,0.5-0.4,0.1-0.5-0.2c-0.1-0.3-0.3-0.5-0.7,0.1
								c-0.1-0.4-0.2-0.9-0.3-1.2l0.1-0.4c0,0.1-0.1,0.2-0.1,0.3c0.5-1.7-0.8,0.6,0.2-2l-0.1,0.2c-0.2,0.1,0.4-0.9,0.5-1.5
								c-0.3,0.3,0.6-1.8-0.5,0.2c0.1-0.1,0.1-0.2,0.2-0.4l-0.3,0.3c-0.3,0.5-0.6,1.1-0.9,1.6c0,0-0.4,0.5-0.3,0.3
								c-0.1-0.1,0.6-1,0.8-1.4c-0.5,0.5-0.9,0.4-0.3-0.7c1.2-1.6,0.9-1.4,0.8-1.4c0.5-0.7,0.2-0.4-0.2,0c-0.4,0.3-0.8,0.6-0.2,0
								c0.9-0.8,0,0.2,1-0.8l0.4-0.5c0.3-0.3,1-1-0.1,0c-0.6,0.6-1.1,1.1-1.5,1.5c-0.3,0.2-0.7,0.6-0.9,0.7c-0.2,0.1,0-0.2,0.7-0.8
								c0.3-0.2,0,0,0.1,0c0.8-0.7,0.8-0.8,1.1-1.1c-1.9,1.7-2.8,2.2-3.9,3.5l-0.5,0.2c-0.9,0.7-1.2,1.1-1.6,1.6
								c-0.3,0.5-0.7,1-1.7,1.7c-0.5,0.4-1,1-1.6,1.2c-0.6,0.7-0.3,0.7,0.1,0.5c-1.2,1.3,0.4,0.7-1.2,2.5c0.9-0.5,0.8-0.1,0.5,0.6
								c-0.3,0.7-0.7,1.5-0.6,1.9c0.3,0.9,1.1-1,2.1-1.9c-0.2,0.8,0.8,0,1.3-0.4c0.2,0.1-0.2,0.9-0.5,1.1c0,2.6,1.3,4,2.7,4.7
								c0.1,0.9,0.4,0.8,0.7,0.9c0.3,0.1,0.6,0.3,0.6,1.8l0-0.5c0.1-0.3,0.2-0.4,0.3-0.5c0-0.5,0-1.1,0.1-1.6
								c0.1,0.3,0.3,0.5,0.5,0.5c0.6-1.8,1.1,0.3,1.7-1.6c0.9,0.8,0.4,1.6,1.4,2.5c0.7-0.7,1.4-1.6,2-1.4c0.2,0.1,0.5,0.9,0.5,1.4
								c0.3-0.2,0.8-0.2,1.1-0.2c0.6-1,0.4-1.9,0.1-2.5C372.9,1018.2,372.5,1017.8,372.2,1017.7z"/>
							<path class="st9" d="M369.7,1003.1c0.6-0.9,0.9-1.3,1.1-1.7l-0.2,0.3c-0.2,0.3-1,1.3-1.4,1.9
								C369.8,1002.9,369.8,1002.9,369.7,1003.1z"/>
							<path class="st9" d="M370.4,1002.6l-0.5,1l0.2-0.3C370.4,1002.7,370.4,1002.7,370.4,1002.6z"/>
							<path class="st9" d="M363,1007.2c0,0.3-0.8,1-0.4,1l1.5-1.3c0.6-0.7,1.6-1.7,1.4-1.8C363.8,1006.2,364.6,1006.2,363,1007.2z"
								/>
							<path class="st9" d="M360.4,1010c-0.9,0.4-0.9,0-1-0.4c-0.1-0.3-0.2-0.5-1.7,0.1c-2,1.3-1.7,1.6-1.2,1.6c0.6,0,1.5-0.2,1,0.4
								c0.6-0.1,1.1-0.3,1.7-0.4C360.2,1010.8,360.3,1010.2,360.4,1010z"/>
							<path class="st9" d="M359.6,1008.4c0-0.1-0.2,0-0.4,0c-0.4,0.2-0.6,0.4-0.9,0.7C358.4,1009.1,359.3,1008.7,359.6,1008.4z"/>
						</g>
					</g>
				</g>
			</g>
		</g>
		<g>
			<g>
				<g>
					<g>
						<path class="st9" d="M335,1016.1c0.8-0.4,2.4-1.1,3.5-1.5l0.5-0.1c-0.5,0.3-1.5,0.8-2.6,1.2
							C336.2,1015.8,334.8,1016.3,335,1016.1z"/>
						<path class="st9" d="M340.2,1014.2c0,0,0.1-0.1,0.1-0.1l1.4-0.5L340.2,1014.2z"/>
						<path class="st9" d="M337.9,1014.8l-0.2,0c0.1-0.1,0.4-0.2,0.6-0.2l0.6-0.3C338.4,1014.5,339.7,1014,337.9,1014.8z"/>
						<path class="st9" d="M345.1,1011.1c0.8-0.4,1.4-0.5,2-0.8c-0.1,0.1-0.9,0.4-1.6,0.7C345.6,1011,345.1,1011.1,345.1,1011.1z"/>
						<g>
							<path class="st9" d="M337.3,1014.7c1.4-0.5,0.6-0.1,1.9-0.6c0.5-0.2,1.1-0.4,1.4-0.6l-0.7,0.2c0.5-0.3,1.7-0.6,2.9-1.2
								c-0.1,0-0.1,0-0.3,0.1c-0.7,0.2-1,0.4-1.7,0.7c-0.2,0,3.5-1.5,3.4-1.6c-0.5,0.1-2.7,1.1-3.6,1.4c2.2-0.9,3.9-1.8,4-2
								c-1,0.3,1.1-0.8-0.3-0.4c0.3-0.2,0.7-0.5,0.9-0.6c0.1,0,0.2-0.1,0.3-0.1c-0.1,0-0.2,0.1-0.3,0.1c1.6-0.7-0.8,0.1,1.7-1
								l-0.2,0.1c-0.2,0,0.9-0.4,1.4-0.6c-0.4,0.1,1.7-0.9-0.4-0.1c0.1-0.1,0.3-0.1,0.4-0.2l-0.4,0.1c-0.5,0.2-1.1,0.4-1.7,0.7
								c0,0-0.6,0.2-0.4,0.1c0,0,1.1-0.4,1.5-0.6c-0.6,0.1-0.8,0,0.2-0.5c1.8-0.7,1.5-0.8,1.4-0.8c1.6-0.8-1.9,0.5-0.4-0.2
								c1.2-0.4-0.1,0.2,1.2-0.3l0.6-0.3c0.4-0.2,1.2-0.7-0.1-0.1c-0.7,0.3-1.4,0.6-1.9,0.8c-0.3,0.1-0.9,0.3-1.1,0.4
								c-0.2,0,0.1-0.1,1-0.5c0.3-0.1,0,0,0.1,0c1-0.4,1.1-0.5,1.4-0.7c-2.3,1-3.4,1.3-4.8,2l-0.5,0.1c-2.1,0.8-1.9,1-4.3,1.9
								c-0.6,0.2-1.3,0.5-1.9,0.7c-0.8,0.4-0.7,0.3-0.2,0.2c-1.6,0.7-0.1,0.2-2.4,1.2c1.8-0.6-1.3,0.7-1.7,1
								c-0.4,0.3,1.3-0.5,2.6-0.9c-0.7,0.3,0.5,0,1.1-0.2c0,0-0.8,0.4-1.1,0.5c-1.9,1.1-2.4,1.6-2.5,1.9c-1.4,0.7,0.7,0-1.9,1.1
								l0.4-0.2c0.3-0.1,0.4-0.1,0.5-0.2c0.5-0.2,1-0.4,1.4-0.6c-0.2,0.1-0.3,0.2-0.3,0.2c1.8-0.7,0,0.2,1.9-0.5
								c-0.5,0.4-1.3,0.7-2.1,1.1c0.7-0.2,1.6-0.4,1.4-0.2c-0.1,0.1-0.9,0.4-1.3,0.6c0.2,0,0.2,0.1,0.2,0.1
								C335.8,1015.7,337.2,1014.8,337.3,1014.7z"/>
							<path class="st9" d="M349.6,1007.2c1-0.4,1.4-0.6,1.9-0.8l-0.3,0.1c-0.4,0.1-1.6,0.6-2.2,0.9
								C349.9,1007,349.8,1007.1,349.6,1007.2z"/>
							<path class="st9" d="M350.5,1007.4l-1,0.4l0.4-0.1C350.5,1007.5,350.5,1007.5,350.5,1007.4z"/>
							<path class="st9" d="M342.1,1009.1c-0.2,0.1-1.1,0.6-0.8,0.5l1.9-0.8c0.8-0.4,2-1,2-1.1
								C343.1,1008.5,343.8,1008.4,342.1,1009.1z"/>
							<path class="st9" d="M338.7,1010.6c-1.8,0.6,0.9-0.7-2,0.4c-4.4,1.8,0.3,0.1-1.1,0.8c0.5-0.2,1-0.3,1.5-0.4
								C338,1011,338.5,1010.7,338.7,1010.6z"/>
							<path class="st9" d="M338.7,1010.1c0,0-0.2,0-0.3,0.1c-0.4,0.1-0.7,0.3-1,0.4C337.4,1010.7,338.4,1010.3,338.7,1010.1z"/>
						</g>
					</g>
				</g>
			</g>
		</g>
	</g>
	<g>
		<g>
			<g>
				<g>
					<g>
						<path class="st16" d="M212.2,1012.1c-0.3,0.6-1.4,1-1.9,0.1l-0.5-0.4C210.4,1011.6,212.1,1010.3,212.2,1012.1z"/>
						<path class="st2" d="M214.9,1015.2c-0.6,0.1-0.5-0.4-0.6-0.7l0.6-0.4C215.4,1014.3,215.1,1014.9,214.9,1015.2z"/>
						<path class="st16" d="M220.2,1022.2l0.3,0c-0.3,0-0.6,0.1-0.8,0.2c-0.3-0.3-0.3-1,0.2-1C220,1021.7,219.7,1021.9,220.2,1022.2
							z"/>
						<path class="st16" d="M206.1,1021.7c0.8,1.1,2.7,2.2,4.2,2.6l1.3,1.9c-1.2-0.4-1.8,0.9-2.5,1.6c0,0.6,1.2-0.1,0.8,1
							c-0.3-0.2-0.6-0.7-0.9-0.7c-0.3,1.1,1.3,2.1-0.5,3l-1.2-0.4c-1.2,1.2-2.1,2.7-3.1,4.1c-1,1.4-2,2.7-3.5,3.4
							c0.4,1.2-1,2.1-1.1,3.3l-0.5-0.5c0.4,1.2-1.3,0.9-1.6,1.5l-0.9,0c-1-0.6,0.8-1.7-0.8-2.4c-1.6,0.3-0.4,2.8-2.1,2.8
							c-1,0.6-0.3,1.1-0.5,1.8c0.4,0.6,0.6,0.3,1.2,0.9c-1.3,2.2-4.1-0.2-5.4,1.7c0.4,0.4,0.3,2.7,2,2.1l0-1.1l0.9,0.1
							c-0.4,0.5-1.2,1.3-0.5,1.7c-2.5-1.1-0.9,4.7-2.7,0.9c1.2-0.4,1.3-0.7,0.9-1.9c-1.7,1.6-3.9,2.5-5.1,4l0.5,1.2
							c-0.9-0.7-2.1-0.5-2.9,0.1c-0.1,0.5-0.5,0.8,0.1,1.1c0.4,0.6,2.5-2.3,3,0.2c-1.7,1.3-3.9,2.5-6.1,2.5c0.4-1,1.1-1.3,0.6-3.1
							c1.1-3.8,4.6-6.1,5.5-10c0.7,0.4,1.5-0.1,1.9,0.7c0.6,0.1,0.8-1,1.8-0.4c1-2.8,3.7-4.7,5.4-6.4c-1.9-0.9,0.1-2,0-3.1
							c1.1,0.2,1.6-0.9,2.2-1.5c-0.2-0.3,0.1-0.8-0.4-1.1c-0.2,0.6-0.7,0.5-1.3,0.8c-0.9-1.2,1-0.9,1.7-1.5l0.2,0.9
							c1.2-1.1,4.2-0.5,4.2-2.5l-1.8-0.2c0.8-1.7,3.7-1.7,3.4-3.9c-1.2,0.4-1.8,2.6-3.2,1.1c-0.7-0.8,0.4-1.7,1.1-1.8
							C203.6,1025.8,202.4,1021.2,206.1,1021.7z"/>
						<path class="st16" d="M201,1021.8c-1.7,1.6,1,2.8-0.8,4.2c-0.5-0.9-1.9-0.8-2.5-0.4c-0.1,0.9-1,1.2-1.5,1.7
							c-0.5,0.1-1.3-0.8-0.7-1.4C198.5,1025.9,198.2,1021.7,201,1021.8z"/>
						<path class="st2" d="M206.3,1024.7c-0.7,0.9-2-1.2-2.4,0c-0.5-1.3,0.4-0.4,1.2-1.2l0,0.9L206.3,1024.7z"/>
						<path class="st16" d="M197.3,1028.7c-0.4,0.6-2.1,1.4-3.1,0.4c-0.2,0-0.5-0.6-0.6-0.2C194.4,1028.8,195.8,1027.6,197.3,1028.7
							z"/>
						<path class="st2" d="M203.4,1030.4c-0.1,0.5-0.4,0.7-0.8,1.2C202.7,1031.1,202.6,1030.4,203.4,1030.4z"/>
						<path class="st16" d="M198.4,1031.2c0.8,0.6-0.3,0.6-0.4,0.8l-0.6,0C197.5,1031.5,197.8,1031,198.4,1031.2z"/>
						<path class="st16" d="M191.8,1033.5c-1,0.5-0.2-1.7-1.2-0.9l0.4-0.6l1.3,0.9L191.8,1033.5z"/>
						<path class="st16" d="M189.7,1033.6c0,0.5-0.1,0.8-0.7,0.9l-0.2-0.6C188.7,1033.7,189.4,1034,189.7,1033.6z"/>
						<path class="st16" d="M193.2,1035.1c-0.1,0.6-0.6,0-1.1,0C191.9,1034.7,193.5,1034.7,193.2,1035.1z"/>
						<path class="st16" d="M196.7,1045.4c-0.6-1.2,0.6-1.4,0.9-2.3C197.3,1044,197.5,1044.8,196.7,1045.4z"/>
						<path class="st16" d="M217.6,1006.5c0.6,0.1,0.8-0.5,0.8-1l-0.5-0.2L217.6,1006.5z"/>
						<path class="st16" d="M212.1,1009.9c0.6,1.5,0.8,0.4,2.1,0.7c1.1-0.5,1.3-2.2,2.3-2.9l0.1-1.1
							C215.2,1007.1,213,1008.3,212.1,1009.9z"/>
						<path class="st2" d="M216.2,1016.3c1.1,0,1.3-1.6,1.7-2c-0.9,0.5-2,1.3-2.6,1.7C215.4,1016.4,215.8,1016.3,216.2,1016.3z"/>
						<path class="st16" d="M226.3,999.1c-1.2,0.9-3.6,1.2-3.8,3.7c0.8-0.2,1.1,0.2,2.2-0.3c0.4,2.1-1.6,0.8-2.4,1.5
							c0.9-0.2,0.5,1.2,0,1.7c-1.4,0.4-3.1,1.9-4.5,3.1c-0.2,1.1-3,1.8-1.5,3.1c-0.8,0.8-1.8-0.2-2.8,0c-0.5,3.3-6.2-0.3-6.6,3.6
							c-0.6-1-1.5,0.1-2,0.3c-0.9,0.7-3.1,2.5-1.2,3.7c1.6,0.6,1.2-2.3,3.1-2c3.1,0.4-1.1,2.1,0.2,3.6c0-0.5,1.2,0.7,1.5-0.4
							c-0.9,1.9,2,1.1,2,2.6c2.4-0.6,2.3-0.4,4.7,0.7c0.7-1.1-0.6-2.2-0.9-3.2c0.5-1.6,2.7-0.6,3.3-1.8c1.2,2.9,3,0.5,4.1-0.4
							c1.5-1-1.2-2.5,0.5-3.5c1.6,0.5-0.4,2.7,1.6,3.1l0.3-1c-0.3-1.3-0.8-2.7-0.8-3.8c0.3-0.3,0.8-0.7,1.1-0.3
							c-0.3,0.9,0.5,1.6,1.6,1.6c0-0.6,0-0.8-0.1-1.2c-3.3-1.6,1.3-1.2,1.1-3.4c1.2-4.2,3.7,2,5.5-1c-2.5-1.7,0.9-2.5,1.2-4
							c0.8-0.5,1.5,0,2.6,0.4c0-0.4,0.5-0.9,0.3-1.4c-2.5-2.8-6.3-4.6-10.5-5.5C226.2,998.9,226.2,999,226.3,999.1z"/>
					</g>
				</g>
			</g>
		</g>
		<g>
			<g>
				<g>
					<g>
						<path class="st16" d="M218.1,1013.8c0.1,0.3-0.4,0.5-1.2,0.1l-0.5-0.2C216.5,1013.6,216.9,1012.8,218.1,1013.8z"/>
						<path class="st2" d="M221.9,1015.4c-0.4,0.1-0.5-0.2-0.8-0.3l0.2-0.2C221.7,1014.9,221.9,1015.2,221.9,1015.4z"/>
						<path class="st16" d="M229.9,1018.8l0.2,0c-0.2,0-0.4,0.1-0.4,0.1c-0.4-0.2-0.8-0.5-0.5-0.6
							C229.5,1018.6,229.5,1018.8,229.9,1018.8z"/>
						<path class="st16" d="M219.6,1019c1.3,0.6,3.2,1.1,4.6,1.2l2.1,1c-1.1-0.2-0.7,0.5-0.8,0.9c0.4,0.3,0.8-0.1,1.2,0.5
							c-0.3-0.1-0.9-0.3-1.1-0.3c0.4,0.5,2.2,1,1.5,1.5l-1.1-0.2c-0.4,1.2,0.9,3.1-0.6,3.8c1,0.6,0.5,1.1,1,1.6l-0.6-0.2
							c1,0.6-0.5,0.5-0.4,0.8l-0.7,0c-1.1-0.3-0.3-0.8-1.9-1.2c-1.1,0.2,1.2,1.3-0.1,1.4c-0.4,0.3,0.3,0.5,0.6,0.9
							c0.6,0.3,0.7,0.1,1.4,0.4c0.1,1-3.3-0.1-3.3,0.9c0.5,0.2,1.7,1.3,2.7,1l-0.6-0.5l0.8,0c0,0.2-0.2,0.6,0.5,0.8
							c-2.6-0.5,1.9,2.3-1.7,0.4c0.7-0.2,0.6-0.3-0.3-0.9c-0.5,0.8-1.7,1.2-2,1.9l1,0.6c-1.1-0.3-1.9-0.2-2.3,0.1
							c0.2,0.2,0,0.4,0.6,0.5c0.6,0.3,0.8-1.1,2.5,0.1c-0.7,0.6-1.9,1.2-3.7,1.2c-0.1-0.4,0.2-0.6-1.1-1.5c-1.1-1.8,0.5-2.9-0.8-4.8
							c0.8,0.2,1.2-0.1,1.9,0.3c0.6,0.1,0.1-0.5,1.2-0.2c-0.8-1.4,0.3-2.3,0.7-3.2c-2-0.4-1.1-1-1.7-1.5c0.9,0.1,0.7-0.5,0.8-0.8
							c-0.3-0.2-0.4-0.4-0.9-0.5c0.2,0.3-0.3,0.2-0.6,0.4c-1.4-0.6,0.2-0.5,0.4-0.8l0.7,0.5c0.3-0.5,2.9-0.3,1.7-1.3l-1.5-0.1
							c-0.4-0.9,1.8-0.9,0.3-2c-0.6,0.2,0.1,1.3-1.7,0.6c-1-0.4-0.7-0.9-0.2-0.9C220.2,1021.1,216.6,1018.8,219.6,1019z"/>
						<path class="st16" d="M215.9,1019.1c-0.2,0.9,2.4,1.4,1.9,2.1c-0.9-0.5-1.9-0.4-2.1-0.1c0.5,0.5,0,0.6-0.1,0.9
							c-0.3,0.1-1.4-0.4-1.3-0.7C216.6,1021.3,213.8,1019.1,215.9,1019.1z"/>
						<path class="st2" d="M221.6,1020.5c0,0.5-2.2-0.6-1.8,0.1c-1.1-0.6,0.1-0.2,0.2-0.6l0.6,0.5L221.6,1020.5z"/>
						<path class="st16" d="M217.3,1022.7c0,0.3-0.8,0.7-2.1,0.3c-0.1,0-0.7-0.3-0.6-0.1C215.1,1022.8,215.5,1022.1,217.3,1022.7z"
							/>
						<path class="st2" d="M222.8,1023.4c0.2,0.2,0.1,0.4,0.1,0.6C222.7,1023.8,222.2,1023.4,222.8,1023.4z"/>
						<path class="st16" d="M219.5,1023.9c1,0.3,0.2,0.3,0.1,0.4l-0.5,0C219,1024.1,219,1023.8,219.5,1023.9z"/>
						<path class="st16" d="M215.8,1025.1c-0.5,0.3-1.1-0.8-1.4-0.4l0-0.3l1.5,0.4L215.8,1025.1z"/>
						<path class="st16" d="M214.3,1025.3c0.3,0.2,0.4,0.4,0,0.5l-0.5-0.3C213.6,1025.3,214.3,1025.4,214.3,1025.3z"/>
						<path class="st16" d="M217.9,1025.9c0.3,0.3-0.5,0-0.8,0C216.6,1025.7,217.8,1025.7,217.9,1025.9z"/>
						<path class="st16" d="M226.3,1030.9c-1.1-0.6-0.3-0.7-0.6-1.1C226,1030.2,226.6,1030.6,226.3,1030.9z"/>
						<path class="st16" d="M218.3,1010.6c0.5,0,0.2-0.3-0.1-0.6l-0.4-0.1L218.3,1010.6z"/>
						<path class="st16" d="M216.7,1012.7c1.3,0.8,0.8,0.2,1.9,0.3c0.4-0.3-0.5-1.2-0.2-1.6l-0.6-0.6
							C217.1,1011.1,216.3,1011.8,216.7,1012.7z"/>
						<path class="st2" d="M223.5,1015.9c0.7,0-0.1-0.9,0-1.1c-0.3,0.3-0.6,0.8-0.8,1C223,1015.9,223.2,1015.9,223.5,1015.9z"/>
						<path class="st16" d="M219.3,1006.3c-0.2,0.5-1.6,0.8-0.1,2.2c0.4-0.1,0.8,0,1.3-0.2c1.7,1.1-0.5,0.5-0.7,0.9
							c0.5-0.1,1.1,0.6,1.1,0.9c-0.7,0.3-0.8,1.1-1.1,1.8c0.5,0.6-0.9,1.1,0.9,1.7c0,0.5-1.4-0.1-1.9,0.1c1.7,1.8-4.5,0-2.4,2.1
							c-1-0.5-1.1,0.1-1.2,0.2c-0.2,0.4-0.7,1.4,1.3,1.9c1.5,0.3-0.5-1.2,1-1.1c2.4,0.1,0.5,1.1,2.3,1.8c-0.3-0.2,1.3,0.3,0.9-0.2
							c0.5,1,2.1,0.5,3.1,1.3c1.4-0.3,1.4-0.3,3.8,0.3c-0.2-0.6-1.8-1.1-2.6-1.6c-0.7-0.9,1.5-0.4,1.2-1c2.6,1.5,2.4,0.2,2.6-0.3
							c0.4-0.6-2.3-1.3-1.8-1.8c1.5,0.2,1.5,1.4,3.1,1.6l-0.4-0.6c-1-0.7-2.3-1.4-2.9-2c0-0.2,0.1-0.4,0.5-0.2
							c0.3,0.5,1.4,0.8,2.1,0.8c-0.4-0.3-0.5-0.4-0.9-0.7c-3.2-0.7,0.1-0.7-1.4-1.9c-1.9-2.3,3.7,1,3-0.8c-2.7-0.8-1-1.4-1.8-2.2
							c0.2-0.3,1-0.1,1.9,0.1c-0.2-0.2-0.3-0.5-0.7-0.8c-3.5-1.5-7-2.2-10.3-2.5C219.2,1006.2,219.3,1006.3,219.3,1006.3z"/>
					</g>
				</g>
			</g>
		</g>
		<g>
			<g>
				<g>
					<g>
						<path class="st16" d="M228.6,1045.1c0-0.5,0.7-0.8,1.4-0.2l0.5,0.2C230.3,1045.4,229.5,1046.5,228.6,1045.1z"/>
						<path class="st2" d="M225.1,1042.9c0.5-0.1,0.5,0.3,0.8,0.5l-0.3,0.3C225.1,1043.6,225.1,1043.1,225.1,1042.9z"/>
						<path class="st16" d="M218,1037.8l-0.3,0c0.3,0,0.4-0.1,0.5-0.2c0.4,0.2,0.6,0.7,0.3,0.8C218.4,1038.2,218.5,1038,218,1037.8z
							"/>
						<path class="st16" d="M229.6,1037.6c-1.1-0.8-3-1.6-4.5-1.8l-1.8-1.4c1.2,0.3,1.1-0.8,1.4-1.3c-0.3-0.5-1,0.1-1-0.7
							c0.3,0.1,0.8,0.5,1,0.5c-0.2-0.8-1.9-1.5-0.8-2.3l1.2,0.3c1.1-1.8,0.7-4.6,2.6-5.7c-0.8-0.9,0-1.6-0.3-2.5l0.6,0.3
							c-0.8-0.9,0.7-0.7,0.8-1.1l0.8,0c1.1,0.4-0.1,1.2,1.5,1.8c1.3-0.2-0.6-2,0.8-2.1c0.6-0.5-0.1-0.8-0.2-1.4
							c-0.5-0.4-0.7-0.2-1.3-0.7c0.4-1.6,3.6,0.2,4-1.2c-0.5-0.3-1.2-2-2.4-1.5l0.4,0.8l-0.8-0.1c0.2-0.3,0.6-0.9-0.2-1.2
							c2.5,0.8-0.9-3.5,2.1-0.6c-0.9,0.3-0.9,0.5-0.1,1.4c0.9-1.2,2.5-1.8,3.1-2.8l-0.8-0.9c1,0.5,2,0.4,2.5,0
							c-0.1-0.3,0.1-0.6-0.4-0.8c-0.6-0.4-1.4,1.7-2.7-0.2c1.1-0.9,2.6-1.7,4.5-1.7c-0.1,0.7-0.5,0.9,0.5,2.3c0.3,2.7-2,4.3-1.5,7.2
							c-0.7-0.3-1.3,0-1.9-0.5c-0.6-0.1-0.3,0.7-1.4,0.3c0.1,2.1-1.4,3.5-2.3,4.7c2,0.7,0.7,1.5,1.1,2.3c-1-0.1-1,0.7-1.2,1.2
							c0.3,0.2,0.2,0.6,0.7,0.8c0-0.5,0.4-0.3,0.8-0.6c1.2,0.9-0.5,0.7-0.9,1.2l-0.5-0.7c-0.6,0.8-3.3,0.5-2.6,1.9l1.6,0.1
							c0,1.3-2.4,1.4-1.3,3c0.8-0.3,0.5-1.9,2.2-0.9c0.9,0.6,0.4,1.3-0.2,1.4C230,1034.5,232.8,1037.9,229.6,1037.6z"/>
						<path class="st16" d="M233.7,1037.4c0.7-1.3-2-2.1-1-3.1c0.8,0.7,1.9,0.6,2.2,0.2c-0.3-0.7,0.4-0.9,0.5-1.3
							c0.3-0.1,1.4,0.6,1.1,1C234.1,1034.3,236,1037.5,233.7,1037.4z"/>
						<path class="st2" d="M228.2,1035.4c0.2-0.7,2.1,0.8,2-0.1c0.9,0.9-0.2,0.3-0.5,0.9l-0.4-0.7L228.2,1035.4z"/>
						<path class="st16" d="M234,1032.2c0.1-0.5,1.2-1,2.4-0.4c0.1,0,0.7,0.5,0.6,0.1C236.4,1032.1,235.6,1033,234,1032.2z"/>
						<path class="st2" d="M228.3,1031c-0.1-0.3,0-0.6,0.2-0.9C228.6,1030.5,229,1031,228.3,1031z"/>
						<path class="st16" d="M232.2,1030.4c-0.9-0.5,0-0.5,0-0.6l0.5,0C232.8,1030.1,232.7,1030.5,232.2,1030.4z"/>
						<path class="st16" d="M236.8,1028.6c0.7-0.4,0.8,1.3,1.3,0.7l-0.1,0.5l-1.4-0.7L236.8,1028.6z"/>
						<path class="st16" d="M238.5,1028.5c-0.2-0.3-0.2-0.6,0.2-0.7l0.4,0.5C239.3,1028.5,238.6,1028.2,238.5,1028.5z"/>
						<path class="st16" d="M235,1027.4c-0.1-0.5,0.5,0,0.9,0C236.2,1027.7,234.9,1027.7,235,1027.4z"/>
						<path class="st16" d="M228.3,1019.8c1,0.9,0,1,0,1.7C228.3,1020.8,227.9,1020.3,228.3,1019.8z"/>
						<path class="st16" d="M226.8,1049.7c-0.5,0-0.4,0.4-0.2,0.8l0.4,0.1L226.8,1049.7z"/>
						<path class="st16" d="M229.6,1046.8c-1.1-1.1-0.8-0.3-2-0.4c-0.6,0.4-0.1,1.7-0.6,2.3l0.4,0.8
							C228.4,1049,229.6,1048,229.6,1046.8z"/>
						<path class="st2" d="M223.7,1042.1c-0.8,0.1-0.3,1.2-0.5,1.6c0.5-0.4,1-1.1,1.4-1.4C224.3,1042,224,1042.1,223.7,1042.1z"/>
						<path class="st16" d="M223.4,1055.9c0.5-0.8,2.2-1.1,1.2-3.1c-0.5,0.2-0.9-0.1-1.6,0.4c-1.3-1.6,0.9-0.8,1.2-1.3
							c-0.7,0.2-0.9-0.9-0.8-1.3c0.9-0.4,1.5-1.7,2.1-2.7c-0.3-0.8,1.6-1.5-0.1-2.4c0.3-0.7,1.5,0.1,2.2-0.1c-1-2.6,5-0.1,3.7-3
							c0.9,0.7,1.2-0.1,1.5-0.3c0.5-0.6,1.5-2-0.5-2.8c-1.5-0.4-0.1,1.7-1.7,1.6c-2.6-0.2,0-1.6-1.6-2.7c0.2,0.4-1.3-0.5-1.1,0.3
							c-0.1-1.5-2.1-0.8-2.7-1.9c-1.7,0.5-1.7,0.4-4.1-0.4c-0.1,0.9,1.4,1.7,2.1,2.4c0.3,1.3-1.9,0.6-1.9,1.5
							c-2.2-2.2-2.6-0.3-3.1,0.5c-0.8,0.9,2,1.8,1.1,2.7c-1.5-0.3-0.9-2.1-2.6-2.3l0.2,0.8c0.8,1,1.8,2,2.3,2.9
							c-0.1,0.2-0.3,0.6-0.7,0.3c-0.1-0.7-1.1-1.2-2-1.2c0.2,0.5,0.3,0.6,0.6,1c3.2,1-0.5,1,0.6,2.7c0.9,3.3-3.7-1.3-3.8,1.2
							c2.6,1.1,0.4,2,0.8,3.2c-0.4,0.4-1.2,0.1-2.1-0.1c0.2,0.3,0,0.8,0.4,1.1c3.2,2,6.9,3,10.4,3.4
							C223.5,1056,223.5,1055.9,223.4,1055.9z"/>
					</g>
				</g>
			</g>
		</g>
	</g>
	<g>
		<g>
			<g>
				<g>
					<path class="st17" d="M274.4,939.7c0.2-0.6,0.3-0.9,0.5-1.5c0.2-1,0.1-1.9,0.6-3.2c0.2-0.4,1.2-1.6,1.1-1.4
						c0.1,1.2-0.9,4-0.8,5.5c0,0.2,0.6-0.7,1.1-1.1c0,0,0-0.2,0.1-0.5c0.6-0.7,0.7,0.2,1.2-0.1c0.1-0.3,0.1-0.3,0.2-0.7
						c-0.4,1.7,0.3,1.4,0.8,1.5c0,0.2,0,0.5-0.1,0.7c0.5-0.2,0.7,0.5,1.5-0.2c0.6-0.3,0.8,0.6,1.4,0.5c0.8,0.5,1,2.8,2.7,0.7
						c0.3-0.4,0.5-0.2,0.4,0.8c1.4-2.5,2.1-1.4,2.5-0.8c0.2,0.1,0,1.3-0.2,2.1c0.9-0.9,1.7-1.7,2.1-1.7c0.6-0.1,0.9-0.4,1.2,0.7
						c0,0.1,0.1-0.3,0.1-0.7c0,0.2,0.1,0.5,0.1,0.7c0,0,0-0.1,0-0.3l0-0.2l0-0.1l0,0.1c0,0.1,0.1,0.2,0.1,0.3c0,0.1,0,0.1,0.1,0.2
						c0,0,0,0.1,0.1,0.2c0.1,0.3,0.4,0.9,0.7,1.5c0.6,1.1,1.2,2.4,1.9,3.7c0.1,1,0.4,2.7,0.2,4c-0.2,1.3-0.9,2.2-1.9,1.2
						c-0.5-0.7-1.1,0.4-1.7,0.7c-0.5,0.6-0.9-0.9-1.5,0.8c-0.4-2.2-1.2-3.9-2.3-3.2c0-0.2,0.1-0.4,0.1-0.7c-1.7,1.7-2.8,0.6-4.3,0.8
						c-0.8,0.3-1.3-0.7-2.4-0.1c-0.1,0.2-0.2-0.7-0.5-0.6c-0.1,0.2-0.3,0.3-0.4,0.5c-0.5-0.3-1.3,0-1.4-1.1
						c-0.2-0.9-0.7-0.7-0.9-1.4c-0.3-1-1.7-0.3-1.4-2.3c0-0.2-0.2-0.2-0.4-0.3l0.1-0.7c-0.1-0.1-0.7,0.9-0.8,0.8
						c-0.7-0.8-1.8-1-0.9-4C273.7,940.8,274.1,940.6,274.4,939.7z"/>
					<path class="st17" d="M273.8,933c0.2-0.4,0.2-0.5,0.1-0.5c-0.2,0.4-0.4,1-0.4,1.4l-0.1-0.2c-0.6,0.9,0.1,0.4-0.3,0.7
						c-0.1-0.2-0.1-0.4,0.2-0.8c-0.1,0.3,0,0.1,0,0.3c0.3-0.6,0.4-1,0.5-1.4l0.3,0.2L273.8,933z"/>
					<path class="st17" d="M273.9,934.5l0-0.1c-0.2,0.4-0.3,0.7-0.4,1c0-0.8,0.6-1.2,0.8-2C274.2,933.7,274.2,934.1,273.9,934.5z"/>
					<path class="st17" d="M272.7,936.1c0.3-0.9-0.2-0.3,0.3-1.3l-0.2,1.1L272.7,936.1z"/>
					<path class="st17" d="M275.1,936.9c0.2-0.3,0.1-0.1,0.2,0.1L275.1,936.9L275.1,936.9z"/>
					<path class="st17" d="M279.5,940c0.1-0.6,0.2-1.2,0.1-1.5C279.8,938.6,279.5,939.8,279.5,940z"/>
					<path class="st17" d="M280.4,944.2c-0.1,0.3-0.1,0.5-0.3,0.6c0-0.2,0.4-1,0.1-0.6L280.4,944.2z"/>
					<path class="st17" d="M280,946l-0.1,0.7C279.9,946.5,279.9,946.2,280,946z"/>
					<path class="st17" d="M277.4,935.2l-0.1,0.2C277.3,935.4,277.4,935.3,277.4,935.2C277.4,935.2,277.4,935.2,277.4,935.2z"/>
					<path class="st17" d="M277.4,935.9l0.1-0.8c-0.1,0.1-0.1,0.1-0.1,0.2C277.5,935.5,277.1,936.1,277.4,935.9z"/>
					<path class="st17" d="M277.2,935.7l0.1-0.3c-0.5,0.5,0-0.8-0.4-0.6C276.9,935.5,277,935.7,277.2,935.7z"/>
					<path class="st17" d="M276.6,936.3l-0.3,0.4c0-0.1,0.1-0.5,0.2-0.6l-0.2,0.1c-0.4,0.6,0,1,0.1,1.2L276.6,936.3z"/>
					<polygon class="st17" points="272.5,941.2 272.5,941.2 272.5,941.2 					"/>
					<path class="st17" d="M272.2,943.1l0.6-1.1c-0.3,0,0.1-0.8-0.2-0.7l0,0C272.1,942.4,272.5,942.1,272.2,943.1z"/>
					<path class="st17" d="M277.2,937.2c-0.2-0.1-0.3-0.2-0.7,0.4l0.2,0.5C276.8,937.5,276.9,937.6,277.2,937.2z"/>
					<path class="st17" d="M276.4,939.6l-0.2,0l-0.1,0.4C276.2,939.8,276.3,939.7,276.4,939.6z"/>
					<path class="st17" d="M276.2,940c-0.1,0.2-0.1,0.4-0.1,0.4L276.2,940z"/>
					<path class="st17" d="M275.4,940.7c-0.2,0.8,0.2-0.1,0.3,0.2C276.1,940.1,275.5,940.8,275.4,940.7z"/>
					<polygon class="st17" points="276,941.5 275.8,942.1 276.2,941.3 					"/>
					<path class="st17" d="M279,938.6c-0.5,0.6-0.2,0.8-0.4,1.3L279,938.6z"/>
					<path class="st17" d="M275.4,943.5l0.3-0.8l-0.2,0.4c0,0-0.2,0,0-0.4C275,943.6,275.4,943.2,275.4,943.5z"/>
					<line class="st17" x1="277" y1="941.9" x2="277" y2="942.5"/>
					<path class="st17" d="M273.7,946c-0.2,0.3-0.3,1.5-0.5,1c0.1,0.2,0.3,0.2-0.1,0.8c0.2,0.1,0.4-0.8,0.7-1.1
						C273.4,947.1,273.7,946.2,273.7,946z"/>
					<path class="st17" d="M273.9,947c0,0.2,0,0.6,0.2,0.3C274,947.2,274.2,946.5,273.9,947z"/>
					<polygon class="st17" points="273.1,949 273.3,948.2 273,949.1 					"/>
					<line class="st17" x1="277.6" y1="944.2" x2="278.1" y2="943.1"/>
					<path class="st17" d="M273.7,949.3l-0.4-0.1l0.1,0.6c0.4-0.4,0.4-0.7,0.4-1.1C273.9,948.9,273.8,949,273.7,949.3z"/>
					<path class="st17" d="M274,947.7l-0.3,0.3c-0.1,0.2,0.1,0.3,0.2,0.5C273.8,948.2,273.8,948,274,947.7z"/>
					<path class="st17" d="M273.9,948.4c0,0.1,0,0.2,0,0.3C273.9,948.6,273.9,948.5,273.9,948.4z"/>
					<path class="st17" d="M278.7,944.1l-0.3-0.3C278.5,944.1,278.6,944.2,278.7,944.1z"/>
					<path class="st17" d="M273.6,950.4L273.6,950.4l0.4-0.8C273.9,949.7,273.7,950.2,273.6,950.4z"/>
					<path class="st17" d="M273.4,952.2c-0.1,0.6,0.3,0.1,0.4,0.1c0.1-0.7,0-0.7-0.1-0.9C273.8,951.6,273.5,951.8,273.4,952.2z"/>
					<path class="st17" d="M273.4,953.5l-0.3-0.2C272.8,954.2,273.2,953.4,273.4,953.5z"/>
					<path class="st17" d="M274.1,953.4c0.1-0.1,0.1-0.3,0.3-0.5c0.1-0.4-0.1-0.3-0.1-0.4L274.1,953.4z"/>
					<path class="st17" d="M275,943.7c0.1,0,0.2,0,0.3,0c0-0.3-0.1-0.5-0.1-0.7C275.1,943.3,275,943.5,275,943.7z"/>
					<path class="st17" d="M290.9,940.5c0-0.2-0.1-0.3-0.1-0.4l0-0.1c0,0.1,0,0.1,0,0.1C290.9,940.3,290.9,940.3,290.9,940.5
						c0,0.2-0.1,0.3-0.2,0.5c-0.1-0.1-0.2,0.3-0.4,0.8c-0.2,0.4-0.5,0.9-0.9,1.1l0.1-0.4c-0.3-0.5-1.1,0.2-1.7,0.1l-0.1,0.5
						c0.1,0.1,0.2,0.1,0,0.8c-0.1-0.2-0.2-0.5-0.1-0.9l-0.3,0.6c0-0.4,0.5-1.9,0.2-1.5c-0.6,1.6-0.2-1.3-0.8,0.7
						c0.3-1.2-0.3-0.3-0.4-0.4l-0.2,0.9c-0.1-0.6,0.1-2-0.1-1.8c-0.4,0.1-0.9,0-1.4,0.3c0.3-1.1,0.4,0.1,0.5-1
						c-1.4,1.7-1.3-1.4-2.5-0.7c0,0.1,0,0.2-0.1,0.4c0.1-0.9-0.4-0.1-0.5-0.7c-0.2,0.7,0.1,0.9,0.2,1.1c-0.7,1.6,0.1-0.5-0.4-0.1
						c0,0.1,0,0.3-0.1,0.5c-0.5,0.2,0.3-1.1-0.1-0.9l-0.1,0.6c-0.2-0.1-0.2,0.2-0.6,0.5c0.4-0.9,0.5-1.7,0.5-1.8
						c-0.2,0.4-0.3,0-0.6,0.9c0.4-2-0.6,0.3-0.2-1.6c-0.4,0.7-0.2,0.9-0.5,1.6c-0.5,0.4,0.3-1,0.3-1.3c-0.2,0.3-0.8,0.4-0.7-0.4
						l-0.3,0.7c0-0.8-0.4-1.2,0-2.2c-0.5,0.9-0.3,1-0.1,1.1c-0.2,0.5-0.5,0.7-0.5,0.5c0,0-0.1,0.5,0.1,0.2c-0.2,0.6-0.2,0.2-0.3,0.3
						c-0.2-0.4,0.3-0.3,0.3-0.8c-0.2,0.2-0.5-0.1-0.7,0.8c-0.3-0.1,0.3-1,0.3-1.4c-0.1,0.7,0.6-0.6,0.4,0.3c0.2-0.3,0.3-0.6,0.3-0.9
						c-0.3,0.1-0.4-0.8-0.8,0.1l0.2-0.7l-0.4,0.6l0-0.2c-0.3,1-0.3,1.5-0.6,2.4c-0.2,0.4-0.2,0.2-0.3,0.2l0.3-0.8
						c-0.1-0.3-0.8,1.3-0.9,0.9c0.6-0.9,0.4-1.6,0.5-2.4c-1,1.6-0.6,1.3-1.4,2.7c-0.2-0.1-0.7,0.2-0.7-0.5c0.5,0.3,0.3-1.3,1-1.7
						c0-0.2-0.2,0-0.3-0.1c0.6-1.4,0.6-1,1-2l-0.5,0.9c0.2-0.7,0.6-1.8,0.5-2.2c-0.2,0.4-0.6,0.9-0.6,0.6c0.3-0.7,0.4-0.9,0.2-1.1
						c-1.3,1.5-0.7,2.5-1.3,4.1c0.4,0.8-1.5,4.9-1,6.2c0.4-0.5,0.4-0.7,0.8-0.8c0.8-1.4,0.2-1.4,0.4-2.4c0.2-0.2,0.4-0.4,0.3-0.1
						l0.4-1c0.6-0.2-0.5,1.6,0.1,1.4l-0.2,0.2l0.3-0.2l0-0.2c0.2,0,0.5-0.7,0.5-0.3l-0.4,0.6c0.3-0.4-0.2,0.8,0.1,0.5
						c-0.3,0.3-0.5,0.8-0.6,0.8c0,0.6,0.2,0.8,0.3,1c0.9-0.2,1.4,0.5,1.7,1.7c0-0.2,0-0.3,0.1-0.4c0.2-0.2,0.1,0.2,0,0.7
						c0.1,0.2,0.1,0.5,0.2,0.7c0.3,0,0.6-0.1,0.9,0.1c-0.2,0.5-0.3,0.7-0.3,0.7c0.2,0,0.3-0.2,0.4-0.8c0.3,0,0.2,0.5,0.3,0.6
						l-0.7,0.7c0,0.4,0.4-0.7,0.5-0.2c0.4-0.2,0.2-0.9,0.5-1.7l0.1,0.2l0.3-1.1c0.2,0.4,0,1.4-0.1,2l-0.1-0.5
						c-0.5,1.1,0.3,0.3,0.1,1l-0.1,0.1c0.3,0.2,0.2-0.6,0.4-0.7l0,1.2l0.2-0.8c0.4-0.4,0.4,1,0.7,1.4c0.1,0.3,0.6-0.2,1-0.3
						c0-0.2,0-0.4,0.1-0.7c0.1,0.1,0.5,0.2,0.1,1l0.5-0.6c0.1,0,0.1,0.2,0.1,0.4l0.1-0.4l0.4-0.2c-0.1,0.2-0.1,0.6-0.2,0.6
						c0,1,1-0.6,1.3,0l-0.3,0.4c0.5-0.5,0.1,0.9,0.6,0.4l0.1-0.6c0.3-0.2,0.5,0.7,0.3,1.2c0.5-1.6,0,0.5,0.5-0.8l-0.3,1.5
						c0.3-0.4,0.5-0.6,0.6-1.3c0.1,0.7,0.2,0.9,0.6,0c0,0,0,0,0,0l0,0l0,0c0.1-0.1,0.3,0.2,0.3-0.5c0.5,0.1,0,1.5,0.5,1.5l0.2-1.1
						c0.4,0.3,0.9-0.5,1.3-1.1l-0.1,0.9c0.2-0.2,0.1-0.9,0.4-1.1c0,0.2,0,0.5,0,0.7c0.3,0,0.7,0.5,1.2,0.6c0,0.2-0.1,0.3-0.1,0.4
						c0.2,0,0.6-0.4,0.8-0.8c0.6,1.5,1.8,2.5,2.7,1.9c0.1-2.4-0.7-4.9-1.8-7.3c-0.4-0.8-0.7-1.5-1-2.3c-0.1-0.2,0-0.1-0.1-0.3
						C291,940.8,291,940.6,290.9,940.5z"/>
				</g>
			</g>
		</g>
	</g>
	<g>
		<g>
			<g>
				<g>
					<path class="st18" d="M191.1,947.2c-0.6,0.2-0.9,0.4-1.6,0.6c-0.9,0.6-1.5,1.7-2.9,2.1c-0.5,0-2.1-0.5-1.8-0.7
						c0.4-0.8,1.4-1.4,2.3-2c0.5-0.3,1-0.7,1.4-1c0.2-0.2,0.4-0.4,0.6-0.6c0.2-0.2,0.3-0.4,0.5-0.7c0.2-0.2-1-0.7-1.5-2.2
						c0,0-0.3,0.4-0.5,0.8c-0.2-0.4-0.3-1-0.2-1.8c0.1-0.8,0.4-1.7,0.9-2.7c0.6-1,1.3-1.8,2.2-2.5c0.4-0.4,0.9-0.7,1.4-1
						c0.5-0.3,0.9-0.5,1.4-0.7c-0.9-0.1-0.9,0-1.6-0.1c0.5,0,1,0,1.5,0c0.5,0,1,0,1.5,0.1c1,0.1,1.8,0.2,2.5,0.4
						c1.5,0.3,2.5,0.6,3.4,0.9c0.2,0.3,0.3,0.7,0.4,1c0.2,0.1,0.4,0.1,0.5,0.2l0.3,0.1c0.1,0,0.1,0,0.1,0c0.1,0,0.2,0.1,0.2,0.1
						c0.2,0.1,0.4,0.1,0.7-0.2c0.2-0.2,0.3,0,0.5,0.2c0.1,0.2,0.3,0.4,0.5,0.4c0.3,0.3,0.6,1.1,1.1,1.7c0.4,0.5,0.9,0.6,0.6-1
						c-0.1-0.6,0-0.4,0.7,1.1c-0.6-2-0.8-2.8-0.8-3.1c0-0.2,0.2,0.1,0.4,0.1c0.1,0,1,1.2,1.7,2c-0.8-1.8-1.6-2.9-1.6-3.2
						c-0.1-0.3-0.2-0.5-0.1-0.6c0,0,0-0.1,0,0c0,0.1,0,0,0,0l0-0.1l0.1-0.2c0.1-0.3,0.2-0.6,0.4-0.9c0.3-0.6,0.7-1.2,1.2-1.8
						c0.2-0.3,0.1-1.2-0.1-1.7c0.3-0.1,0.6-0.1,0.9-0.2c0.3-0.8,0.4-1.7,0.6-2.6c0.2-0.9,0.5-1.7,1.2-2.2c1-0.7,2.2-0.5,3.4,0
						c1.2,0.5,2.3,1.5,3.4,2.3c0.1,0.7,0.3,1.4,0.6,2.2c0.3,0.8,0.7,1.5,0.9,2.2c0.6,1.4,0.8,2.3-0.6,2.9c-0.5,0.1-0.6,0.5-0.5,1
						c0,0.4,0.2,1,0.3,1.4c0.4,0.8-1.2,0.9,0.2,2.5c-1.2,0.3-2.3,0.9-3,1.6c-0.7,0.7-1,1.6-0.8,3c-0.2,0-0.4-0.4-0.7-0.4
						c0.6,2.1,0.5,3.8,0.1,5.2c-0.2,0.7-0.4,1.3-0.6,1.9c-0.2,0.6-0.6,1.3-1.4,1.7c-0.7,0.4-1.3,0.2-2.2-0.4
						c-0.8-0.4-1.6-0.8-2.5-0.8c-0.2,0.1-1-1-1.4-1.1c-0.2,0.1-0.3,0.2-0.5,0.3c-1.3-0.8-2.9-1-3.6-2.4c-0.9-1.2-1.9-1.4-2.6-2.3
						c-0.2-0.3-0.6-0.6-0.9-0.9c-0.4-0.2-0.9-0.5-1-0.6c-0.5-0.3-0.8-0.7-1-1.7c-0.1-0.3-0.4-0.1-0.5-0.1c-0.1-0.2-0.3-0.4-0.4-0.6
						c-0.1,0-0.1,0.3,0,0.6c0.1,0.3,0.3,0.5,0.3,0.5c-0.1,0-0.3,0.1-0.4,0.5c-0.1,0.3-0.1,0.8-0.2,1.3c-0.2,1-0.8,1.8-2.3,2.5
						C192.5,947.4,192,946.8,191.1,947.2z"/>
					<path class="st18" d="M186.5,955.4c-0.5,0-0.5,0.3-0.4,0.4c0.4-0.2,1-0.4,1.3-0.8l-0.1,0.5c1.1,0.1,0.2-0.5,0.7-0.3
						c-0.1,0.3-0.2,0.5-0.8,0.5c0.3-0.1,0.1-0.2,0.2-0.4c-0.7,0.1-1,0.4-1.4,0.6l0-0.8L186.5,955.4z"/>
					<path class="st18" d="M187.5,953.5l-0.1,0.2c0.5,0,0.7-0.2,1-0.4c-0.6,0.8-1.4,0.2-2.1,0.7C186.7,954,187.1,953.5,187.5,953.5z
						"/>
					<path class="st18" d="M189.6,954.1c-0.9,0.4-0.1,0.6-1.1,0.9l1-1L189.6,954.1z"/>
					<path class="st18" d="M188.5,948.9c-0.4-0.2-0.2-0.1-0.1-0.5L188.5,948.9L188.5,948.9z"/>
					<path class="st18" d="M201.9,938.6c0.1-0.6,0.4-1.2,0.3-1.5C202.4,937.2,202,938.4,201.9,938.6z"/>
					<path class="st18" d="M204,944c0,0.4,0.1,0.6-0.1,0.7c-0.1-0.3,0.1-1.2-0.2-0.8L204,944z"/>
					<path class="st18" d="M204.3,946.3l0.2,0.7C204.5,947,204.4,946.6,204.3,946.3z"/>
					<path class="st18" d="M185.6,946.2l0.2-0.1c0,0-0.1,0-0.2-0.1C185.6,946.2,185.6,946.2,185.6,946.2z"/>
					<path class="st18" d="M186.1,945.1c-0.2,0.4-0.4,0.7-0.7,0.9c0.1,0,0.2,0.1,0.2,0.1c0.1-0.2,0.3-0.3,0.4-0.4
						C186.2,945.6,186.3,945.5,186.1,945.1z"/>
					<path class="st18" d="M186.1,946.1l-0.3,0.1c0.7,0.4-0.7,0.8-0.2,1.4C186.2,947,186.2,946.5,186.1,946.1z"/>
					<path class="st18" d="M187,946.5l0.5,0.1c-0.1,0.2-0.4,0.2-0.6,0.2l0.2,0.3c0.7,0,0.8-1.1,0.8-1.3L187,946.5z"/>
					<polygon class="st18" points="193.6,948.9 193.6,948.9 193.6,948.9 					"/>
					<path class="st18" d="M195.3,947.7l-1.3,0.1c0.2,0.4-0.7,0.6-0.4,1.1l0,0C194.8,948.6,194.3,948.2,195.3,947.7z"/>
					<path class="st18" d="M187.3,943.5c0,1.3,0,1.8,0.8,1.9l0.2-1.6C187.8,944.5,187.8,943.8,187.3,943.5z"/>
					<path class="st18" d="M190,941.7c-0.1,0.4-0.2,0.8-0.2,1.2l0.5-0.4C190.2,942.4,190,942.1,190,941.7z"/>
					<path class="st18" d="M190.3,942.4c0.2,0.1,0.4,0,0.5-0.4C190.7,942.1,190.5,942.3,190.3,942.4z"/>
					<path class="st18" d="M191.2,944.1c0.8-0.4-0.2-0.3,0.1-1.2c-0.4-0.1-0.5,0.2-0.4,0.5C191,943.6,191.2,943.9,191.2,944.1z"/>
					<path class="st18" d="M192.9,940.5c0.2,0.1,0.5,0.2,0.7,0.3c-0.2-0.3-0.3-0.5-0.5-0.8C193,940.1,193,940.3,192.9,940.5z"/>
					<path class="st18" d="M200.5,936.5c-1,0.4,0.1,1-0.1,1.4C200.4,937.5,200.5,937,200.5,936.5z"/>
					<path class="st18" d="M194.9,941.6c-0.2-0.2-0.4-0.4-0.6-0.6c0,0.2,0.1,0.3,0.1,0.4c-0.1,0.1-0.3,0.3-0.7,0.2
						C194.4,942.3,194.5,941.5,194.9,941.6z"/>
					<path class="st18" d="M197.4,939.4c0.2,0.2,0.3,0.5,0.4,0.7"/>
					<path class="st18" d="M195.8,943.4C195.8,943.4,195.8,943.4,195.8,943.4L195.8,943.4L195.8,943.4L195.8,943.4L195.8,943.4
						L195.8,943.4L195.8,943.4L195.8,943.4L195.8,943.4L195.8,943.4L195.8,943.4L195.8,943.4L195.8,943.4L195.8,943.4L195.8,943.4
						L195.8,943.4L195.8,943.4C195.8,943.4,195.8,943.4,195.8,943.4C195.8,943.4,195.8,943.4,195.8,943.4L195.8,943.4L195.8,943.4
						L195.8,943.4L195.8,943.4L195.8,943.4L195.8,943.4L195.8,943.4L195.8,943.4L195.8,943.4L195.8,943.4L195.8,943.4
						C195.8,943.4,195.8,943.4,195.8,943.4C195.8,943.4,195.8,943.3,195.8,943.4C195.7,943.3,195.8,943.4,195.8,943.4L195.8,943.4
						L195.8,943.4L195.8,943.4L195.8,943.4L195.8,943.4L195.8,943.4L195.8,943.4L195.8,943.4L195.8,943.4L195.8,943.4L195.8,943.4
						C195.8,943.4,195.8,943.4,195.8,943.4z"/>
					<path class="st18" d="M195.8,943.4c0,0,0,0.1,0,0.1c0,0,0,0.1,0.1,0.2c0,0.1,0,0.3,0,0.4c0-0.1,0-0.2,0-0.3c0-0.1,0-0.1,0-0.2
						C195.8,943.5,195.8,943.4,195.8,943.4z"/>
					<path class="st18" d="M195.8,943.5c0-0.1-0.1-0.2-0.1-0.2C195.7,943.3,195.8,943.4,195.8,943.5L195.8,943.5z"/>
					<line class="st18" x1="199.7" y1="942.7" x2="200.2" y2="941.6"/>
					<path class="st18" d="M195.7,945.9c0.1-0.7,0.2-1.2,0.2-1.7c0,0.4,0,0.9-0.1,1.5c-0.3,1.1-0.1,0.5,0-0.2
						C195.7,945.7,195.7,945.9,195.7,945.9z"/>
					<path class="st18" d="M195.9,944.1c0-0.1,0-0.3,0-0.4c0,0,0.1,0.5,0,1.2C195.9,944.5,195.9,944.1,195.9,944.1z"/>
					<path class="st18" d="M195.9,944.9c0,0.2-0.1,0.4-0.1,0.6C195.8,945.3,195.9,945.2,195.9,944.9z"/>
					<path class="st18" d="M201.4,943.1l-0.5-0.5C201,943,201.2,943.2,201.4,943.1z"/>
					<path class="st18" d="M195.3,947.4l-0.1,0.3l0,0l0,0l0-0.1L195.3,947.4C195.2,947.6,195.3,947.4,195.3,947.4
						C195.3,947.3,195.3,947.4,195.3,947.4z"/>
					<path class="st18" d="M194.4,949.3c-0.1,0.2-0.1,0.2-0.2,0.4l0,0l0,0l0,0l0,0v0v0v0l-0.1,0.1l0,0l0,0c0.1,0,0.1,0,0.1,0
						c0-0.1,0-0.2,0-0.2C194.4,949.5,194.4,949.4,194.4,949.3c0,0,0.1-0.1,0.1-0.1c0-0.1,0.1-0.1,0.1-0.2
						C194.6,949.1,194.5,949.2,194.4,949.3L194.4,949.3L194.4,949.3L194.4,949.3z"/>
					<path class="st18" d="M193.9,951l-0.2-0.1l-0.1-0.1l0,0l0,0l0.7-1.1v0v0v0l0,0l0,0l0,0l0,0c0,0-0.1,0.1,0,0c0,0,0,0.1,0,0.1
						c0,0,0,0,0,0l0,0l0,0l0,0l0,0l0,0v0v0v0l-0.9,1.3l0,0l0.1,0C193.7,950.9,193.8,950.9,193.9,951z"/>
					<path class="st18" d="M195.8,951.4c0.1,0,0.2-0.3,0.4-0.4c0-0.4-0.4-0.4-0.6-0.6C195.7,950.7,195.7,951.1,195.8,951.4z"/>
					<path class="st18" d="M194.5,942.3c0.1-0.2,0.2-0.3,0.4-0.5c-0.4-0.1-0.8,0.1-1.2,0.3C194.1,942.2,194.3,942.3,194.5,942.3z"/>
					<path class="st18" d="M207.8,926.9c0.7,1.9,0,4-0.1,5.2c-0.2,0.4-0.3,0.9-0.3,1.5c0,0.5,0,1.1,0.1,1.6l0.1,0.4
						c0.1,0,0.1,0.1,0.1,0.1c0.1,0.1,0.2,0.2,0.3,0.3c0.2,0.2,0.3,0.5,0.3,0.7l-0.3-0.2c-0.3,0.1-0.2,0.4-0.2,0.9
						c0.1,0.4,0.2,1,0.2,1.3l0.4,0.4c0.1,0,0.1-0.2,0.6,0.5c-0.2,0-0.4,0-0.7-0.3l0.5,0.8c-0.3-0.3-1.6-2-1.3-1.3
						c0.7,1,0.4,0.8,0.2,0.6c-0.2-0.2-0.4-0.3,0.4,0.9c-1-1.4-0.2,0.1-0.3,0.2l0.7,1.2c-0.4-0.3-1.6-2.1-1.4-1.6
						c0,0.3-0.1,0.5-0.2,0.7c-0.1,0.2-0.2,0.3-0.3,0.5c-0.6-1.7,0.3,0.2-0.5-1.6c0.3,1.4-0.3,0.7-0.7,0.1c-0.5-0.7-0.8-1.4-1-0.9
						c0,0.1,0.1,0.3,0.1,0.5c-0.2-1.1-0.3-0.2-0.5-0.9c0,0.9,0.3,1.1,0.4,1.4c0,2.1-0.1-0.6-0.4-0.1c0,0.1,0.1,0.4,0.1,0.6
						c-0.4,0.2-0.1-1.4-0.3-1.2l0.1,0.7c-0.2-0.2-0.1,0.2-0.4,0.5c0.2-1.1,0.1-2,0.1-2.1c-0.1,0.5-0.2,0-0.4,1c0.1-1.1,0-1-0.2-0.9
						c-0.1,0.1-0.3,0.2-0.1-0.8c-0.4,0.7-0.2,1-0.5,1.7c-0.5,0.3,0.3-1,0.3-1.4c-0.2,0.3-0.7,0.4-0.5-0.4l-0.4,0.6
						c0-0.1,0-0.2,0-0.3c0,0,0-0.1-0.1-0.2l-0.2-0.2c-0.2-0.3-0.5-0.6-0.7-0.9c-0.5-0.6-1-1.1-1.2-1.7c-0.9,0.8,0.2,1.1,1,1.6
						c-0.1,0.6-1,0.5-1.3,0.2c0.2,0.1,0.1,0.5,0.5,0.3c-0.2,0.6-0.6,0-0.9,0.1c-1.5-0.7,0.7-0.2,0.2-0.8c-0.3,0-0.9-0.1-1.4-0.1
						c-0.5,0-0.8,0.2-0.5,0.7c-0.8-0.1-1-0.3-1-0.7c-0.1-0.3,0-0.7-0.6-0.9c0.9,0.3,1.3,0.2,1.8,0.1c0.4-0.1,0.8-0.2,1.1,0.4
						c0.4-0.3,0.4-0.5,0.1-0.9c-0.7-0.1-1.7-0.4-3-0.5c-1.3,0-2.6,0.4-2.4,0.8c-0.5-0.1-1-0.1-1.6-0.1c-0.4,0.4-0.7,0.9-1,1.4
						c-0.2,0.1-0.4,0.1-0.6,0.2c0.9-0.1,2-0.3,2.8-0.2c0.5,0,0.9,0.1,1.2,0.2c0.3,0.1,0.6,0.3,0.8,0.5c0.2,0.4-0.9,0.3-1.5,0.7
						c-0.3-0.2-0.5-0.4-0.8-0.5c-1,0.4-1,1-1.1,1.5c0,0.3-0.1,0.6-0.2,0.9c-0.1,0.3-0.3,0.6-0.6,1.1c-0.1-0.4-0.2-0.6-0.5-0.5
						c-0.3,0.1-0.7,0.4-1,0.8c-0.7,0.9-1.2,2.1-1.5,2.7c0.9,0.6,1.3,0.5,1.6,0.4c0.3-0.1,0.6-0.1,1.4,0.2c0,0.8,0.6,1.3,0.1,2
						c-0.1-1.3-1.2,0.8-2-0.1c-0.2,0.2,0.1,0.4,0.1,0.6c-1.4,0.4-1.2-0.2-2.3,0.3l1,0c-0.7,0.4-1.8,0.8-2,1.4c0.5,0,1.1,0.2,0.8,0.5
						c-0.7,0.2-1,0.3-1,0.8c2,0.8,2.4-1.4,4.1-1.9c0.1-0.8,1.3-1.4,2.6-2c0.6-0.3,1.3-0.7,1.8-1c0.5-0.4,0.9-0.8,1.2-1.2
						c-0.6-0.3-0.8-0.2-1-0.8c-0.3-0.2-0.6-0.4-0.8-0.4c-0.2,0-0.5,0.2-0.6,0.4c-0.4,0.5-0.6,1.1-1.1,1.4c-0.3-0.2-0.5-0.6-0.2-0.9
						c-0.4,0.1-0.7,0.2-1.1,0.3c-0.1-0.5,0-0.9,0.2-1.1c0.2-0.2,0.4-0.4,0.7-0.4c0.5-0.2,0.9-0.2,1.3-1.2c0,0.2,0,0.4,0,0.5
						c0.1-0.4,0.3-0.8,0.5-1.1c-0.1,0-0.2,0-0.3,0.1c0.2-0.3,0.3-0.7,0.5-1c0.2-0.3,0.6-0.7,1.3-0.7c-0.3,0.3-0.5,0.7-0.7,1.1
						c0.2-0.4,0.5-0.3,0.8-0.2c0.3,0.1,0.6,0.3,0.9,0.1c-0.4,0.5-0.3,1-0.5,1.1c0.5,0.1,0.9,0.2,1.2,0.4c0.3,0.1,0.5,0.2,0.8,0.3
						c0.9-0.1,1.7,0.3,2.3,0.9c0.5,0.5,1,1.2,1.5,2c0-0.2,0-0.3,0-0.4c0.3-0.1,0.3,0.4,0.3,0.9c0.2,0.3,0.4,0.7,0.6,1
						c0.6,0.2,1.1,0.3,1.8,0.8c-0.1,0.5-0.1,0.7-0.2,0.6c0.3,0.1,0.5,0,0.3-0.7c0.4,0.1,0.6,0.8,0.9,1c-0.3,0.1-0.6,0.3-0.9,0.4
						c0.3,0.5,0.4-0.6,0.8,0.1c0.7,0.1-0.2-1,0-1.7l0.2,0.3l-0.2-1.4c0.2,0.3,0.4,0.9,0.6,1.3c0.1,0.4,0.3,0.9,0.4,1.3l-0.4-0.6
						c-0.2,1.1,0.7,0.5,0.9,1.4l-0.1,0c0.7,0.4-0.2-0.7,0.3-0.6c0.3,0.5,0.5,1,0.9,1.5l-0.2-0.9c0.4-0.2,1.4,1.5,2.3,2.2
						c0.5,0.5,0.9,0.1,1.4,0.3c-0.2-0.3-0.4-0.6-0.5-0.8c0.3,0.3,1,0.5,1.1,1.2l0.2-0.6c0.2,0,0.4,0.1,0.6,0.2l-0.3-0.3
						c0.2-0.1,0.3-0.3,0.4-0.6c0.1,0.2,0.4,0.4,0.2,0.6c0.5,0.2,0.6-0.3,0.7-0.9c0-0.6-0.1-1.4,0.2-1.7l0.2,0.7
						c-0.2-1.2,0.7,0.2,0.5-1l-0.5-0.5c-0.1-0.8,0.7-0.9,1.1-0.2c-1.2-1.6,0.4,0.2-0.6-1.5c0.4,0.4,0.8,0.7,1.2,1.1
						c-0.2-0.7-0.4-1.3-1-1.7c0.6,0.1,0.9-0.3,0.1-1.4c0,0,0,0,0,0l0,0l0,0c-0.1-0.2,0.2-0.5-0.4-0.8c0.2-1.1,1.4,0.5,1.5-0.8
						l-1-0.8c0.4-0.7-0.3-2.1-0.7-2.9l0.9,0.3c-0.1-0.5-0.9-0.3-0.9-1c0.2,0,0.5,0,0.7,0.1c0.1-0.6,0.8-1.3,1.2-2.1
						c0.2,0.1,0.3,0.2,0.4,0.3c0.1-0.4-0.1-1.1-0.2-1.7c1.8-0.4,3.3-1.2,3.7-2.3c-1.4-2-2.9-4.3-4.9-6c-0.8-0.4-1.7-0.6-2.8-0.4
						C210.1,925.9,208.9,926.2,207.8,926.9z"/>
				</g>
			</g>
		</g>
	</g>
	<polygon class="st14" points="402.6,958.8 170.6,958.8 162.3,921.7 409,921.7 	"/>
	<g>
		<g>
			<g>
				<g>
					<g>
						<path class="st19" d="M346.2,944.7c-0.5-0.4-0.7-0.6-1.3-1c-0.9-0.5-1.8-0.6-3-1.4c-0.3-0.3-1.1-1.7-0.8-1.6
							c1.4,0.1,3.8,2,5.2,2.4c0.2,0.1-0.3-0.9-0.5-1.5c0,0-0.2-0.1-0.4-0.3c-0.3-0.9,0.7-0.7,0.8-1.4c-0.3-0.2-0.3-0.2-0.5-0.4
							c1.4,1.1,1.6,0.3,2.1-0.1c0.2,0.1,0.4,0.3,0.6,0.4c0.1-0.3,0.4-0.5,0.8-0.7c0.4-0.2,0.8-0.6,1.4-1.2c0.6-0.5,1.6-0.7,3.1-0.6
							c0.7,0.1,1.6,0.3,2.3,0.5l0.1,0l0,0l0,0c0,0,0,0,0,0c0,0,0,0,0.1,0c0.1,0.2,0,0.7,0.1,1.1c0,0.5,0.3,0.7,0.6-0.9
							c0.1-0.5,0.1-0.4,0.1,0.6c0.1-1.6,0.2-2.2,0.2-2.3c0-0.1,0.1,0.2,0.2,0.3c0,0,0.3,1.2,0.5,2l0-0.2c0.1-0.1,0.2-0.2,0.3-0.3
							c0.2-0.2,0.5-0.3,0.7-0.5c0.5-0.3,1-0.5,1.5-0.7c1-0.3,1.8-0.4,2.5-0.3c0.8,0.1,1.5,0.1,1.9,0.3c0,0,0.1,0,0.1,0.1l0,0l0,0
							l0,0l0,0l0,0c0.3-1-0.4,1.4-0.3,1.1v0v0l0,0c0,0,0,0.1,0,0.1c0,0.2-0.1,0.6-0.2,1c0,0.3-0.1,0.8-0.1,1.1c0,0.1,0,0.2,0,0.4
							c0,1.2,0.4,2.1,0.6,2.4c0.1,0.2,0.1,0.1,0.1,0.1l0,0l0,0l0,0l0,0l0.1,0.1l0.2,0.1c0.4,0.3,0.9,0.7,1.2,1.4
							c0.3,0.6,0.5,1.4,0.4,2.2c-0.2,1.5-1.4,2.4-2.3,1.4c-0.5-0.7-1.2,0.2-1.9,0.5c-0.3,0.2-0.5,0-0.8-0.1
							c-0.2-0.1-0.4-0.1-0.8,0.7c0.1-1.1,0-2.1-0.2-2.7c-0.2-0.6-0.6-0.8-0.8-0.4c0-0.2,0-0.5,0-0.7c-0.2,0.5-0.4,0.8-0.4,1.1
							c0,0.1,0,0.2,0,0.3c-0.1,0.1-0.1,0.1-0.2,0.2c-0.2,0.1-0.3,0.3-0.5,0.4c-0.7,0.5-1.2,0.8-1.8,1.4c-0.3,0.4-0.7,0.5-1.1,0.5
							c-0.4,0-0.9-0.1-1.4,0.2c-0.1,0.2-0.3-0.8-0.5-0.7l0,0l-0.3,0.5c-0.2-0.2-0.5-0.3-0.8-0.5c-0.1-0.1-0.3-0.2-0.4-0.4
							c-0.1-0.1-0.1-0.2-0.1-0.3c0-0.1,0-0.1,0-0.2c0-0.1,0.1-0.2,0.2-0.3l0.1-0.1l0.1-0.1l0,0l0,0l0,0l0,0l0,0
							c-0.1,0.5,1-4,0.5-2.1l0,0l0,0c0,0,0,0.1,0,0.1c0,0.1,0,0.2,0,0.4c0,0.2,0.1,0.4,0.1,0.6c0,0.1,0.1,0.3,0.1,0.3
							c0,0,0-0.1-0.1-0.1c-0.4-0.7-0.6,0.8-2.1-0.5c-0.2-0.2-0.2,0.1-0.4,0.1l-0.6-0.5c-0.1,0.1,0.5,1,0.4,1c-0.9,0.2-1.4,1-3.9-0.9
							C347,945.8,347,945.3,346.2,944.7z"/>
						<path class="st19" d="M339,944.4c-0.3-0.3-0.5-0.2-0.5-0.1c0.4,0.2,0.9,0.5,1.4,0.5l-0.3,0.2c0.8,0.8,0.4-0.1,0.7,0.3
							c-0.2,0.1-0.4,0.1-0.8-0.3c0.2,0.1,0.2,0,0.3,0c-0.6-0.4-0.9-0.5-1.4-0.7l0.4-0.4L339,944.4z"/>
						<path class="st19" d="M340.7,944.3l-0.2,0c0.3,0.3,0.6,0.4,0.9,0.5c-0.8-0.1-1.1-0.8-1.8-1.1
							C339.9,943.9,340.4,943.9,340.7,944.3z"/>
						<path class="st19" d="M341.9,945.9c-0.9-0.4-0.3,0.2-1.3-0.4c0.4,0.1,0.8,0.2,1.2,0.3L341.9,945.9z"/>
						<path class="st19" d="M343.7,943.3c-0.1-0.3-0.1-0.2,0.2-0.2L343.7,943.3L343.7,943.3z"/>
						<path class="st19" d="M349.9,939.8c-0.5-0.4-1.1-0.8-1.6-0.7C348.7,938.8,349.8,939.6,349.9,939.8z"/>
						<path class="st19" d="M354.9,942.9c-0.1,0.4-0.1,0.5-0.2,0.6c0-0.2,0.3-1.1,0.1-0.6C354.8,942.9,354.8,942.9,354.9,942.9z"/>
						<path class="st19" d="M354.5,944.9l-0.1,0.8C354.4,945.5,354.5,945.2,354.5,944.9z"/>
						<path class="st19" d="M343.3,940.2l0.1,0.1C343.5,940.3,343.4,940.2,343.3,940.2C343.4,940.2,343.4,940.1,343.3,940.2z"/>
						<path class="st19" d="M344.1,940.3l-0.8-0.4c0,0.1,0.1,0.1,0.1,0.2C343.8,940.2,344.1,940.7,344.1,940.3z"/>
						<path class="st19" d="M343.8,940.5l-0.3-0.2c0.2,0.7-0.8-0.3-0.9,0.3C343.3,940.9,343.6,940.7,343.8,940.5z"/>
						<path class="st19" d="M344,941.3l0.2,0.4c-0.1,0-0.4-0.3-0.5-0.4l-0.1,0.3c0.4,0.6,1,0.3,1.2,0.3L344,941.3z"/>
						<polygon class="st19" points="347.1,947.1 347.1,947 347.1,947 						"/>
						<path class="st19" d="M348.7,948l-0.9-0.9c-0.1,0.2-0.7-0.3-0.8,0l0,0C348.1,947.9,347.9,947.4,348.7,948z"/>
						<path class="st19" d="M345.3,941.1c-0.2,0.1-0.4,0.3,0,0.8l0.6-0.1C345.4,941.5,345.5,941.4,345.3,941.1z"/>
						<path class="st19" d="M347.2,942.7l-0.1,0.2l0.3,0.3C347.3,943,347.2,942.8,347.2,942.7z"/>
						<path class="st19" d="M347.4,943.1c0.1,0.2,0.3,0.3,0.4,0.3L347.4,943.1z"/>
						<path class="st19" d="M347.7,944.1c0.6,0.6,0-0.2,0.3-0.2C347.4,943.2,347.8,944.1,347.7,944.1z"/>
						<polygon class="st19" points="348.7,943.9 349.2,944.3 348.6,943.6 						"/>
						<path class="st19" d="M347.9,939.7c0.2,0.8,0.6,0.6,0.9,1L347.9,939.7z"/>
						<path class="st19" d="M350.1,945.3l-0.6-0.6l0.2,0.4c0,0-0.1,0.1-0.3-0.1C350.1,945.8,349.9,945.2,350.1,945.3z"/>
						<line class="st19" x1="349.6" y1="943.1" x2="350.1" y2="943.5"/>
						<path class="st19" d="M351.6,948c0.2,0.3,1.1,1,0.7,0.9c0.2,0,0.2-0.1,0.6,0.5c0.2-0.1-0.6-0.7-0.7-1.1
							C352.5,948.8,351.8,948.1,351.6,948z"/>
						<path class="st19" d="M352.5,948.4c0.2,0.1,0.4,0.3,0.3,0C352.7,948.4,352.2,947.8,352.5,948.4z"/>
						<polygon class="st19" points="353.8,950 353.3,949.5 353.9,950.2 						"/>
						<line class="st19" x1="351.9" y1="943.9" x2="351.3" y2="942.9"/>
						<path class="st19" d="M354.2,949.8l-0.2,0.2l0.5,0.3c-0.2-0.5-0.4-0.7-0.7-0.9C354,949.5,354.1,949.6,354.2,949.8z"/>
						<path class="st19" d="M353.1,948.7l0.1,0.3c0.1,0.2,0.2,0.1,0.4,0.2C353.4,949.1,353.3,948.9,353.1,948.7z"/>
						<path class="st19" d="M353.6,949.2c0.1,0.1,0.2,0.1,0.2,0.2C353.8,949.3,353.7,949.2,353.6,949.2z"/>
						<path class="st19" d="M352.8,943c-0.2,0-0.4,0-0.5,0C352.5,943.2,352.7,943.2,352.8,943z"/>
						<path class="st19" d="M355,950.5L355,950.5l-0.5-0.8C354.5,949.9,354.9,950.4,355,950.5z"/>
						<path class="st19" d="M356.2,951.8c0.2,0.2,0.2,0.2,0.2,0.1c0,0,0-0.1,0-0.1l0,0l0,0l0,0l-0.4-0.7c-0.1-0.2-0.3-0.4-0.3-0.5
							c0.2,0.3,0.3,0.5,0.5,0.7c-0.1-0.1-0.1-0.1-0.2-0.1c-0.1-0.1-0.1-0.1-0.2-0.1C355.8,951.2,356,951.5,356.2,951.8z"/>
						<path class="st19" d="M355.3,950.1l0.6,1l1,1.6l0,0l0,0l0,0l0,0c0.3,0.4,0.3,0.4,0.3,0.3c-0.4-0.6-1-1.5-1.5-2.3
							C355.5,950.4,355.4,950.2,355.3,950.1z"/>
						<path class="st19" d="M354.1,948c0,0-0.1-0.1-0.1-0.2c0.1,0.2,0.2,0.5,0.4,0.8L354.1,948z"/>
						<path class="st19" d="M350.2,945.8c0.1-0.1,0.1-0.2,0.1-0.2c-0.2-0.1-0.5-0.2-0.7-0.2C349.8,945.5,350,945.7,350.2,945.8z"/>
						<path class="st19" d="M364.7,942.3c-0.1-0.3-0.2-0.8-0.2-1.4c0-0.6,0-1.2,0-1.5c0-0.3,0.1-0.6,0.1-0.8c0-0.1,0-0.2,0.1-0.3
							l0,0l0,0.1l0,0.2c0,0.1-0.2,0.2-0.3,0.3c-0.1,0.1-0.2,0.2-0.4,0.2c-0.3,0.1-0.5,0.3-0.8,0.3l0.1-0.3c-0.7-0.7-2.3-0.2-4,0
							l0.1,0.5c0.3,0.1,0.6,0.1,0.4,0.7c-0.3-0.2-0.8-0.4-1-0.8c-0.1,0.2-0.1,0.5-0.2,0.7c-0.1-0.2-0.2-0.7-0.4-1
							c-0.1-0.2-0.2-0.3-0.3-0.4c-0.1-0.1-0.1-0.1-0.1,0c0.1,0.8,0,0.6-0.1,0.3c-0.1-0.2-0.2-0.4,0,0.6c-0.2-1.2-0.2-0.1-0.2-0.1
							l0.1,1c-0.2-0.4-0.3-1.9-0.4-1.6c-0.1,0.3-0.2,0.5-0.4,1.1c0-1.2,0.2-0.1,0.1-1.3c-0.1,1-0.3,1-0.4,0.7
							c-0.1-0.3-0.1-0.9-0.2-1c0,0-0.1,0-0.1,0.1c0,0.1,0,0.2-0.1,0.4c0.2-0.9-0.1-0.1,0-0.7c-0.2,0.7-0.1,0.9-0.1,1.1
							c-0.5,1.8,0.1-0.5-0.1-0.1c0,0.1-0.1,0.3-0.1,0.5c-0.2,0.2,0.3-1.1,0.1-0.9l-0.1,0.6c-0.1-0.1-0.1,0.2-0.4,0.5
							c0.2-0.5,0.3-0.9,0.4-1.2c0-0.2,0.1-0.3,0.1-0.4c0-0.1-0.2-0.2-0.2-0.3c-0.2,0.2-0.6,0.1-1,0.1c-0.4,0-0.7,0.1-0.7,0.6
							c-0.4-0.5-0.8-0.7-1.1-0.8c-0.3-0.1-0.6,0-0.8,0.2c-0.4,0.2-0.7,0.5-1.6-0.3c-0.2,0.9,0.7,0.7,0.9,1.5c-0.8,0.8-0.6-0.9-1.1-1
							c-0.1,0.2-0.4,0.5-0.7,0.7c-0.3,0.2-0.6,0.3-1,0l0.4,0.6c-0.5-0.2-0.8-0.2-1.2-0.4c-0.3-0.1-0.7-0.2-1-0.6
							c0.5,1,0.7,0.8,1,0.6c0.4,0.4,0.3,0.8,0.1,0.8c0.1,0,0.3,0.3,0.2,0c0.4,0.5,0,0.3,0,0.5c-0.5,0.1-0.1-0.4-0.5-0.7
							c0,0.3-0.5,0.4,0.2,1.1c-0.3,0.2-0.7-0.7-1.1-0.9c0.6,0.4-0.1-0.9,0.6-0.3c-0.1-0.3-0.3-0.5-0.6-0.7c-0.1,0.4-1.1,0.1-0.5,0.9
							l-0.5-0.4l0.3,0.7l-0.2-0.1c0.8,0.7,1.3,0.9,1.9,1.6c0.3,0.4,0,0.3,0,0.4l-0.6-0.6c-0.3,0,0.8,1.3,0.3,1.3c-0.5-1-1.3-1-2-1.4
							c1,1.6,1,1.1,1.8,2.5c-0.2,0.1-0.2,0.7-0.8,0.5c0.6-0.5-1.2-0.7-1.2-1.6c-0.2-0.1-0.1,0.2-0.2,0.3c-1.1-1-0.6-1-1.5-1.7
							l0.6,0.8c-0.7-0.4-1.5-1.1-2-1.1c0.3,0.4,0.6,0.9,0.2,0.8c-0.6-0.5-0.8-0.6-1.1-0.4c0.9,1.8,2.3,1.3,3.6,2.4
							c1-0.3,4.1,3.1,5.4,3.3c-0.3-0.6-0.4-0.7-0.4-1.1c-0.9-1.4-1.2-0.8-2-1.5c-0.1-0.3-0.2-0.5,0.1-0.3l-0.8-0.8
							c0.1-0.7,1.3,1.1,1.3,0.5l0.1,0.3l0-0.4l-0.2-0.1c0.1-0.1-0.4-0.8,0.1-0.6l0.3,0.7c-0.2-0.5,0.6,0.5,0.5,0.1
							c0.2,0.4,0.5,0.8,0.4,0.9c0.5,0.3,0.8,0.2,1,0.2c0.2-0.4,0.4-0.6,0.8-0.7c0.4-0.1,0.9,0.1,1.3,0.4c-0.1-0.1-0.1-0.3-0.2-0.3
							c0-0.3,0.2,0.1,0.4,0.6c0.1,0.2,0.2,0.4,0.2,0.6c0-0.1,0-0.2,0.1-0.2l0,0c0,0,0.1,0,0.1,0c0.1,0,0.1,0.1,0.2,0.2
							c-0.2,0.6-0.2,0.8-0.3,0.8c0.2,0,0.3-0.2,0.4-0.8c0.2,0,0.1,0.7,0.2,0.8c-0.2,0.2-0.4,0.5-0.6,0.7c0,0.5,0.4-0.7,0.4-0.2
							c0.3-0.1,0.2-1.1,0.4-1.9l0.1,0.2l0.2-1.2c0.1,0.5-0.1,1.6-0.2,2.4l0-0.6c-0.4,1.3,0.2,0.4,0.1,1.3l0,0.1
							c0.2,0.3,0.1-0.7,0.3-0.7l0,0.1c0,0.4,0,0.9,0,1.3l0.1-0.9c0.2-0.3,0.4,1.2,0.8,1.6c0.2,0.3,0.6-0.4,0.9-0.6
							c0-0.2-0.1-0.4-0.1-0.6c0.2,0,0.5-0.2,0.4,0.8c0.1-0.3,0.2-0.5,0.2-0.8c0.1-0.1,0.1,0.1,0.2,0.2l-0.1-0.4l0.2-0.5
							c0,0.2,0.1,0.5,0,0.7c0.3,0.9,0.6-1.3,1-1.1l-0.1,0.5c0.2-0.9,0.4,0.7,0.6-0.1l-0.2-0.7c0.2-0.4,0.7,0.3,0.8,0.9
							c-0.2-0.9-0.1-0.7,0-0.6c0.1,0.1,0.1,0.3,0-0.5c0.1,0.5,0.2,0.9,0.2,1.4c0-0.4,0-0.7,0-1.4c0.2,0.7,0.2,0.8,0.4-0.2
							c0,0,0,0,0,0l0,0l0,0c0-0.1,0.2,0.2,0.2-0.5c0.4,0.1,0,1.4,0.4,1.4l0.2-1.1c0.3,0.3,0.8-0.5,1.3-1l-0.2,0.9
							c0.2-0.2,0.2-0.9,0.6-1c0,0.2-0.1,0.5-0.1,0.7c0.3,0,0.5,0.6,1,0.8c0,0.2-0.1,0.3-0.2,0.4c0.2,0,0.6-0.3,0.8-0.7
							c0.2,0.8,0.6,1.5,1.1,1.8c0.5,0.4,1.2,0.4,1.8,0c0-1.2-0.4-2.4-1.2-3.4c-0.1-0.1-0.2-0.2-0.3-0.4l-0.3-0.3c0,0,0,0,0,0l0,0
							c0,0,0,0,0,0c0,0,0,0-0.1-0.1C365,943.1,364.8,942.8,364.7,942.3z"/>
					</g>
				</g>
			</g>
		</g>
		<g>
			<g>
				<g>
					<path class="st19" d="M382.1,944.2c-0.3,0-0.7,0-1.3,0.1c1.7-0.6-2.5,0.1-1.7-0.3c-0.1-0.2-1-0.3-0.2-0.6c-4,0.5,0.6-0.5-2-0.4
						c-0.5-0.1-2.1,0-2.7,0.2c-0.2-0.2,1.5-0.3,0.8-0.4l1.4-0.1c0.3-0.1,1-0.2,0.8-0.2l-1.4,0.1c1.5-0.3-1.2-0.2-0.3-0.4
						c-1,0.2-0.8,0-1.9,0.1c0.5-0.1,0.8-0.2,1.2-0.2c0.4-0.2-2-0.2,0-0.4l-0.6,0c-0.8-0.1,0.2-0.2,0.5-0.3l-0.8,0
						c-0.4,0-0.4-0.2,0.3-0.3c0.4-0.2-1.3-0.3-2.2-0.5c0.8-0.2-1.4-0.1-1.9-0.2c0.5-0.1-0.6-0.3,0.5-0.4c0.1,0.2,2.2,0.1,1.8,0.3
						c0.7-0.1,0.8,0.2,1.8,0.1c-1.7-0.3-0.2-0.6-1.9-0.9c2.1,0,1.2-0.3,0.9-0.4l0.6,0c0.3-0.1,0.4-0.2-0.3-0.3
						c-0.2-0.2-0.5-0.4,0.7-0.5c1.5-0.1-0.8-0.5-2.2-0.7c-1.8,0.2,1.2,0.6-2.2,0.7c0.6-0.2-0.2-0.2-1.2-0.5l-0.7,0.1l-0.4-0.1
						c-0.7,0-1.3-0.1-2.1-0.2l0,0.3c0.6-0.1,1.5,0,2.2,0.1l-0.3,0.1c0.4,0,0.7-0.1,1.1,0c-0.1,0.1,0.3,0.1-0.2,0.2l-1.6-0.2
						c1.2,0.2-1.9,0.2-0.6,0.5l-1.6,0l0.1,0.2l-0.6,0l-0.2,0.2c0.3,0.1,1,0.2,1.6,0.2c0.1,0.1,0.3,0.2-0.1,0.2l-1-0.1l-0.3,0.1
						c0.3-0.1,0.6,0.1,1,0.1c-0.2,0.2-0.1,0.1-0.9,0.3c0.7,0.1-0.5,0.3,0.8,0.3c-0.8,0.3-0.8,0.5-0.8,0.8l0.8,0.1
						c-0.9,0.3,0.3,0.4,0.5,0.7l-0.4,0l1,0.1c-0.8,0.3,1.2,0.2,0,0.6c-0.5,0.3,0.9,0.3,2.6,0.3c0.8,0.1-0.3,0.3-0.4,0.4l-0.6,0
						l-0.7,0.2c0.3,0.1-0.2,0.2,0.5,0.3c-0.7,0.4,2.1,0,3.1,0l-1.6,0.4l0.4,0c2-0.1,0.8,0,1,0.4l1.1-0.2c-1.2,0.3,0.5,0.1,0.5,0.3
						c0.1,0.1-1.8,0.6-0.3,0.5c-1,0.4,2.2,0,2.1,0.3c-0.8,0.3,1.1,0-0.7,0.4l0,0l-1.8,0.4l1.3-0.2c-0.5,0.2,0,0.2-1.4,0.5l2.4-0.3
						c-0.2,0-0.1-0.1,0-0.2l-0.4,0.1c0,0-0.4-0.1,0.1-0.3l0.4,0c0.3-0.1,0.9-0.2,1.1-0.2c-0.6,0.3,0.7,0,1,0
						c-0.2,0.1-0.3,0.1-0.7,0.2c0.3,0-0.7,0.4,0.6,0.1c-0.1,0-0.1,0-0.2,0C377.7,945.2,379.9,944.6,382.1,944.2z"/>
				</g>
			</g>
		</g>
		<g>
			<g>
				<g>
					<path class="st19" d="M373,914.4c-0.2-0.2-0.6-0.5-1-0.8c1.7,0.7-1.9-1.6-1-1.3c0.1-0.2-0.6-0.8,0.2-0.5
						c-3.4-2.1,0.8,0-1.4-1.5c-0.4-0.3-1.7-1.2-2.3-1.5c-0.1-0.2,1.4,0.7,0.9,0.3l1.1,0.7c0.3,0.1,0.9,0.5,0.7,0.3l-1.1-0.8
						c1.4,0.7-0.9-0.8,0-0.5c-0.9-0.4-0.7-0.5-1.6-1c0.5,0.3,0.8,0.3,1.1,0.6c0.4,0.1-1.5-1.2,0.2-0.3l-0.5-0.4
						c-0.7-0.5,0.3,0,0.5,0.1l-0.6-0.4c-0.3-0.3-0.2-0.3,0.4,0c0.4,0.1-0.9-0.9-1.6-1.5c0.7,0.3-1.2-0.8-1.5-1.2
						c0.4,0.2-0.4-0.5,0.5,0c0,0.2,1.8,1.2,1.4,1.1c0.6,0.3,0.6,0.6,1.5,1c-1.4-1.1,0.1-0.5-1.2-1.6c1.8,1.1,1.2,0.4,1,0.2l0.5,0.3
						c0.3,0.1,0.4,0.1-0.1-0.4c-0.1-0.2-0.3-0.5,0.8,0c1.4,0.6-0.5-0.8-1.6-1.5c-1.7-0.7,0.8,1-2.2-0.6c0.6,0.2-0.1-0.2-0.9-0.9
						l-0.6-0.3l-0.3-0.3c-0.6-0.3-1.1-0.7-1.8-1.1l-0.1,0.2c0.6,0.2,1.3,0.7,1.9,1.1l-0.3-0.1c0.3,0.2,0.6,0.3,1,0.6
						c-0.1,0,0.2,0.2-0.3,0l-1.3-0.9c1,0.7-1.7-0.8-0.7,0l-1.4-0.8l0,0.2l-0.5-0.3l-0.3,0c0.2,0.2,0.8,0.6,1.3,0.9
						c0,0.1,0.2,0.2-0.1,0.1l-0.8-0.6l-0.3-0.1c0.3,0.1,0.5,0.4,0.8,0.6c-0.3,0-0.1,0-0.9-0.3c0.5,0.4-0.6-0.1,0.6,0.6
						c-0.7-0.3-0.8-0.1-0.9,0l0.7,0.5c-0.9-0.3,0.1,0.4,0.2,0.6l-0.3-0.2l0.8,0.6c-0.7-0.3,0.9,0.8-0.2,0.3c-0.6-0.1,0.6,0.6,2,1.6
						c0.7,0.5-0.4,0-0.5,0l-0.5-0.4l-0.6-0.3c0.2,0.2-0.3,0,0.3,0.5c-0.7-0.2,1.7,1.2,2.5,1.8l-1.5-0.7l0.3,0.2
						c1.6,1.1,0.7,0.5,0.6,0.8l1,0.6c-1.1-0.6,0.4,0.4,0.3,0.4c0,0.1-1.7-0.7-0.5,0.1c-1-0.4,1.7,1.4,1.5,1.4
						c-0.8-0.3,0.9,0.7-0.7-0.2l0,0l-1.6-0.9l1.1,0.7c-0.5-0.2-0.1,0.1-1.4-0.6l2,1.4c-0.2-0.1,0-0.1,0.1-0.1l-0.3-0.2
						c0-0.1-0.2-0.3,0.3,0l0.3,0.3c0.3,0.1,0.8,0.5,1,0.6c-0.6-0.2,0.5,0.4,0.7,0.6c-0.2-0.1-0.3-0.1-0.6-0.3
						c0.2,0.2-0.7-0.2,0.4,0.5c-0.1,0-0.1-0.1-0.2-0.1C369.1,912.2,371.1,913.3,373,914.4z"/>
				</g>
			</g>
		</g>
	</g>
	<polygon class="st14" points="402.6,1080.9 170.6,1080.9 162.3,1043.8 409,1043.8 	"/>
	<g>
		<path class="st3" d="M354.4,864.2h-98.1c-6.6,0-12-5.4-12-12v-4.7c0-6.6,5.4-12,12-12h98.1c6.6,0,12,5.4,12,12v4.7
			C366.4,858.8,361,864.2,354.4,864.2z"/>
		<circle class="st3" cx="217" cy="849.9" r="14.5"/>
		<circle class="st3" cx="174.1" cy="849.9" r="14.5"/>
		<circle class="st3" cx="397.1" cy="849.9" r="14.5"/>
		<line class="st7" x1="322.7" y1="856.6" x2="336.1" y2="843.1"/>
		<line class="st7" x1="339.6" y1="856.6" x2="353.1" y2="843.2"/>
		<line class="st7" x1="400.1" y1="846.9" x2="388.3" y2="858.7"/>
		<line class="st8" x1="255.3" y1="842.9" x2="310.8" y2="842.9"/>
		<line class="st8" x1="255.3" y1="849.9" x2="310.8" y2="849.9"/>
		<line class="st8" x1="255.3" y1="856.8" x2="310.8" y2="856.8"/>
		<circle class="st4" cx="217" cy="849.9" r="7"/>
		<circle class="st4" cx="397.1" cy="849.9" r="7"/>
		<circle class="st4" cx="174.1" cy="849.9" r="7"/>
	</g>
</g>
<g>
	<path class="st3" d="M560.7,111.4V75.5h11.9c2.8,0,5.2,0.4,7.2,1.1s3.6,1.9,4.7,3.5c1.2,1.6,1.7,3.7,1.7,6.1c0,1.7-0.2,3.2-0.7,4.6
		s-1.2,2.5-2.2,3.6c-1,1.1-2.4,1.9-4.3,2.5c-1.8,0.6-4,0.9-6.6,0.9c-2.2,0-4-0.1-5.4-0.2v13.8H560.7z M571.9,93
		c1.4,0,2.5-0.1,3.5-0.4c1-0.3,1.8-0.6,2.3-1c0.6-0.4,1-0.9,1.3-1.5c0.3-0.6,0.6-1.2,0.7-1.7c0.1-0.6,0.2-1.2,0.2-1.9
		c0-2-0.6-3.5-1.9-4.5s-3.1-1.5-5.4-1.5h-5.4V93C567.4,93,569,93,571.9,93z"/>
	<path class="st3" d="M602.7,111.9c-4.3,0-7.7-1.2-10.1-3.7c-2.4-2.5-3.6-5.9-3.6-10.3c0-4.3,1.1-7.7,3.4-10.2
		c2.3-2.5,5.3-3.8,9.3-3.8c3.7,0,6.6,1.2,8.6,3.5c2,2.3,3.1,5.4,3.1,9.2c0,0.3,0,0.7,0,1.3c0,0.6,0,1.1,0,1.4h-17.8
		c0.1,2.5,0.8,4.4,2.1,5.8c1.3,1.4,3.1,2.1,5.4,2.1c2.9,0,5.7-0.8,8.4-2.3l0.9,4.5C609.6,111.1,606.4,111.9,602.7,111.9z
		 M595.6,95.2h11.7c0-2.2-0.5-3.9-1.5-5c-1-1.2-2.4-1.8-4.1-1.8c-1.6,0-3,0.6-4.2,1.7C596.4,91.3,595.8,93,595.6,95.2z"/>
	<path class="st3" d="M618.5,111.4V84.5h5.2l0.7,3.4c2.7-2.7,5.8-4.1,9.1-4.1c3.1,0,5.5,0.9,7,2.7c1.6,1.8,2.3,4.4,2.3,7.8v17h-6.4
		V95.2c0-2.2-0.4-3.8-1-4.9s-1.9-1.6-3.7-1.6c-1.4,0-2.6,0.4-3.8,1.1c-1.1,0.7-2,1.6-2.5,2.7c-0.3,1.3-0.5,3.2-0.5,5.9v13.1H618.5z"
		/>
	<path class="st3" d="M659.1,111.9c-3.5,0-6.2-1.3-8.3-3.9c-2-2.6-3-6-3-10.3c0-4.2,1-7.5,3-10c2-2.5,4.7-3.8,8.2-3.8
		c3.8,0,6.5,1.4,8.1,4.1c-0.2-1.6-0.2-3.1-0.2-4.6v-8.7l6.4-0.4v37.1h-5.5l-0.7-3.7c-0.3,0.4-0.5,0.8-0.8,1.1
		c-0.2,0.3-0.6,0.7-1,1.1c-0.5,0.4-0.9,0.7-1.5,1c-0.5,0.3-1.2,0.5-2,0.7C661,111.8,660.1,111.9,659.1,111.9z M660.7,107
		c4.3,0,6.5-2.9,6.5-8.8c0-3.3-0.6-5.7-1.7-7.2c-1.1-1.5-2.8-2.3-5-2.3c-1.9,0-3.5,0.8-4.6,2.3c-1.1,1.5-1.7,3.8-1.7,6.8
		c0,3,0.6,5.2,1.7,6.8C657.1,106.2,658.7,107,660.7,107z"/>
	<path class="st3" d="M680,80.6v-5.5h6.4v5.5H680z M680,111.4V84.5h6.4v26.8H680z"/>
	<path class="st3" d="M693.1,111.4V84.5h5.2l0.7,3.4c2.7-2.7,5.8-4.1,9.1-4.1c3.1,0,5.5,0.9,7,2.7c1.6,1.8,2.3,4.4,2.3,7.8v17H711
		V95.2c0-2.2-0.4-3.8-1-4.9s-1.9-1.6-3.7-1.6c-1.4,0-2.6,0.4-3.8,1.1c-1.1,0.7-2,1.6-2.5,2.7c-0.3,1.3-0.5,3.2-0.5,5.9v13.1H693.1z"
		/>
	<path class="st3" d="M729.1,123.4l-0.4-5.2h3.2c3.8,0,6.4-0.5,7.9-1.5c1.5-1,2.2-2.8,2.2-5.5c0-1.1,0-2.3-0.1-3.5
		c-0.4,0.6-0.8,1.1-1.2,1.5c-0.4,0.4-0.9,0.8-1.4,1.1c-0.6,0.4-1.3,0.7-2.1,0.8c-0.8,0.2-1.7,0.3-2.7,0.3c-3.5,0-6.5-1.3-8.8-3.8
		c-2.3-2.6-3.4-5.9-3.4-9.9c0-2.1,0.3-4.1,1-5.9s1.5-3.2,2.6-4.4c1.1-1.1,2.3-2,3.8-2.6c1.4-0.6,2.9-0.9,4.6-0.9
		c3.6,0,6.3,1.3,8,3.9l0.4-3.3h5.7v24.9c0,1.3-0.1,2.5-0.2,3.6c-0.1,1.1-0.4,2.1-0.7,3.1c-0.3,1-0.8,1.8-1.3,2.6
		c-0.5,0.7-1.2,1.4-2,2c-0.8,0.6-1.7,1.1-2.8,1.5c-1.1,0.4-2.3,0.7-3.8,0.9c-1.4,0.2-3,0.3-4.8,0.3H729.1z M735.5,106.9
		c4.4,0,6.6-3,6.7-8.9v-0.9c0-2.7-0.6-4.7-1.7-6.2c-1.1-1.4-2.6-2.2-4.7-2.2c-2.3,0-4.1,0.8-5.3,2.4c-1.2,1.6-1.8,3.8-1.8,6.5
		c0,2.6,0.6,4.8,1.8,6.6C731.7,106,733.4,106.9,735.5,106.9z"/>
	<path class="st3" d="M562.1,171.4v-35.9H574c2.8,0,5.2,0.4,7.2,1.1s3.6,1.9,4.7,3.5c1.2,1.6,1.7,3.7,1.7,6.1c0,1.7-0.2,3.2-0.7,4.6
		s-1.2,2.5-2.2,3.6c-1,1.1-2.4,1.9-4.3,2.5c-1.8,0.6-4,0.9-6.6,0.9c-2.2,0-4-0.1-5.4-0.2v13.8H562.1z M573.3,153
		c1.4,0,2.5-0.1,3.5-0.4c1-0.3,1.8-0.6,2.3-1c0.6-0.4,1-0.9,1.3-1.5c0.3-0.6,0.6-1.2,0.7-1.7c0.1-0.6,0.2-1.2,0.2-1.9
		c0-2-0.6-3.5-1.9-4.5s-3.1-1.5-5.4-1.5h-5.4V153C568.8,153,570.3,153,573.3,153z"/>
	<path class="st3" d="M592,171.4v-26.8h5.4l0.8,4.1c1.8-2.8,4.3-4.2,7.6-4.2c0.7,0,1.3,0,1.7,0.1l-0.1,5.3c-0.7-0.1-1.3-0.1-2-0.1
		c-2.4,0-4.1,0.6-5.3,1.9c-1.2,1.3-1.7,3-1.7,5.2v14.6H592z"/>
	<path class="st3" d="M622.8,171.9c-4,0-7.1-1.3-9.4-3.9c-2.3-2.6-3.4-6-3.4-10.2c0-4.3,1.1-7.7,3.4-10.2c2.3-2.5,5.5-3.7,9.6-3.7
		c4,0,7.1,1.3,9.4,3.8c2.3,2.5,3.4,5.9,3.4,10.2c0,4.3-1.1,7.7-3.4,10.2S626.9,171.9,622.8,171.9z M623,167c2.2,0,3.8-0.8,4.9-2.4
		c1.1-1.6,1.6-3.8,1.6-6.8c0-3-0.5-5.2-1.6-6.8c-1.1-1.6-2.7-2.3-4.9-2.3c-2.2,0-3.8,0.8-4.9,2.4c-1.1,1.6-1.6,3.8-1.6,6.8
		c0,2.9,0.6,5.2,1.7,6.8C619.1,166.2,620.8,167,623,167z"/>
	<path class="st3" d="M641.1,171.4v-26.8h5.2l0.7,3.4c0.3-0.4,0.6-0.8,0.9-1.1c0.3-0.3,0.7-0.7,1.2-1.1c0.5-0.4,1.1-0.7,1.7-1
		c0.6-0.3,1.3-0.5,2.2-0.7c0.9-0.2,1.8-0.3,2.8-0.3c2.1,0,3.8,0.4,5.1,1.3c1.3,0.9,2.2,1.9,2.7,3c1-1.4,2.2-2.4,3.7-3.2
		c1.5-0.7,3.2-1.1,5.1-1.1c3.1,0,5.3,0.9,6.8,2.6c1.4,1.7,2.2,4.3,2.2,7.7v17.1H675v-15.2c0-2.6-0.3-4.5-0.9-5.7
		c-0.6-1.2-1.7-1.7-3.3-1.7c-2.5,0-4.3,1.1-5.4,3.4c-0.5,1-0.8,2.2-0.9,3.6v15.7h-6.4v-15.5c0-2.4-0.3-4.2-1-5.3s-1.8-1.8-3.4-1.8
		c-1.4,0-2.5,0.3-3.5,1s-1.7,1.6-2.2,2.7c-0.4,1.6-0.6,3.6-0.6,5.9v13H641.1z"/>
	<path class="st3" d="M687.9,140.6v-5.5h6.4v5.5H687.9z M687.9,171.4v-26.8h6.4v26.8H687.9z"/>
	<path class="st3" d="M709.5,171.9c-4,0-7.1-0.7-9.5-2l0.7-4.8c1.1,0.6,2.4,1.1,4.1,1.6s3.2,0.7,4.5,0.7c1.4,0,2.5-0.3,3.3-0.8
		c0.8-0.5,1.2-1.3,1.2-2.3c0-0.9-0.4-1.7-1.1-2.2c-0.7-0.5-2.2-1.2-4.2-2c-0.7-0.3-1.2-0.4-1.4-0.5c-2.5-1-4.3-2-5.3-3.2
		c-1.1-1.2-1.6-2.8-1.6-4.8c0-2.4,0.9-4.3,2.6-5.6c1.8-1.3,4.2-2,7.4-2c3.4,0,6.4,0.6,9,1.9l-1.6,4.4c-2.6-1.2-5-1.8-7.3-1.8
		c-1.3,0-2.3,0.2-3,0.6c-0.7,0.4-1.1,1.1-1.1,2c0,0.8,0.3,1.5,1,1.9c0.7,0.5,2.1,1.1,4.1,1.8c0.1,0,0.3,0.1,0.6,0.2
		c0.4,0.1,0.6,0.2,0.8,0.3c2.5,0.9,4.3,2,5.4,3.2c1.2,1.2,1.7,2.9,1.7,4.9c0,2.7-0.9,4.8-2.7,6.2S712.8,171.9,709.5,171.9z"/>
	<path class="st3" d="M737.4,171.9c-4.3,0-7.7-1.2-10.1-3.7c-2.4-2.5-3.6-5.9-3.6-10.3c0-4.3,1.1-7.7,3.4-10.2
		c2.3-2.5,5.3-3.8,9.3-3.8c3.7,0,6.6,1.2,8.6,3.5c2,2.3,3.1,5.4,3.1,9.2c0,0.3,0,0.7,0,1.3c0,0.6,0,1.1,0,1.4h-17.8
		c0.1,2.5,0.8,4.4,2.1,5.8c1.3,1.4,3.1,2.1,5.4,2.1c2.9,0,5.7-0.8,8.4-2.3l0.9,4.5C744.3,171.1,741.1,171.9,737.4,171.9z
		 M730.3,155.2H742c0-2.2-0.5-3.9-1.5-5c-1-1.2-2.4-1.8-4.1-1.8c-1.6,0-3,0.6-4.2,1.7C731.1,151.3,730.5,153,730.3,155.2z"/>
</g>
<g>
	<path class="st3" d="M396.6,702.7l-25.4-25.4l9.4-9.4c1.3-1.3,2.4-2.3,3.5-3.1c1.1-0.8,2.2-1.5,3.3-2c1.2-0.5,2.2-0.8,3.3-0.8
		c1,0,2.1,0.3,3.3,0.8s2.3,1.4,3.4,2.5c3.4,3.4,4,7.1,2.1,11.2c1.3,0.1,3.4,0.6,6.2,1.6l11.6,4l-5.1,5.1l-9.6-3.7
		c-3.5-1.3-5.6-2-6.3-2.1c-0.2,0.2-0.9,0.8-2,1.9l-4,3.9l10.9,10.9L396.6,702.7z M392.2,678.7c1.8-1.8,2.8-3.4,2.9-4.8
		c0.1-1.4-0.5-2.8-1.9-4.3c-1.2-1.2-2.6-1.8-3.9-1.6s-2.9,1.1-4.5,2.8l-5.4,5.4l7.6,7.6c0.2-0.2,1-1,2.6-2.6
		C391.1,679.7,392,678.9,392.2,678.7z"/>
	<path class="st3" d="M429.5,670.5c-3.1,3-6.3,4.5-9.8,4.5c-3.5-0.1-6.7-1.6-9.8-4.7c-3-3-4.6-6.2-4.8-9.6s1.1-6.5,3.8-9.2
		c2.6-2.6,5.5-3.8,8.5-3.6c3.1,0.2,6,1.6,8.7,4.3c0.2,0.2,0.5,0.5,0.9,1c0.4,0.4,0.8,0.8,1,1l-12.6,12.6c1.8,1.7,3.7,2.6,5.6,2.7
		c1.9,0,3.7-0.7,5.3-2.4c2.1-2.1,3.5-4.6,4.4-7.6l3.8,2.6C433.8,665.1,432.1,667.9,429.5,670.5z M412.7,663.8l8.3-8.3
		c-1.5-1.5-3.1-2.4-4.6-2.5c-1.5-0.1-2.9,0.4-4.2,1.7c-1.2,1.2-1.7,2.5-1.7,4.2C410.5,660.4,411.3,662.1,412.7,663.8z"/>
	<path class="st3" d="M419.2,636.7l-3.9-3.9l4.5-4.5l3.9,3.9L419.2,636.7z M444.6,669.5l-3.8-2.8l1-1c0.6-0.6,1-1.1,1.3-1.5
		c0.3-0.5,0.5-0.9,0.6-1.3c0.1-0.4,0-0.8-0.2-1.3c-0.2-0.4-0.5-0.9-0.8-1.3c-0.3-0.4-0.8-0.9-1.4-1.6l-19.2-19.2l4.5-4.5l18.5,18.5
		c0.9,0.9,1.7,1.8,2.3,2.5s1.1,1.5,1.5,2.3c0.4,0.8,0.7,1.6,0.7,2.3c0.1,0.7,0,1.5-0.2,2.4c-0.2,0.8-0.6,1.7-1.3,2.6
		s-1.4,1.8-2.4,2.8L444.6,669.5z"/>
	<path class="st3" d="M458.6,641.5c-3.1,3.1-6.3,4.5-9.8,4.5c-3.5-0.1-6.7-1.6-9.8-4.7c-3-3-4.6-6.2-4.8-9.6s1.1-6.5,3.8-9.2
		c2.6-2.6,5.5-3.8,8.5-3.6c3.1,0.2,6,1.6,8.7,4.3c0.2,0.2,0.5,0.5,0.9,1s0.8,0.8,1,1l-12.6,12.6c1.8,1.7,3.7,2.6,5.6,2.7
		c1.9,0,3.7-0.7,5.3-2.4c2.1-2.1,3.5-4.6,4.4-7.6l3.8,2.6C462.9,636,461.2,638.8,458.6,641.5z M441.8,634.7l8.3-8.3
		c-1.5-1.5-3.1-2.4-4.6-2.5c-1.5-0.1-2.9,0.4-4.2,1.7c-1.2,1.2-1.7,2.5-1.7,4.2S440.3,633,441.8,634.7z"/>
	<path class="st3" d="M478.1,622c-2.9,2.9-6,4.3-9.4,4.2c-3.3-0.1-6.6-1.8-9.8-5c-3.1-3.1-4.7-6.4-4.7-9.8c0-3.4,1.4-6.5,4.1-9.3
		c2.2-2.2,4.6-3.6,7.1-4.2l2.2,4.3c-2.4,0.7-4.2,1.8-5.6,3.1c-1.5,1.5-2.2,3.3-2,5.3c0.2,2,1.4,4,3.5,6.1c2.1,2.1,4.2,3.3,6.1,3.5
		s3.8-0.4,5.3-2c1.7-1.7,2.8-3.7,3.3-6.2l3.9,3c-0.3,1.3-0.7,2.5-1.3,3.6C480.2,619.7,479.3,620.8,478.1,622z"/>
	<path class="st3" d="M494.7,605.2c-1.3,1.3-2.5,2.2-3.7,2.8s-2.3,0.7-3.5,0.6s-2.3-0.6-3.3-1.3c-1.1-0.7-2.3-1.7-3.6-3l-9-9
		l-3.1,3.1l-2.3-2.6l3-3.5l-3.7-6.6l2.7-2.8l5.2,5.2l4.7-4.7l2.7,2.7l-4.7,4.7l9,9c1.4,1.4,2.7,2.3,3.7,2.5c1,0.2,2.1-0.3,3.2-1.4
		c0.7-0.7,1.3-1.4,1.9-2.3l3.4,3.1c0,0-0.1,0.2-0.3,0.5c-0.2,0.3-0.4,0.6-0.6,0.9c-0.2,0.3-0.5,0.6-0.8,1
		C495.3,604.5,495,604.9,494.7,605.2z"/>
</g>
<g>
	<path class="st3" d="M793.4,600.5l25.4-25.4l9.4,9.4c1.3,1.3,2.3,2.4,3.2,3.5c0.8,1.1,1.5,2.2,2,3.3c0.5,1.2,0.8,2.2,0.8,3.3
		c0,1-0.3,2.1-0.8,3.3c-0.5,1.1-1.4,2.3-2.5,3.4c-3.4,3.4-7.1,4-11.2,2.1c-0.1,1.3-0.6,3.4-1.6,6.2l-4,11.6l-5.1-5.1l3.7-9.6
		c1.3-3.5,2-5.6,2.1-6.3c-0.2-0.2-0.8-0.9-1.9-2l-3.9-4l-10.9,10.9L793.4,600.5z M817.4,596c1.8,1.8,3.4,2.8,4.8,2.9
		c1.4,0.1,2.8-0.5,4.3-1.9c1.2-1.2,1.8-2.6,1.6-3.9c-0.2-1.4-1.1-2.9-2.8-4.5l-5.4-5.4l-7.6,7.6c0.2,0.2,1,1,2.6,2.6
		C816.4,595,817.3,595.9,817.4,596z"/>
	<path class="st3" d="M825.6,633.4c-3-3-4.5-6.3-4.5-9.8c0.1-3.5,1.6-6.7,4.7-9.8c3-3,6.2-4.6,9.6-4.8c3.4-0.2,6.5,1.1,9.2,3.8
		c2.6,2.6,3.8,5.5,3.6,8.5c-0.2,3.1-1.6,6-4.3,8.7c-0.2,0.2-0.5,0.5-1,0.9c-0.4,0.4-0.8,0.8-1,1l-12.6-12.6
		c-1.7,1.8-2.6,3.7-2.7,5.6c0,1.9,0.7,3.7,2.4,5.3c2.1,2.1,4.6,3.5,7.6,4.3l-2.6,3.8C831.1,637.7,828.2,636,825.6,633.4z
		 M832.3,616.6l8.3,8.3c1.5-1.5,2.4-3.1,2.5-4.6c0.1-1.5-0.4-2.9-1.7-4.2c-1.2-1.2-2.5-1.7-4.2-1.7S834,615.1,832.3,616.6z"/>
	<path class="st3" d="M842.9,650.6c-2.8-2.8-4.6-5.5-5.3-8.1l3.9-2.9c0.3,1.2,0.9,2.5,1.8,4s1.8,2.7,2.7,3.7c1,1,2,1.6,2.9,1.8
		c0.9,0.2,1.8-0.1,2.5-0.8c0.7-0.7,0.9-1.4,0.8-2.3c-0.1-0.9-0.7-2.4-1.6-4.4c-0.3-0.7-0.5-1.1-0.6-1.3c-1.1-2.4-1.6-4.4-1.5-6
		c0.1-1.6,0.8-3.1,2.2-4.5c1.7-1.7,3.7-2.4,5.8-2.1c2.2,0.3,4.4,1.6,6.6,3.8c2.4,2.4,4.1,5,5,7.7l-4.2,2c-1-2.6-2.3-4.8-3.9-6.4
		c-0.9-0.9-1.8-1.5-2.6-1.7c-0.8-0.2-1.5,0-2.2,0.6c-0.6,0.6-0.8,1.3-0.6,2.1s0.7,2.2,1.6,4.2c0,0.1,0.1,0.3,0.3,0.6
		c0.2,0.3,0.3,0.6,0.4,0.8c1.1,2.4,1.6,4.4,1.6,6.1s-0.8,3.3-2.2,4.7c-1.9,1.9-4,2.7-6.3,2.5C847.6,654.3,845.2,653,842.9,650.6z"/>
	<path class="st3" d="M861.9,669.7c-2.8-2.8-4.1-5.9-3.9-9.4c0.2-3.4,1.8-6.6,4.8-9.6c3.1-3.1,6.3-4.7,9.7-4.8s6.5,1.2,9.5,4.2
		c2.8,2.8,4.1,5.9,4,9.4c-0.2,3.4-1.8,6.6-4.8,9.6c-3,3-6.2,4.6-9.7,4.8C868,674,864.9,672.6,861.9,669.7z M865.5,666.4
		c1.5,1.5,3.2,2.1,5.1,1.8c1.9-0.3,3.9-1.6,6-3.6c2.1-2.1,3.3-4.1,3.7-6s-0.3-3.6-1.8-5.1c-1.5-1.5-3.2-2.1-5.1-1.8
		c-1.9,0.3-3.9,1.6-6,3.7c-2.1,2.1-3.3,4.1-3.6,6C863.4,663.1,864,664.9,865.5,666.4z"/>
	<path class="st3" d="M881.6,689.2c-1.3-1.3-2.2-2.5-2.8-3.7c-0.6-1.2-0.7-2.3-0.6-3.5s0.6-2.3,1.3-3.4c0.7-1.1,1.8-2.4,3.1-3.7
		l18.5-18.5l4.8,4.2l-18.7,18.7c-1.7,1.7-2.7,3.1-2.9,4.1c-0.2,1,0.3,2.1,1.4,3.3c0.6,0.6,1.4,1.2,2.4,2l-3.1,3.3
		c0,0-0.2-0.1-0.5-0.3c-0.3-0.2-0.6-0.4-0.9-0.6c-0.3-0.2-0.6-0.5-1.1-0.8C882.3,689.9,882,689.5,881.6,689.2z"/>
	<path class="st3" d="M892.7,699.7l11.4-26.5l4.8,4.8c-0.3,0.7-1.4,2.9-3.1,6.6c-1.7,3.7-2.9,6.2-3.6,7.5c-1.3,2.6-2.2,4.5-2.9,5.7
		c0,0,0.5-0.3,1.4-0.8c0.9-0.5,1.8-1,2.6-1.5c0.8-0.5,1.3-0.8,1.5-0.8c0,0,2.1-1.1,6.3-3.2c4.2-2.1,6.7-3.3,7.4-3.7l4.8,4.8
		l-26.2,11.8L892.7,699.7z"/>
	<path class="st3" d="M915.1,722.8c-3.1-3.1-4.5-6.3-4.5-9.8c0.1-3.5,1.6-6.7,4.7-9.8c3-3,6.2-4.6,9.6-4.8c3.4-0.2,6.5,1.1,9.2,3.9
		c2.6,2.6,3.8,5.5,3.6,8.5c-0.2,3.1-1.6,6-4.3,8.7c-0.2,0.2-0.5,0.5-1,0.9s-0.8,0.8-1,1l-12.6-12.6c-1.7,1.8-2.6,3.7-2.7,5.6
		c0,1.9,0.7,3.7,2.4,5.3c2.1,2.1,4.6,3.5,7.6,4.4l-2.6,3.8C920.5,727.1,917.7,725.5,915.1,722.8z M921.8,706l8.3,8.3
		c1.5-1.5,2.4-3.1,2.5-4.6c0.1-1.5-0.4-2.9-1.7-4.2c-1.2-1.2-2.5-1.7-4.2-1.7S923.5,704.6,921.8,706z"/>
</g>
<g>
	<path class="st3" d="M123.7,1283.9v-35.8h21.7l-0.3,5.2h-14.8v9.2h14.1v5.2h-14.1v10.8h15.3l-0.2,5.3H123.7z"/>
	<path class="st3" d="M151.3,1283.9v-26.8h5.4l0.8,4.1c1.8-2.8,4.3-4.2,7.6-4.2c0.7,0,1.3,0,1.7,0.1l-0.1,5.3
		c-0.7-0.1-1.3-0.1-2-0.1c-2.4,0-4.1,0.6-5.3,1.9c-1.2,1.3-1.7,3-1.7,5.2v14.6H151.3z"/>
	<path class="st3" d="M170.8,1283.9v-26.8h5.4l0.8,4.1c1.8-2.8,4.3-4.2,7.6-4.2c0.7,0,1.3,0,1.7,0.1l-0.1,5.3
		c-0.7-0.1-1.3-0.1-2-0.1c-2.4,0-4.1,0.6-5.3,1.9c-1.2,1.3-1.7,3-1.7,5.2v14.6H170.8z"/>
	<path class="st3" d="M201.5,1284.5c-4,0-7.1-1.3-9.4-3.9c-2.3-2.6-3.4-6-3.4-10.2c0-4.3,1.1-7.7,3.4-10.2c2.3-2.5,5.5-3.7,9.6-3.7
		c4,0,7.1,1.3,9.4,3.8c2.3,2.5,3.4,5.9,3.4,10.2c0,4.3-1.1,7.7-3.4,10.2C208.9,1283.2,205.6,1284.5,201.5,1284.5z M201.7,1279.6
		c2.2,0,3.8-0.8,4.9-2.4c1.1-1.6,1.6-3.8,1.6-6.8c0-3-0.5-5.2-1.6-6.8c-1.1-1.6-2.7-2.3-4.9-2.3c-2.2,0-3.8,0.8-4.9,2.4
		c-1.1,1.6-1.6,3.8-1.6,6.8c0,2.9,0.6,5.2,1.7,6.8C197.9,1278.8,199.5,1279.6,201.7,1279.6z"/>
	<path class="st3" d="M219.8,1283.9v-26.8h5.4l0.8,4.1c1.8-2.8,4.3-4.2,7.6-4.2c0.7,0,1.3,0,1.7,0.1l-0.1,5.3
		c-0.7-0.1-1.3-0.1-2-0.1c-2.4,0-4.1,0.6-5.3,1.9c-1.2,1.3-1.7,3-1.7,5.2v14.6H219.8z"/>
	<path class="st3" d="M238.5,1263.4v-6.5h6.5v6.5H238.5z M238.5,1284.1v-6.5h6.5v6.5H238.5z"/>
	<path class="st3" d="M264.3,1283.9v-35.8h7c1.3,2,3.8,6,7.7,12c3.9,6,6.3,9.7,7.1,11c0.2,0.4,0.7,1,1.3,1.9c0.6,0.9,1,1.5,1.3,1.9
		c-0.1-5.6-0.2-8.5-0.2-8.7v-18.1h6v35.8h-7.1l-16.1-25.1l-1.2-1.9c0.1,4.3,0.2,7.3,0.2,9.1v18H264.3z"/>
	<path class="st3" d="M313.2,1284.5c-4,0-7.1-1.3-9.4-3.9c-2.3-2.6-3.4-6-3.4-10.2c0-4.3,1.1-7.7,3.4-10.2c2.3-2.5,5.5-3.7,9.6-3.7
		c4,0,7.1,1.3,9.4,3.8c2.3,2.5,3.4,5.9,3.4,10.2c0,4.3-1.1,7.7-3.4,10.2C320.5,1283.2,317.3,1284.5,313.2,1284.5z M313.4,1279.6
		c2.2,0,3.8-0.8,4.9-2.4c1.1-1.6,1.6-3.8,1.6-6.8c0-3-0.5-5.2-1.6-6.8c-1.1-1.6-2.7-2.3-4.9-2.3c-2.2,0-3.8,0.8-4.9,2.4
		c-1.1,1.6-1.6,3.8-1.6,6.8c0,2.9,0.6,5.2,1.7,6.8C309.5,1278.8,311.2,1279.6,313.4,1279.6z"/>
	<path class="st3" d="M355.4,1284.4c-4.3,0-8.2-1-11.6-3l1.6-5.2c1.5,0.8,3.2,1.5,5,2.1c1.8,0.5,3.6,0.8,5.3,0.8
		c2.1,0,3.7-0.5,4.8-1.4s1.6-2.2,1.6-3.9c0-2.2-1.5-3.8-4.5-4.7c-0.2-0.1-0.8-0.2-1.8-0.5c-1-0.3-1.9-0.6-2.7-0.8
		c-0.9-0.3-1.5-0.5-1.8-0.6c-4.8-1.7-7.2-4.9-7.2-9.5c0-3.2,1.2-5.7,3.5-7.5c2.3-1.8,5.4-2.6,9.2-2.6c4.3,0,8,0.9,11.2,2.7l-2,4.8
		c-3.2-1.4-6.2-2.1-8.9-2.1c-2,0-3.5,0.3-4.5,1c-1,0.7-1.5,1.8-1.6,3.5c0,2,1,3.3,3,3.9c0.4,0.1,1.4,0.5,2.9,1c1.5,0.5,2.5,0.8,3,1
		c3.3,1.1,5.6,2.4,7,4c1.4,1.6,2.1,3.8,2.1,6.7c0,3.4-1.2,6-3.6,7.8C362.7,1283.5,359.4,1284.4,355.4,1284.4z"/>
	<path class="st3" d="M385.3,1284.5c-4,0-7.1-1.3-9.4-3.9c-2.3-2.6-3.4-6-3.4-10.2c0-4.3,1.1-7.7,3.4-10.2c2.3-2.5,5.5-3.7,9.6-3.7
		c4,0,7.1,1.3,9.4,3.8c2.3,2.5,3.4,5.9,3.4,10.2c0,4.3-1.1,7.7-3.4,10.2C392.6,1283.2,389.4,1284.5,385.3,1284.5z M385.4,1279.6
		c2.2,0,3.8-0.8,4.9-2.4c1.1-1.6,1.6-3.8,1.6-6.8c0-3-0.5-5.2-1.6-6.8c-1.1-1.6-2.7-2.3-4.9-2.3c-2.2,0-3.8,0.8-4.9,2.4
		c-1.1,1.6-1.6,3.8-1.6,6.8c0,2.9,0.6,5.2,1.7,6.8C381.6,1278.8,383.3,1279.6,385.4,1279.6z"/>
	<path class="st3" d="M410.6,1284.5c-2.5,0-4.5-0.7-6-2.1c-1.5-1.4-2.3-3.4-2.3-5.9c0-2.8,0.9-4.8,2.7-6.2c1.8-1.3,4.6-2.2,8.3-2.6
		c0.5-0.1,1-0.1,1.6-0.2s1.2-0.1,2-0.2s1.3-0.1,1.7-0.2v-1.4c0-1.6-0.4-2.8-1.1-3.6c-0.7-0.7-1.9-1.1-3.4-1.1
		c-2.2,0-4.9,0.6-8.1,1.8c0,0-0.3-0.8-0.8-2.2c-0.5-1.4-0.8-2.2-0.8-2.2c3.2-1.4,6.6-2,10.3-2c3.6,0,6.2,0.8,7.9,2.4
		c1.6,1.6,2.5,4.1,2.5,7.6v17.5h-4.7c0-0.1-0.2-0.6-0.5-1.6s-0.5-1.6-0.5-1.6c-1.3,1.3-2.6,2.3-3.9,2.9
		C413.9,1284.2,412.4,1284.5,410.6,1284.5z M412.3,1279.9c1.5,0,2.8-0.4,3.9-1.1c1.1-0.7,1.9-1.6,2.4-2.6v-5.2c0,0-0.5,0-1.3,0.1
		c-0.8,0.1-1.2,0.1-1.3,0.1c-2.6,0.2-4.5,0.7-5.7,1.5c-1.2,0.7-1.8,2-1.8,3.6c0,1.1,0.3,2,1,2.6
		C410.1,1279.6,411.1,1279.9,412.3,1279.9z"/>
	<path class="st3" d="M431.4,1295.1v-38h5.5l0.7,3.8c0.9-1.4,2-2.5,3.5-3.3c1.5-0.8,3.1-1.2,4.9-1.2c2.2,0,4.1,0.6,5.8,1.8
		c1.7,1.2,2.9,2.9,3.8,5c0.9,2.1,1.3,4.5,1.3,7.1c0,4.2-1,7.5-3,10.1c-2,2.6-4.7,3.9-8.2,3.9c-1.7,0-3.2-0.3-4.6-1
		c-1.4-0.7-2.5-1.6-3.5-2.7c0.1,2.3,0.2,3.7,0.2,4v10.1L431.4,1295.1z M444.3,1279.6c1.9,0,3.4-0.8,4.5-2.4c1.1-1.6,1.6-3.9,1.6-6.8
		c0-3-0.6-5.3-1.7-6.8c-1.1-1.5-2.6-2.3-4.6-2.3c-4.2,0-6.4,2.9-6.4,8.6c0,3.3,0.5,5.8,1.6,7.3
		C440.5,1278.8,442.1,1279.6,444.3,1279.6z"/>
	<path class="st3" d="M464.3,1284.4c-1.1,0-2-0.4-2.7-1.1s-1.1-1.6-1.1-2.6c0-1,0.4-1.9,1.1-2.7s1.6-1.1,2.7-1.1
		c1,0,1.9,0.4,2.6,1.1c0.7,0.7,1.1,1.6,1.1,2.7c0,1-0.4,1.9-1.1,2.6C466.2,1284,465.3,1284.4,464.3,1284.4z M463.5,1273l-2.1-17.4
		v-7.2h5.9v7.2l-2.2,17.4H463.5z"/>
</g>
<g>
	<g>
		<path class="st3" d="M895.9,1284.5c-5.2,0-9.4-1.6-12.4-4.9c-3.1-3.3-4.6-7.8-4.6-13.6c0-5.5,1.6-9.9,4.8-13.2
			c3.2-3.3,7.4-5,12.6-5c4.2,0,7.7,1,10.6,2.9l-2.1,5c-2.8-1.7-5.6-2.6-8.4-2.6c-3.3,0-5.9,1.2-7.8,3.6c-1.9,2.4-2.9,5.5-2.9,9.5
			c0,4.1,0.9,7.3,2.8,9.6c1.8,2.3,4.5,3.4,7.9,3.4c3,0,6-0.7,8.9-2.2l0.9,5.2C903.4,1283.6,900,1284.5,895.9,1284.5z"/>
		<path class="st3" d="M920.8,1284.3c-1.8,0-3.4-0.2-4.6-0.6c-1.2-0.4-2.2-1.1-2.9-2.1c-0.7-0.9-1.2-2.1-1.5-3.4
			c-0.3-1.3-0.4-2.9-0.4-4.9v-26.1l6.4-0.4v26.4c0,2.4,0.3,4,0.9,4.9c0.6,0.9,1.7,1.3,3.3,1.3c0.8,0,1.8-0.1,3.1-0.3l0.2,4.6
			c0,0-0.2,0-0.6,0.1c-0.4,0.1-0.7,0.2-1.1,0.2c-0.4,0.1-0.8,0.1-1.3,0.2S921.3,1284.3,920.8,1284.3z"/>
		<path class="st3" d="M940.8,1284.5c-4.3,0-7.7-1.2-10.1-3.7c-2.4-2.5-3.6-5.9-3.6-10.3c0-4.3,1.1-7.7,3.4-10.2
			c2.3-2.5,5.3-3.8,9.3-3.8c3.7,0,6.6,1.2,8.6,3.5c2,2.3,3.1,5.4,3.1,9.2c0,0.3,0,0.7,0,1.3c0,0.6,0,1.1,0,1.4h-17.8
			c0.1,2.5,0.8,4.4,2.1,5.8c1.3,1.4,3.1,2.1,5.4,2.1c2.9,0,5.7-0.8,8.4-2.3l0.9,4.5C947.7,1283.6,944.5,1284.5,940.8,1284.5z
			 M933.7,1267.8h11.7c0-2.2-0.5-3.9-1.5-5c-1-1.2-2.4-1.8-4.1-1.8c-1.6,0-3,0.6-4.2,1.7C934.5,1263.9,933.8,1265.6,933.7,1267.8z"
			/>
		<path class="st3" d="M963.6,1284.5c-2.5,0-4.5-0.7-6-2.1c-1.5-1.4-2.3-3.4-2.3-5.9c0-2.8,0.9-4.8,2.7-6.2c1.8-1.3,4.6-2.2,8.3-2.6
			c0.5-0.1,1-0.1,1.6-0.2s1.2-0.1,2-0.2s1.3-0.1,1.7-0.2v-1.4c0-1.6-0.4-2.8-1.1-3.6c-0.7-0.7-1.9-1.1-3.4-1.1
			c-2.2,0-4.9,0.6-8.1,1.8c0,0-0.3-0.8-0.8-2.2c-0.5-1.4-0.8-2.2-0.8-2.2c3.2-1.4,6.6-2,10.3-2c3.6,0,6.2,0.8,7.9,2.4
			c1.6,1.6,2.5,4.1,2.5,7.6v17.5h-4.7c0-0.1-0.2-0.6-0.5-1.6s-0.5-1.6-0.5-1.6c-1.3,1.3-2.6,2.3-3.9,2.9
			C967,1284.2,965.4,1284.5,963.6,1284.5z M965.3,1279.9c1.5,0,2.8-0.4,3.9-1.1c1.1-0.7,1.9-1.6,2.4-2.6v-5.2c0,0-0.5,0-1.3,0.1
			c-0.8,0.1-1.2,0.1-1.3,0.1c-2.6,0.2-4.5,0.7-5.7,1.5c-1.2,0.7-1.8,2-1.8,3.6c0,1.1,0.3,2,1,2.6
			C963.1,1279.6,964.1,1279.9,965.3,1279.9z"/>
		<path class="st3" d="M984.4,1283.9v-26.8h5.2l0.7,3.4c2.7-2.7,5.8-4.1,9.1-4.1c3.1,0,5.5,0.9,7,2.7c1.6,1.8,2.3,4.4,2.3,7.8v17
			h-6.4v-16.2c0-2.2-0.4-3.8-1-4.9s-1.9-1.6-3.7-1.6c-1.4,0-2.6,0.4-3.8,1.1c-1.1,0.7-2,1.6-2.5,2.7c-0.3,1.3-0.5,3.2-0.5,5.9v13.1
			H984.4z"/>
		<path class="st3" d="M1028.8,1283.9v-35.8h10.4c3.1,0,5.9,0.4,8.4,1.1c2.5,0.7,4.6,1.8,6.4,3.2c1.8,1.4,3.2,3.3,4.1,5.6
			c1,2.3,1.4,4.9,1.4,7.9c0,5.8-1.7,10.2-5.2,13.3c-3.5,3.1-8.3,4.7-14.5,4.7H1028.8z M1035.5,1278.6h4.7c4.1,0,7.2-1.1,9.3-3.2
			c2.1-2.1,3.2-5.3,3.2-9.4c0-4.4-1.1-7.6-3.3-9.6c-2.2-2-5.5-3-9.9-3h-4V1278.6z"/>
		<path class="st3" d="M1065.3,1253.2v-5.5h6.4v5.5H1065.3z M1065.3,1283.9v-26.8h6.4v26.8H1065.3z"/>
		<path class="st3" d="M1087,1284.4c-4,0-7.1-0.7-9.5-2l0.7-4.8c1.1,0.6,2.4,1.1,4.1,1.6s3.2,0.7,4.5,0.7c1.4,0,2.5-0.3,3.3-0.8
			c0.8-0.5,1.2-1.3,1.2-2.3c0-0.9-0.4-1.7-1.1-2.2c-0.7-0.5-2.2-1.2-4.2-2c-0.7-0.3-1.2-0.4-1.4-0.5c-2.5-1-4.3-2-5.3-3.2
			c-1.1-1.2-1.6-2.8-1.6-4.8c0-2.4,0.9-4.3,2.6-5.6c1.8-1.3,4.2-2,7.4-2c3.4,0,6.4,0.6,9,1.9l-1.6,4.4c-2.6-1.2-5-1.8-7.3-1.8
			c-1.3,0-2.3,0.2-3,0.6c-0.7,0.4-1.1,1.1-1.1,2c0,0.8,0.3,1.5,1,1.9c0.7,0.5,2.1,1.1,4.1,1.8c0.1,0,0.3,0.1,0.6,0.2
			c0.4,0.1,0.6,0.2,0.8,0.3c2.5,0.9,4.3,2,5.4,3.2c1.2,1.2,1.7,2.9,1.7,4.9c0,2.7-0.9,4.8-2.7,6.2S1090.3,1284.4,1087,1284.4z"/>
		<path class="st3" d="M1102.4,1283.9v-36.7l6.4-0.4v7.7c0,0.4,0,1.4-0.1,3.1c0,1.7-0.1,2.6-0.1,2.6c2.1-2.5,5-3.8,8.6-3.8
			c3,0,5.3,0.9,7,2.6c1.7,1.7,2.5,4.4,2.5,7.9v17h-6.4v-16.3c0-2.2-0.4-3.8-1-4.8c-0.7-1-1.9-1.5-3.6-1.5c-1.4,0-2.7,0.4-3.8,1.1
			c-1.1,0.7-1.9,1.7-2.5,2.8c-0.4,1.5-0.6,3.5-0.6,5.9v12.9H1102.4z"/>
		<path class="st3" d="M1145.4,1284.5c-4.3,0-7.7-1.2-10.1-3.7c-2.4-2.5-3.6-5.9-3.6-10.3c0-4.3,1.1-7.7,3.4-10.2
			c2.3-2.5,5.3-3.8,9.3-3.8c3.7,0,6.6,1.2,8.6,3.5c2,2.3,3.1,5.4,3.1,9.2c0,0.3,0,0.7,0,1.3c0,0.6,0,1.1,0,1.4h-17.8
			c0.1,2.5,0.8,4.4,2.1,5.8c1.3,1.4,3.1,2.1,5.4,2.1c2.9,0,5.7-0.8,8.4-2.3l0.9,4.5C1152.3,1283.6,1149.1,1284.5,1145.4,1284.5z
			 M1138.3,1267.8h11.7c0-2.2-0.5-3.9-1.5-5c-1-1.2-2.4-1.8-4.1-1.8c-1.6,0-3,0.6-4.2,1.7
			C1139.1,1263.9,1138.5,1265.6,1138.3,1267.8z"/>
		<path class="st3" d="M1169.8,1284.4c-4,0-7.1-0.7-9.5-2l0.7-4.8c1.1,0.6,2.4,1.1,4.1,1.6s3.2,0.7,4.5,0.7c1.4,0,2.5-0.3,3.3-0.8
			c0.8-0.5,1.2-1.3,1.2-2.3c0-0.9-0.4-1.7-1.1-2.2c-0.7-0.5-2.2-1.2-4.2-2c-0.7-0.3-1.2-0.4-1.4-0.5c-2.5-1-4.3-2-5.3-3.2
			c-1.1-1.2-1.6-2.8-1.6-4.8c0-2.4,0.9-4.3,2.6-5.6c1.8-1.3,4.2-2,7.4-2c3.4,0,6.4,0.6,9,1.9l-1.6,4.4c-2.6-1.2-5-1.8-7.3-1.8
			c-1.3,0-2.3,0.2-3,0.6c-0.7,0.4-1.1,1.1-1.1,2c0,0.8,0.3,1.5,1,1.9c0.7,0.5,2.1,1.1,4.1,1.8c0.1,0,0.3,0.1,0.6,0.2
			c0.4,0.1,0.6,0.2,0.8,0.3c2.5,0.9,4.3,2,5.4,3.2c1.2,1.2,1.7,2.9,1.7,4.9c0,2.7-0.9,4.8-2.7,6.2S1173.2,1284.4,1169.8,1284.4z"/>
	</g>
</g>
<g>
	<line class="st23" x1="722" y1="554.2" x2="962.4" y2="794.7"/>
	<line class="st23" x1="934.4" y1="794.7" x2="962.4" y2="794.7"/>
	<line class="st23" x1="962.4" y1="766.6" x2="962.4" y2="794.7"/>
	<line class="st23" x1="581.8" y1="554.2" x2="341.3" y2="794.7"/>
	<line class="st23" x1="369.4" y1="794.7" x2="341.3" y2="794.7"/>
	<line class="st23" x1="341.3" y1="766.6" x2="341.3" y2="794.7"/>
</g>
<g class="st24">
	<path class="st4" d="M557.8,681.9V646h11.9c2.8,0,5.2,0.4,7.2,1.1c2,0.7,3.6,1.9,4.7,3.5c1.2,1.6,1.7,3.7,1.7,6.1
		c0,1.7-0.2,3.2-0.7,4.6c-0.4,1.3-1.2,2.5-2.2,3.6c-1,1.1-2.4,1.9-4.3,2.5c-1.8,0.6-4,0.9-6.6,0.9c-2.2,0-4-0.1-5.4-0.2v13.8H557.8z
		 M569,663.5c1.4,0,2.5-0.1,3.5-0.4c1-0.3,1.8-0.6,2.3-1c0.6-0.4,1-0.9,1.3-1.5c0.3-0.6,0.6-1.2,0.7-1.7c0.1-0.6,0.2-1.2,0.2-1.9
		c0-2-0.6-3.5-1.9-4.5s-3.1-1.5-5.4-1.5h-5.4v12.5C564.5,663.5,566.1,663.5,569,663.5z"/>
	<path class="st4" d="M599,682.4c-4,0-7.1-1.3-9.4-3.9c-2.3-2.6-3.4-6-3.4-10.2c0-4.3,1.1-7.7,3.4-10.2c2.3-2.5,5.5-3.7,9.6-3.7
		c4,0,7.1,1.3,9.4,3.8c2.3,2.5,3.4,5.9,3.4,10.2c0,4.3-1.1,7.7-3.4,10.2C606.3,681.1,603.1,682.4,599,682.4z M599.1,677.5
		c2.2,0,3.8-0.8,4.9-2.4c1.1-1.6,1.6-3.8,1.6-6.8c0-3-0.5-5.2-1.6-6.8c-1.1-1.6-2.7-2.3-4.9-2.3c-2.2,0-3.8,0.8-4.9,2.4
		c-1.1,1.6-1.6,3.8-1.6,6.8c0,2.9,0.6,5.2,1.7,6.8C595.3,676.7,597,677.5,599.1,677.5z"/>
	<path class="st4" d="M625.8,682.4c-4,0-7.1-0.7-9.5-2l0.7-4.8c1.1,0.6,2.4,1.1,4.1,1.6s3.2,0.7,4.5,0.7c1.4,0,2.5-0.3,3.3-0.8
		c0.8-0.5,1.2-1.3,1.2-2.3c0-0.9-0.4-1.7-1.1-2.2c-0.7-0.5-2.2-1.2-4.2-2c-0.7-0.3-1.2-0.4-1.4-0.5c-2.5-1-4.3-2-5.3-3.2
		c-1.1-1.2-1.6-2.8-1.6-4.8c0-2.4,0.9-4.3,2.6-5.6c1.8-1.3,4.2-2,7.4-2c3.4,0,6.4,0.6,9,1.9l-1.6,4.4c-2.6-1.2-5-1.8-7.3-1.8
		c-1.3,0-2.3,0.2-3,0.6c-0.7,0.4-1.1,1.1-1.1,2c0,0.8,0.3,1.5,1,1.9c0.7,0.5,2.1,1.1,4.1,1.8c0.1,0,0.3,0.1,0.6,0.2
		c0.4,0.1,0.6,0.2,0.8,0.3c2.5,0.9,4.3,2,5.4,3.2c1.2,1.2,1.7,2.9,1.7,4.9c0,2.7-0.9,4.8-2.7,6.2S629.2,682.4,625.8,682.4z"/>
	<path class="st4" d="M649.9,682.4c-4,0-7.1-0.7-9.5-2l0.7-4.8c1.1,0.6,2.4,1.1,4.1,1.6s3.2,0.7,4.5,0.7c1.4,0,2.5-0.3,3.3-0.8
		c0.8-0.5,1.2-1.3,1.2-2.3c0-0.9-0.4-1.7-1.1-2.2c-0.7-0.5-2.2-1.2-4.2-2c-0.7-0.3-1.2-0.4-1.4-0.5c-2.5-1-4.3-2-5.3-3.2
		c-1.1-1.2-1.6-2.8-1.6-4.8c0-2.4,0.9-4.3,2.6-5.6c1.8-1.3,4.2-2,7.4-2c3.4,0,6.4,0.6,9,1.9l-1.6,4.4c-2.6-1.2-5-1.8-7.3-1.8
		c-1.3,0-2.3,0.2-3,0.6c-0.7,0.4-1.1,1.1-1.1,2c0,0.8,0.3,1.5,1,1.9c0.7,0.5,2.1,1.1,4.1,1.8c0.1,0,0.3,0.1,0.6,0.2
		c0.4,0.1,0.6,0.2,0.8,0.3c2.5,0.9,4.3,2,5.4,3.2c1.2,1.2,1.7,2.9,1.7,4.9c0,2.7-0.9,4.8-2.7,6.2S653.2,682.4,649.9,682.4z"/>
	<path class="st4" d="M665.5,651.1v-5.5h6.4v5.5H665.5z M665.5,681.9V655h6.4v26.8H665.5z"/>
	<path class="st4" d="M693,682.4c-1.8,0-3.5-0.4-5-1.2c-1.5-0.8-2.6-1.7-3.2-2.7l-0.6,3.4h-5.5v-36.7l6.4-0.4v8.3
		c0,1.6,0,3.4-0.1,5.5c2.1-2.8,4.9-4.2,8.3-4.2c3.4,0,6.1,1.3,8,3.8c1.9,2.5,2.9,5.9,2.9,10c0,4.3-1,7.7-3,10.3
		C699,681.1,696.3,682.4,693,682.4z M691.4,677.5c1.9,0,3.4-0.8,4.6-2.4c1.1-1.6,1.7-3.9,1.7-6.9c0-3-0.6-5.2-1.7-6.8
		c-1.1-1.5-2.6-2.3-4.5-2.3c-4.3,0-6.5,2.9-6.6,8.8c0,3.3,0.5,5.7,1.6,7.3C687.7,676.7,689.3,677.5,691.4,677.5z"/>
	<path class="st4" d="M718.7,682.2c-1.8,0-3.4-0.2-4.6-0.6c-1.2-0.4-2.2-1.1-2.9-2.1c-0.7-0.9-1.2-2.1-1.5-3.4
		c-0.3-1.3-0.4-2.9-0.4-4.9v-26.1l6.4-0.4v26.4c0,2.4,0.3,4,0.9,4.9c0.6,0.9,1.7,1.3,3.3,1.3c0.8,0,1.8-0.1,3.1-0.3l0.2,4.6
		c0,0-0.2,0-0.6,0.1c-0.4,0.1-0.7,0.2-1.1,0.2c-0.4,0.1-0.8,0.1-1.3,0.2S719.1,682.2,718.7,682.2z"/>
	<path class="st4" d="M738.6,682.4c-4.3,0-7.7-1.2-10.1-3.7c-2.4-2.5-3.6-5.9-3.6-10.3c0-4.3,1.1-7.7,3.4-10.2
		c2.3-2.5,5.3-3.8,9.3-3.8c3.7,0,6.6,1.2,8.6,3.5c2,2.3,3.1,5.4,3.1,9.2c0,0.3,0,0.7,0,1.3c0,0.6,0,1.1,0,1.4h-17.8
		c0.1,2.5,0.8,4.4,2.1,5.8c1.3,1.4,3.1,2.1,5.4,2.1c2.9,0,5.7-0.8,8.4-2.3l0.9,4.5C745.5,681.6,742.3,682.4,738.6,682.4z
		 M731.5,665.7h11.7c0-2.2-0.5-3.9-1.5-5c-1-1.2-2.4-1.8-4.1-1.8c-1.6,0-3,0.6-4.2,1.7C732.3,661.8,731.7,663.5,731.5,665.7z"/>
	<path class="st4" d="M552.2,742.4c-5.4,0-9.6-1.6-12.8-4.9c-3.1-3.3-4.7-7.8-4.7-13.5c0-5.8,1.6-10.3,4.7-13.5s7.4-4.9,12.8-4.9
		c5.4,0,9.6,1.6,12.7,4.9c3.1,3.2,4.7,7.8,4.7,13.5c0,5.7-1.6,10.2-4.7,13.5S557.6,742.4,552.2,742.4z M544.4,733.6
		c1.8,2.3,4.4,3.4,7.9,3.4s6.1-1.1,7.8-3.4c1.8-2.3,2.6-5.4,2.6-9.6c0-4.2-0.9-7.4-2.6-9.7c-1.8-2.3-4.4-3.4-7.8-3.4
		c-3.5,0-6.1,1.2-7.9,3.5c-1.8,2.3-2.7,5.5-2.7,9.7C541.7,728.1,542.6,731.3,544.4,733.6z"/>
	<path class="st4" d="M594.7,739.8c-2.1,1.8-4.9,2.6-8.4,2.6c-3.5,0-6.3-0.9-8.4-2.6c-2.1-1.7-3.2-4.3-3.2-7.7V715h6.4v16.8
		c0,2,0.4,3.5,1.3,4.3c0.8,0.9,2.2,1.3,4,1.3c1.8,0,3.1-0.4,3.9-1.3c0.8-0.9,1.2-2.3,1.2-4.4V715h6.4v17.1
		C597.9,735.5,596.8,738,594.7,739.8z"/>
	<path class="st4" d="M614.4,742.2c-1.8,0-3.3-0.2-4.6-0.6c-1.2-0.4-2.2-1.1-2.8-2s-1.2-2-1.5-3.3c-0.3-1.3-0.4-2.8-0.4-4.7v-12.7
		h-4.4l0.2-3.5l4.6-0.4l2.1-7.3l3.9,0v7.3h6.7v3.9h-6.7v12.8c0,2,0.3,3.5,0.9,4.3s1.7,1.3,3.2,1.3c0.9,0,1.9-0.1,3-0.2l0.2,4.6
		c0,0-0.2,0-0.6,0.1c-0.4,0.1-0.7,0.1-1.1,0.2c-0.3,0.1-0.8,0.1-1.3,0.2C615.3,742.2,614.9,742.2,614.4,742.2z"/>
	<path class="st4" d="M634.8,742.4c-4.1,0-7.3-1.2-9.6-3.7c-2.3-2.4-3.4-5.9-3.4-10.5c0-4.4,1.2-7.8,3.6-10.2
		c2.4-2.4,5.6-3.6,9.5-3.6c3.1,0,5.8,0.7,8,2l-1.5,4.6c-2.2-1.2-4.3-1.7-6.2-1.7c-2.2,0-3.9,0.8-5.1,2.3c-1.2,1.5-1.9,3.8-1.9,6.8
		c0,3,0.6,5.3,1.8,6.8c1.2,1.6,3,2.3,5.2,2.3c2.3,0,4.6-0.7,6.8-2.1l0.6,4.9c-1.1,0.7-2.3,1.3-3.5,1.6
		C637.9,742.2,636.5,742.4,634.8,742.4z"/>
	<path class="st4" d="M659,742.4c-4,0-7.1-1.3-9.4-3.9c-2.3-2.6-3.4-6-3.4-10.2c0-4.3,1.1-7.7,3.4-10.2c2.3-2.5,5.5-3.7,9.6-3.7
		c4,0,7.1,1.3,9.4,3.8c2.3,2.5,3.4,5.9,3.4,10.2c0,4.3-1.1,7.7-3.4,10.2C666.4,741.1,663.1,742.4,659,742.4z M659.2,737.5
		c2.2,0,3.8-0.8,4.9-2.4c1.1-1.6,1.6-3.8,1.6-6.8c0-3-0.5-5.2-1.6-6.8c-1.1-1.6-2.7-2.3-4.9-2.3c-2.2,0-3.8,0.8-4.9,2.4
		c-1.1,1.6-1.6,3.8-1.6,6.8c0,2.9,0.6,5.2,1.7,6.8C655.4,736.7,657,737.5,659.2,737.5z"/>
	<path class="st4" d="M677.3,741.9V715h5.2l0.7,3.4c0.3-0.4,0.6-0.8,0.9-1.1c0.3-0.3,0.7-0.7,1.2-1.1c0.5-0.4,1.1-0.7,1.7-1
		c0.6-0.3,1.3-0.5,2.2-0.7c0.9-0.2,1.8-0.3,2.8-0.3c2.1,0,3.8,0.4,5.1,1.3c1.3,0.9,2.2,1.9,2.7,3c1-1.4,2.2-2.4,3.7-3.2
		c1.5-0.7,3.2-1.1,5.1-1.1c3.1,0,5.3,0.9,6.8,2.6c1.4,1.7,2.2,4.3,2.2,7.7v17.1h-6.4v-15.2c0-2.6-0.3-4.5-0.9-5.7
		c-0.6-1.2-1.7-1.7-3.3-1.7c-2.5,0-4.3,1.1-5.4,3.4c-0.5,1-0.8,2.2-0.9,3.6v15.7h-6.4v-15.5c0-2.4-0.3-4.2-1-5.3s-1.8-1.8-3.4-1.8
		c-1.4,0-2.5,0.3-3.5,1s-1.7,1.6-2.2,2.7c-0.4,1.6-0.6,3.6-0.6,5.9v13H677.3z"/>
	<path class="st4" d="M736.4,742.4c-4.3,0-7.7-1.2-10.1-3.7c-2.4-2.5-3.6-5.9-3.6-10.3c0-4.3,1.1-7.7,3.4-10.2
		c2.3-2.5,5.3-3.8,9.3-3.8c3.7,0,6.6,1.2,8.6,3.5c2,2.3,3.1,5.4,3.1,9.2c0,0.3,0,0.7,0,1.3c0,0.6,0,1.1,0,1.4h-17.8
		c0.1,2.5,0.8,4.4,2.1,5.8c1.3,1.4,3.1,2.1,5.4,2.1c2.9,0,5.7-0.8,8.4-2.3l0.9,4.5C743.3,741.6,740.1,742.4,736.4,742.4z
		 M729.3,725.7H741c0-2.2-0.5-3.9-1.5-5c-1-1.2-2.4-1.8-4.1-1.8c-1.6,0-3,0.6-4.2,1.7C730.1,721.8,729.4,723.5,729.3,725.7z"/>
	<path class="st4" d="M760.8,742.4c-4,0-7.1-0.7-9.5-2l0.7-4.8c1.1,0.6,2.4,1.1,4.1,1.6s3.2,0.7,4.5,0.7c1.4,0,2.5-0.3,3.3-0.8
		c0.8-0.5,1.2-1.3,1.2-2.3c0-0.9-0.4-1.7-1.1-2.2c-0.7-0.5-2.2-1.2-4.2-2c-0.7-0.3-1.2-0.4-1.4-0.5c-2.5-1-4.3-2-5.3-3.2
		c-1.1-1.2-1.6-2.8-1.6-4.8c0-2.4,0.9-4.3,2.6-5.6c1.8-1.3,4.2-2,7.4-2c3.4,0,6.4,0.6,9,1.9l-1.6,4.4c-2.6-1.2-5-1.8-7.3-1.8
		c-1.3,0-2.3,0.2-3,0.6c-0.7,0.4-1.1,1.1-1.1,2c0,0.8,0.3,1.5,1,1.9c0.7,0.5,2.1,1.1,4.1,1.8c0.1,0,0.3,0.1,0.6,0.2
		c0.4,0.1,0.6,0.2,0.8,0.3c2.5,0.9,4.3,2,5.4,3.2c1.2,1.2,1.7,2.9,1.7,4.9c0,2.7-0.9,4.8-2.7,6.2S764.1,742.4,760.8,742.4z"/>
</g>
<path class="st2" d="M1222.2,929.9c0,0-12,3-14.9,5.8c-3.1,3-6.6,15.7-6.6,15.7s-4.1-11.6-6.9-14.4c-2.6-2.6-14.6-7.2-14.6-7.2
	s11.8-5.3,14.6-8.1c2.6-2.6,6.9-13.5,6.9-13.5s4.4,11,7.4,13.9C1210.4,924.7,1222.2,929.9,1222.2,929.9z"/>
<path class="st2" d="M1245.6,973.9c0,0-10,2.5-12.4,4.9c-2.6,2.5-5.5,13.1-5.5,13.1s-3.5-9.7-5.8-12c-2.2-2.2-12.2-6-12.2-6
	s9.9-4.4,12.2-6.7c2.2-2.2,5.8-11.2,5.8-11.2s3.7,9.2,6.2,11.7C1235.8,969.5,1245.6,973.9,1245.6,973.9z"/>
<path class="st2" d="M1207.9,1003.5c0,0-8.9,2.3-11,4.3c-2.3,2.2-4.9,11.6-4.9,11.6s-3.1-8.6-5.1-10.6c-1.9-1.9-10.8-5.3-10.8-5.3
	s8.8-3.9,10.8-6c1.9-1.9,5.1-10,5.1-10s3.2,8.1,5.5,10.3C1199.2,999.7,1207.9,1003.5,1207.9,1003.5z"/>
<path class="st2" d="M809.5,929.9c0,0,12,3,14.9,5.8c3.1,3,6.6,15.7,6.6,15.7s4.1-11.6,6.9-14.4c2.6-2.6,14.6-7.2,14.6-7.2
	s-11.8-5.3-14.6-8.1c-2.6-2.6-6.9-13.5-6.9-13.5s-4.4,11-7.4,13.9C821.3,924.7,809.5,929.9,809.5,929.9z"/>
<path class="st2" d="M791.4,969.6c0,0,10.2,2.6,12.6,4.9c2.6,2.5,5.6,13.3,5.6,13.3s3.5-9.8,5.8-12.1c2.2-2.2,12.4-6.1,12.4-6.1
	s-10-4.5-12.4-6.8c-2.2-2.2-5.8-11.4-5.8-11.4s-3.7,9.3-6.2,11.8C801.3,965.2,791.4,969.6,791.4,969.6z"/>
<path class="st2" d="M829.3,995.4c0,0,8.9,2.2,11,4.3c2.3,2.2,4.9,11.6,4.9,11.6s3.1-8.6,5.1-10.6c1.9-1.9,10.8-5.3,10.8-5.3
	s-8.8-3.9-10.8-6c-1.9-1.9-5.1-9.9-5.1-9.9s-3.2,8.1-5.4,10.3C838,991.5,829.3,995.4,829.3,995.4z"/>
</svg>
