<?xml version="1.0" encoding="utf-8"?>
<!-- Generator: Adobe Illustrator 24.1.0, SVG Export Plug-In . SVG Version: 6.00 Build 0)  -->
<svg version="1.1" id="Layer_1" xmlns="http://www.w3.org/2000/svg" xmlns:xlink="http://www.w3.org/1999/xlink" x="0px" y="0px"
	 viewBox="0 0 1672.6 1321.8" style="enable-background:new 0 0 1672.6 1321.8;" xml:space="preserve">
<style type="text/css">
	.st0{fill:#FFFFFF;stroke:#000000;stroke-width:6;stroke-miterlimit:10;}
	.st1{fill:#FF9600;stroke:#000000;stroke-width:6;stroke-miterlimit:10;}
	.st2{fill:#00E4AD;stroke:#000000;stroke-width:6;stroke-linecap:round;stroke-linejoin:round;}
	.st3{fill:#FF7EEF;stroke:#000000;stroke-width:6;stroke-miterlimit:10;}
	.st4{fill:#FFD500;stroke:#000000;stroke-width:6;stroke-miterlimit:10;}
	.st5{fill:none;stroke:#000000;stroke-width:6;stroke-linecap:round;stroke-linejoin:round;}
</style>
<rect x="514.7" y="536.9" class="st0" width="636.9" height="239.4"/>
<path d="M671.8,649c0-5.5-3.5-7.8-7.5-7.8c-3.6,0-6.9,2.1-9.3,5.1v29.1h-12.7V649c0-5.4-3.4-7.8-7.5-7.8c-3.6,0-6.9,2.1-9.3,5.1
	v29.1h-12.7v-44.9h12.5v1.8c0,1.6-0.2,3.5-0.2,3.5c3.3-4.1,8.2-6.4,13.4-6.5c6.7,0,11.9,2.8,14.4,8.1c3.7-5.2,8.8-8.1,15.1-8.1
	c9.7,0,16.6,6.2,16.6,16.7v29.4h-12.7V649z"/>
<path d="M708.5,675.3h-3.2l-15.4-44.9h14.2l9.5,32l9.6-32H737l-17.9,51.9c-2.2,6.6-5.8,10.1-14,10.1h-8.8v-10.7h6.3
	c2.3,0.2,4.4-1.3,5-3.5L708.5,675.3z"/>
<path d="M738,681.7h49v10.8h-49V681.7z"/>
<path d="M817.4,645.4c0-3.2-2.5-5.3-7.5-5.3c-4.5,0-10.2,2.2-13.5,4.2l-5-9.6c5.8-3.5,12.4-5.4,19.2-5.5c10.2,0,19.5,4.7,19.5,16.6
	v29.5h-12.7v-4.2c-2.3,3.5-7.5,5.4-12.5,5.4c-9.5,0-15.7-6.8-15.7-14.1c0-8.5,6.3-13.8,16.3-13.8h8.8c2.2,0,3.1-1,3.1-2.7
	L817.4,645.4z M817.4,659.3V656c-0.8,0.8-2.2,1-3.9,1h-4.8c-4,0-6.4,1.8-6.4,4.9s2.5,5.3,6.4,5.3
	C813.3,667.2,817.4,664.8,817.4,659.3z"/>
<path d="M853.3,692.5h-12.7v-62h12.7v2.2c0,2.2-0.2,3.1-0.2,3.6c2.2-3.8,7.5-7,14.2-7c12.3,0,21.8,9.9,21.8,23.6
	s-9.5,23.6-21.9,23.6c-6.4,0-11.7-3-13.9-6.9V692.5z M853.1,652.9c0,6.9,4.7,12.3,11.5,12.3s11.5-5.5,11.5-12.3s-4.7-12.2-11.5-12.2
	S853.1,645.9,853.1,652.9L853.1,652.9z"/>
<path d="M910.1,692.5h-12.8v-62h12.8v2.2c0,2.2-0.2,3.1-0.2,3.6c2.2-3.8,7.5-7,14.2-7c12.3,0,21.8,9.9,21.8,23.6
	s-9.5,23.6-21.9,23.6c-6.4,0-11.7-3-13.9-6.9L910.1,692.5z M909.8,652.9c0,6.9,4.7,12.3,11.5,12.3s11.5-5.5,11.5-12.3
	s-4.7-12.2-11.5-12.2S909.8,645.9,909.8,652.9L909.8,652.9z"/>
<path d="M961.7,659.5c4.7,0,8.5,3.8,8.5,8.5s-3.8,8.5-8.5,8.5s-8.5-3.8-8.5-8.5c0,0,0,0,0,0C953.2,663.3,957,659.5,961.7,659.5z"/>
<path d="M982.1,641.2h-6.2v-10.8h19v51.3c0,9.8-7.8,10.9-14.2,10.9h-6.8v-10.8h4.4c2.5,0,3.8-0.6,3.8-2.8V641.2z M987.9,606.7
	c4.5,0,8.2,3.7,8.2,8.2c0,0,0,0,0,0c-0.2,4.5-4,8.1-8.5,7.9c-4.3-0.2-7.7-3.6-7.9-7.9C979.7,610.5,983.4,606.8,987.9,606.7
	L987.9,606.7z"/>
<path d="M1032.3,644.2c-3-2.9-6.9-4.5-11.1-4.6c-3.3,0-4.5,1.7-4.5,3c0,1.6,1,2.7,3.3,3.4l7.5,2.3c9.2,3,12.3,8,12.3,13.9
	c0,6.6-5.6,14.2-17.8,14.2c-9.9,0-16.1-3.8-19.8-7.1l6.8-8.8c3.2,3,9,5.6,13.2,5.6c3,0,4.9-1.6,4.9-3.3c0-2.3-1.5-3.2-5.1-4.3
	l-7.6-2.3c-7.3-2.3-10.4-7.2-10.4-13.1c0-7.3,6.7-13.9,17.4-13.9c5.9,0,12.8,1.8,18.1,6.7L1032.3,644.2z"/>
<rect x="956.7" y="108.3" class="st1" width="636.9" height="239.4"/>
<rect x="81.6" y="108.3" class="st2" width="636.8" height="239.4"/>
<path d="M207,225.8c0-3.6-2.3-5.2-4.9-5.2c-2.5,0.1-4.7,1.4-6.2,3.4v19.3h-8.4v-17.5c0-3.6-2.3-5.2-4.9-5.2
	c-2.5,0.1-4.7,1.4-6.2,3.4v19.3h-8.4v-29.8h8.3v1.2c0,1-0.1,2.3-0.1,2.3c2.2-2.7,5.4-4.3,8.9-4.3c4.4,0,7.9,1.9,9.6,5.4
	c2.2-3.4,6-5.4,10-5.4c6.4,0,11,4.1,11,11.1v19.5H207V225.8z"/>
<path d="M238.9,223.5c0-2.1-1.7-3.5-4.9-3.5c-3.2,0.2-6.3,1.2-9,2.8l-3.3-6.4c3.9-2.3,8.2-3.6,12.7-3.6c6.8,0,12.9,3.1,12.9,11v19.6
	h-8.4v-2.8c-1.6,2.3-4.9,3.6-8.3,3.6c-6.3,0-10.4-4.5-10.4-9.4c0-5.7,4.2-9.2,10.8-9.2h5.9c1.4,0,2.1-0.6,2.1-1.8L238.9,223.5z
	 M238.9,232.7v-2.1c-0.8,0.5-1.7,0.8-2.6,0.6h-3.2c-2.7,0-4.2,1.2-4.2,3.2s1.6,3.5,4.2,3.5C236.2,237.9,238.9,236.4,238.9,232.7z"/>
<path d="M265,202.2v11.3h6.4v7.1H265v13.4c0,1.9,1.5,2.1,2.8,2.1c1.3,0,2.6-0.1,3.9-0.2v7.2c0,0-4.1,0.4-6.6,0.4
	c-4.2,0-8.6-0.7-8.6-6.7v-16.3h-4.7v-7.1h4.7v-11.3H265z"/>
<path d="M294.5,212.8c6.4,0,11,4.1,11,11.1v19.5h-8.5V226c0-3.8-2.4-5.3-5.1-5.3c-2.5,0.1-4.8,1.4-6.3,3.4v19.3h-8.5v-45.5h8.3v16.9
	c0,1-0.1,2.3-0.1,2.3C287.7,214.4,291,212.8,294.5,212.8z"/>
<path d="M308.9,247.6h32.5v7.1h-32.5V247.6z"/>
<path d="M347,205.1c0-5.9,3.9-7.9,8.5-7.9c2.3,0,6.2,0.4,6.2,0.4v7.7c0,0-2.6-0.3-3.5-0.3c-1.6,0-2.7,0.4-2.7,2.5v6.1h5.7v7.1h-5.7
	v22.6H347v-22.6h-4.7v-7.1h4.7V205.1z"/>
<path d="M365.5,232.4v-18.9h8.5v17.3c0,4.1,2.7,5.7,5.7,5.7s5.7-1.6,5.7-5.7v-17.3h8.4v18.9c0,6.2-4.9,11.7-14.1,11.7
	S365.5,238.6,365.5,232.4z"/>
<path d="M417.8,212.8c6.4,0,11,4.1,11,11.1v19.5h-8.5V226c0-3.8-2.4-5.3-5.1-5.3c-2.5,0.1-4.8,1.3-6.3,3.3v19.3h-8.5v-29.8h8.3v1.2
	c0,1-0.1,2.3-0.1,2.3C410.9,214.3,414.3,212.8,417.8,212.8z"/>
<path d="M442.4,228.4c0,4.7,3,8.1,7.5,8.1c2.9,0.1,5.6-1.8,6.6-4.6l7.9,2.5c-2,5.9-7.8,9.6-14.6,9.6c-8.8,0-15.9-6.6-15.9-15.7
	s7-15.7,15.9-15.7c6.8,0,12.6,3.8,14.6,9.7l-7.9,2.4c-1-2.8-3.6-4.6-6.6-4.6C445.4,220.3,442.4,223.8,442.4,228.4z"/>
<path d="M480,202.2v11.3h6.4v7.1H480v13.4c0,1.9,1.5,2.1,2.8,2.1c1.3,0,2.6-0.1,3.9-0.2v7.2c0,0-4.1,0.4-6.6,0.4
	c-4.2,0-8.6-0.7-8.6-6.7v-16.3h-4.7v-7.1h4.7v-11.3H480z"/>
<path d="M502.5,243.3h-8.5v-22.6h-4.2v-7.1h12.6L502.5,243.3z M497.9,197.8c3,0,5.5,2.4,5.5,5.4c0,0,0,0,0,0c-0.1,3-2.7,5.3-5.7,5.2
	c-2.8-0.1-5.1-2.4-5.2-5.2C492.5,200.3,494.9,197.9,497.9,197.8z"/>
<path d="M507.9,228.4c0-9.1,7.1-15.7,15.9-15.7s15.9,6.6,15.9,15.7s-7.1,15.7-15.9,15.7S507.9,237.5,507.9,228.4z M516.3,228.4
	c0,4.6,3.1,8.1,7.5,8.1s7.4-3.5,7.4-8.1s-3.1-8.1-7.4-8.1S516.3,223.8,516.3,228.4z"/>
<path d="M562.4,212.8c6.4,0,11,4.1,11,11.1v19.5H565V226c0-3.8-2.4-5.3-5.1-5.3c-2.5,0.1-4.8,1.4-6.3,3.4v19.3h-8.5v-29.8h8.2v1.2
	c0,1-0.1,2.3-0.1,2.3C555.5,214.4,558.9,212.8,562.4,212.8z"/>
<path d="M585.5,232.8c3.1,0,5.7,2.5,5.7,5.7s-2.5,5.7-5.7,5.7c-3.1,0-5.7-2.5-5.7-5.7c0,0,0,0,0,0
	C579.8,235.3,582.3,232.8,585.5,232.8C585.4,232.8,585.4,232.8,585.5,232.8z"/>
<path d="M599,220.7h-4.2v-7.1h12.6v34c0,6.5-5.2,7.2-9.4,7.2h-4.5v-7.1h2.9c1.7,0,2.5-0.4,2.5-1.9V220.7z M602.8,197.8
	c3,0,5.5,2.4,5.5,5.4c0,0,0,0,0,0c-0.1,3-2.7,5.3-5.7,5.2c-2.8-0.1-5.1-2.4-5.2-5.2C597.4,200.3,599.8,197.9,602.8,197.8
	L602.8,197.8z"/>
<path d="M632.2,222.7c-2-1.9-4.6-3-7.3-3.1c-2.2,0-3,1.1-3,2s0.7,1.8,2.2,2.3l4.9,1.6c6.1,2,8.2,5.3,8.2,9.2c0,4.4-3.7,9.4-11.8,9.4
	c-4.8,0.1-9.5-1.5-13.1-4.7l4.5-5.9c2.4,2.2,5.5,3.5,8.8,3.7c2,0,3.2-1,3.2-2.2c0-1.5-1-2.1-3.4-2.9l-5.1-1.5
	c-4.8-1.6-6.9-4.8-6.9-8.7c0-4.9,4.4-9.2,11.6-9.2c4.4-0.1,8.7,1.5,12,4.4L632.2,222.7z"/>
<path d="M1053.5,239.6c-1.5,2.5-5,4.6-9.3,4.6c-8.2,0-14.4-6.6-14.4-15.7s6.2-15.7,14.4-15.7c4.6,0,8,2.1,9.5,4.6
	c0-1-0.1-3.4-0.1-5.6v-13.9h8.4v45.5h-8.4L1053.5,239.6z M1038.5,228.4c0,4.6,3.1,8.2,7.6,8.2s7.6-3.6,7.6-8.2s-3.1-8.1-7.6-8.1
	S1038.5,223.8,1038.5,228.4L1038.5,228.4z"/>
<path d="M1085.7,223.5c0-2.1-1.7-3.5-4.9-3.5c-3.2,0.2-6.3,1.2-9,2.8l-3.3-6.4c3.9-2.3,8.2-3.6,12.7-3.6c6.8,0,12.9,3.1,12.9,11
	v19.6h-8.4v-2.8c-1.6,2.3-4.9,3.6-8.3,3.6c-6.3,0-10.4-4.5-10.4-9.4c0-5.7,4.2-9.2,10.8-9.2h5.8c1.4,0,2.1-0.6,2.1-1.8L1085.7,223.5
	z M1085.7,232.7v-2.1c-0.8,0.5-1.7,0.8-2.6,0.6h-3.2c-2.7,0-4.2,1.2-4.2,3.2s1.6,3.5,4.2,3.5C1083,237.9,1085.7,236.4,1085.7,232.7z
	"/>
<path d="M1111.8,202.2v11.3h6.4v7.1h-6.4v13.4c0,1.9,1.5,2.1,2.8,2.1c1.3,0,2.6-0.1,3.9-0.2v7.2c0,0-4.1,0.4-6.6,0.4
	c-4.2,0-8.6-0.7-8.6-6.7v-16.3h-4.7v-7.1h4.7v-11.3H1111.8z"/>
<path d="M1140.6,223.5c0-2.1-1.7-3.5-4.9-3.5c-3.2,0.2-6.3,1.2-9,2.8l-3.3-6.4c3.9-2.3,8.2-3.6,12.7-3.6c6.8,0,12.9,3.1,12.9,11
	v19.6h-8.4v-2.8c-1.6,2.3-4.9,3.6-8.3,3.6c-6.3,0-10.4-4.5-10.4-9.4c0-5.7,4.2-9.2,10.8-9.2h5.8c1.4,0,2.1-0.6,2.1-1.8L1140.6,223.5
	z M1140.6,232.7v-2.1c-0.8,0.5-1.7,0.8-2.6,0.6h-3.2c-2.7,0-4.2,1.2-4.2,3.2s1.6,3.5,4.2,3.5
	C1137.9,237.9,1140.6,236.4,1140.6,232.7z"/>
<path d="M1164.4,243.3h-8.4v-45.5h8.4v14.7c0,1.9-0.1,4-0.1,4.9c1.4-2.5,4.9-4.6,9.4-4.6c8.2,0,14.4,6.6,14.4,15.7
	s-6.3,15.7-14.5,15.7c-4.2,0-7.7-2-9.2-4.6L1164.4,243.3z M1164.2,228.4c0,4.6,3.1,8.2,7.6,8.2s7.6-3.6,7.6-8.2s-3.1-8.1-7.6-8.1
	S1164.2,223.8,1164.2,228.4z"/>
<path d="M1210.1,223.5c0-2.1-1.7-3.5-4.9-3.5c-3.2,0.2-6.3,1.2-9,2.8l-3.3-6.4c3.9-2.3,8.2-3.6,12.7-3.6c6.8,0,12.9,3.1,12.9,11
	v19.6h-8.4v-2.8c-1.6,2.3-4.9,3.6-8.3,3.6c-6.3,0-10.4-4.5-10.4-9.4c0-5.7,4.2-9.2,10.8-9.2h5.8c1.4,0,2.1-0.6,2.1-1.8L1210.1,223.5
	z M1210.1,232.7v-2.1c-0.8,0.5-1.7,0.8-2.6,0.6h-3.2c-2.7,0-4.2,1.2-4.2,3.2s1.6,3.5,4.2,3.5
	C1207.4,237.9,1210.1,236.4,1210.1,232.7z"/>
<path d="M1243.1,222.7c-2-1.9-4.6-3-7.3-3.1c-2.2,0-3,1.1-3,2s0.7,1.8,2.2,2.3l4.9,1.6c6.1,2,8.2,5.3,8.2,9.2
	c0,4.4-3.7,9.4-11.8,9.4c-4.8,0.1-9.5-1.5-13.1-4.7l4.5-5.9c2.4,2.2,5.5,3.5,8.8,3.7c2,0,3.2-1,3.2-2.2c0-1.5-1-2.1-3.4-2.9
	l-5.1-1.5c-4.8-1.6-6.9-4.8-6.9-8.7c0-4.9,4.4-9.2,11.6-9.2c4.4-0.1,8.7,1.5,12,4.4L1243.1,222.7z"/>
<path d="M1282.7,230.9h-22.2c0.6,3.9,4.2,6.5,8.1,5.9c1.9-0.3,3.6-1.4,4.7-3l8.8,0.9c-2.7,6.4-8.2,9.4-14.9,9.4
	c-8.4,0.2-15.4-6.4-15.6-14.7c0-0.3,0-0.6,0-0.9c0-9.1,6.6-15.7,15.5-15.7c8.2,0,15.6,5.3,15.6,17.8V230.9z M1260.3,225.3h13.3
	c-0.5-3.2-3.3-5.6-6.6-5.5C1263.8,219.7,1260.9,222,1260.3,225.3L1260.3,225.3z"/>
<path d="M1284,247.6h32.5v7.1H1284V247.6z"/>
<path d="M1328.6,243.3h-8.4v-45.5h8.4V243.3z"/>
<path d="M1334,228.4c0-9.1,7.1-15.7,15.9-15.7s15.9,6.6,15.9,15.7s-7.1,15.7-15.9,15.7S1334,237.5,1334,228.4z M1342.4,228.4
	c0,4.6,3.1,8.1,7.5,8.1s7.4-3.5,7.4-8.1s-3.1-8.1-7.4-8.1S1342.4,223.8,1342.4,228.4L1342.4,228.4z"/>
<path d="M1401.4,213.6v32c0,4.7-2.3,9.2-9.6,9.2h-12.9v-7.1h10.9c1.5,0,3.2-0.4,3.2-2.7v-5.7c-1.4,2.4-5,4.5-9.2,4.5
	c-8.1,0-14.3-6.1-14.3-15.4s6.2-15.5,14.2-15.5c4.5,0,7.9,2.1,9.4,4.6c0-0.3-0.1-0.9-0.1-2.5v-1.4L1401.4,213.6z M1385.6,236.4
	c4.5,0,7.5-3.3,7.5-8.1s-3-8.2-7.5-8.2s-7.5,3.3-7.5,8.2S1381.2,236.4,1385.6,236.4z"/>
<path d="M1418.8,243.3h-8.4v-22.6h-4.2v-7.1h12.6V243.3z M1414.2,197.8c3,0,5.5,2.4,5.5,5.4c0,0,0,0,0,0c-0.1,3-2.7,5.3-5.7,5.2
	c-2.8-0.1-5.1-2.4-5.2-5.2C1408.8,200.3,1411.2,197.9,1414.2,197.8z"/>
<path d="M1432.7,228.4c0,4.7,3.1,8.1,7.5,8.1c2.9,0.1,5.6-1.8,6.6-4.6l7.9,2.5c-2,5.9-7.8,9.6-14.6,9.6c-8.8,0-15.9-6.6-15.9-15.7
	s7-15.7,15.9-15.7c6.8,0,12.6,3.8,14.6,9.7l-7.9,2.4c-1-2.8-3.6-4.6-6.6-4.6C1435.8,220.3,1432.7,223.8,1432.7,228.4z"/>
<path d="M1464.7,232.8c3.1,0,5.7,2.5,5.7,5.7c0,3.1-2.5,5.7-5.7,5.7c-3.1,0-5.7-2.5-5.7-5.7c0,0,0,0,0,0
	C1459.1,235.3,1461.6,232.8,1464.7,232.8C1464.7,232.8,1464.7,232.8,1464.7,232.8z"/>
<path d="M1478.3,220.7h-4.2v-7.1h12.6v34c0,6.5-5.2,7.2-9.4,7.2h-4.5v-7.1h2.9c1.7,0,2.5-0.4,2.5-1.9V220.7z M1482.1,197.8
	c3,0,5.5,2.4,5.5,5.4c0,0,0,0,0,0c-0.1,3-2.7,5.3-5.7,5.2c-2.8-0.1-5.1-2.4-5.2-5.2C1476.7,200.3,1479.1,197.9,1482.1,197.8z"/>
<path d="M1511.5,222.7c-2-1.9-4.6-3-7.3-3.1c-2.2,0-3,1.1-3,2s0.7,1.8,2.2,2.3l4.9,1.6c6.1,2,8.2,5.3,8.2,9.2
	c0,4.4-3.7,9.4-11.8,9.4c-4.8,0.1-9.5-1.5-13.1-4.7l4.5-5.9c2.4,2.2,5.5,3.5,8.8,3.7c2,0,3.2-1,3.2-2.2c0-1.5-1-2.1-3.4-2.9
	l-5.1-1.5c-4.8-1.6-6.9-4.8-6.9-8.7c0-4.9,4.4-9.2,11.6-9.2c4.4-0.1,8.7,1.5,12,4.4L1511.5,222.7z"/>
<rect x="956.7" y="957" class="st3" width="636.9" height="239.4"/>
<rect x="81.6" y="957" class="st4" width="636.8" height="239.4"/>
<path d="M214.5,1072.6c-2-1.9-4.6-3-7.3-3c-2.2,0-3,1.1-3,2s0.6,1.8,2.2,2.3l4.9,1.6c6.1,2,8.2,5.3,8.2,9.2c0,4.3-3.7,9.4-11.8,9.4
	c-4.8,0.1-9.5-1.5-13.1-4.7l4.5-5.8c2.4,2.2,5.5,3.5,8.8,3.7c2,0,3.2-1,3.2-2.2c0-1.5-1-2.2-3.4-2.9l-5.1-1.5
	c-4.8-1.6-6.9-4.8-6.9-8.7c0-4.9,4.4-9.2,11.6-9.2c4.4-0.1,8.7,1.5,12,4.4L214.5,1072.6z"/>
<path d="M254.1,1080.8h-22.2c0.6,3.9,4.2,6.5,8.1,5.9c1.9-0.3,3.6-1.4,4.7-3l8.8,0.9c-2.7,6.4-8.2,9.4-14.9,9.4
	c-8.4,0.2-15.4-6.4-15.6-14.7c0-0.3,0-0.6,0-0.9c0-9.1,6.6-15.7,15.5-15.7c8.2,0,15.6,5.3,15.6,17.8V1080.8z M231.7,1075.2H245
	c-0.5-3.2-3.3-5.6-6.6-5.5C235.2,1069.6,232.3,1071.9,231.7,1075.2L231.7,1075.2z"/>
<path d="M277.4,1071.8h-3.6c-4.3,0-6.2,2-6.2,7.2v14.2h-8.5v-29.8h8.2v4.7c1.2-3.2,4.3-5.3,7.7-5.1c0.8,0,1.6,0.1,2.3,0.3V1071.8z"
	/>
<path d="M294.8,1084.1l6.8-20.7h8.9l-10.6,29.8h-10.5l-10.1-29.8h9.2L294.8,1084.1z"/>
<path d="M342.9,1080.8h-22.2c0.6,3.9,4.2,6.5,8.1,5.9c1.9-0.3,3.6-1.4,4.7-3l8.8,0.9c-2.7,6.3-8.3,9.3-14.9,9.3
	c-8.4,0.2-15.4-6.4-15.6-14.7c0-0.3,0-0.6,0-0.9c0-9.1,6.6-15.7,15.5-15.7c8.2,0,15.6,5.3,15.6,17.8V1080.8z M320.5,1075.2h13.3
	c-0.5-3.2-3.3-5.6-6.6-5.5C324,1069.6,321.1,1071.9,320.5,1075.2L320.5,1075.2z"/>
<path d="M366.1,1071.8h-3.6c-4.3,0-6.2,2-6.2,7.2v14.2h-8.5v-29.8h8.2v4.7c1.2-3.2,4.3-5.3,7.7-5.1c0.8,0,1.6,0.1,2.3,0.3V1071.8z"
	/>
<path d="M367.2,1097.5h32.5v7.2h-32.5V1097.5z"/>
<path d="M411.8,1093.2h-8.4v-45.5h8.4V1093.2z"/>
<path d="M417.2,1078.3c0-9.1,7.1-15.7,15.9-15.7s15.9,6.6,15.9,15.7s-7.1,15.7-15.9,15.7S417.2,1087.4,417.2,1078.3z M425.6,1078.3
	c0,4.6,3.1,8.1,7.5,8.1s7.4-3.5,7.4-8.1s-3.1-8.1-7.4-8.1S425.6,1073.7,425.6,1078.3L425.6,1078.3z"/>
<path d="M484.6,1063.5v32c0,4.7-2.3,9.2-9.6,9.2h-12.9v-7.2h10.9c1.5,0,3.2-0.4,3.2-2.7v-5.7c-1.4,2.4-5,4.5-9.2,4.5
	c-8.1,0-14.3-6.1-14.3-15.4s6.2-15.5,14.2-15.5c4.5,0,7.9,2.1,9.4,4.6c0-0.3-0.1-0.9-0.1-2.5v-1.4L484.6,1063.5z M468.8,1086.3
	c4.5,0,7.5-3.3,7.5-8.1s-3-8.2-7.5-8.2s-7.5,3.3-7.5,8.2S464.4,1086.3,468.8,1086.3L468.8,1086.3z"/>
<path d="M502,1093.2h-8.4v-22.6h-4.2v-7.2H502V1093.2z M497.4,1047.7c3,0,5.5,2.4,5.5,5.4c0,0,0,0,0,0c-0.1,3-2.7,5.3-5.7,5.2
	c-2.8-0.1-5.1-2.4-5.2-5.2C492,1050.2,494.4,1047.8,497.4,1047.7z"/>
<path d="M515.9,1078.3c0,4.7,3.1,8.1,7.5,8.1c2.9,0.1,5.6-1.8,6.6-4.6l7.9,2.5c-2,5.9-7.8,9.6-14.6,9.6c-8.8,0-15.9-6.6-15.9-15.7
	s7-15.7,15.9-15.7c6.8,0,12.6,3.8,14.6,9.7l-7.9,2.4c-1-2.8-3.6-4.6-6.6-4.6C519,1070.2,515.9,1073.7,515.9,1078.3z"/>
<path d="M547.9,1082.7c3.1,0,5.7,2.5,5.7,5.7c0,3.1-2.5,5.7-5.7,5.7c-3.1,0-5.7-2.5-5.7-5.7S544.8,1082.7,547.9,1082.7L547.9,1082.7
	z"/>
<path d="M561.5,1070.6h-4.2v-7.2h12.6v34c0,6.5-5.2,7.2-9.4,7.2H556v-7.2h2.9c1.7,0,2.5-0.4,2.5-1.9L561.5,1070.6z M565.3,1047.7
	c3,0,5.5,2.4,5.5,5.4c0,0,0,0,0,0c-0.1,3-2.7,5.3-5.7,5.2c-2.8-0.1-5.1-2.4-5.2-5.2C559.9,1050.2,562.3,1047.8,565.3,1047.7
	L565.3,1047.7z"/>
<path d="M594.7,1072.6c-2-1.9-4.6-3-7.3-3c-2.2,0-3,1.1-3,2s0.7,1.8,2.2,2.3l4.9,1.6c6.1,2,8.2,5.3,8.2,9.2c0,4.3-3.7,9.4-11.8,9.4
	c-4.8,0.1-9.5-1.5-13.1-4.7l4.5-5.8c2.4,2.2,5.5,3.5,8.8,3.7c2,0,3.2-1,3.2-2.2c0-1.5-1-2.2-3.4-2.9l-5.1-1.5
	c-4.8-1.6-6.9-4.8-6.9-8.7c0-4.9,4.4-9.2,11.6-9.2c4.4-0.1,8.7,1.5,12,4.4L594.7,1072.6z"/>
<path d="M1038.6,1089.5c-1.5,2.5-5,4.6-9.3,4.6c-8.2,0-14.4-6.6-14.4-15.7s6.2-15.7,14.4-15.7c4.6,0,8,2.1,9.5,4.6
	c0-1-0.1-3.4-0.1-5.7v-13.9h8.4v45.5h-8.4L1038.6,1089.5z M1023.6,1078.3c0,4.6,3.1,8.2,7.6,8.2s7.6-3.6,7.6-8.2s-3.1-8.1-7.6-8.1
	S1023.6,1073.7,1023.6,1078.3L1023.6,1078.3z"/>
<path d="M1070.8,1073.4c0-2.1-1.7-3.5-4.9-3.5c-3.2,0.2-6.3,1.2-9,2.8l-3.3-6.4c3.9-2.3,8.2-3.6,12.7-3.6c6.8,0,12.9,3.1,12.9,11
	v19.6h-8.4v-2.8c-1.6,2.3-4.9,3.6-8.3,3.6c-6.3,0-10.4-4.5-10.4-9.4c0-5.7,4.2-9.2,10.8-9.2h5.8c1.4,0,2.1-0.6,2.1-1.8
	L1070.8,1073.4z M1070.8,1082.6v-2.1c-0.8,0.5-1.7,0.8-2.6,0.7h-3.2c-2.7,0-4.2,1.2-4.2,3.2s1.6,3.5,4.2,3.5
	C1068.1,1087.8,1070.8,1086.3,1070.8,1082.6L1070.8,1082.6z"/>
<path d="M1096.9,1052.2v11.3h6.4v7.2h-6.4v13.5c0,1.9,1.5,2.1,2.8,2.1c2.2,0,3.9-0.2,3.9-0.2v7.2c0,0-4.1,0.4-6.6,0.4
	c-4.2,0-8.6-0.7-8.6-6.7v-16.3h-4.7v-7.2h4.7v-11.3L1096.9,1052.2z"/>
<path d="M1138.4,1080.8h-22.2c0.6,3.9,4.2,6.5,8.1,5.9c1.9-0.3,3.6-1.4,4.7-3l8.8,0.9c-2.7,6.4-8.2,9.4-14.9,9.4
	c-8.4,0.2-15.4-6.4-15.6-14.7c0-0.3,0-0.6,0-0.9c0-9.1,6.6-15.7,15.5-15.7c8.2,0,15.6,5.3,15.6,17.8V1080.8z M1116,1075.2h13.3
	c-0.5-3.2-3.3-5.6-6.6-5.5C1119.5,1069.6,1116.6,1071.9,1116,1075.2L1116,1075.2z"/>
<path d="M1139.7,1097.5h32.5v7.2h-32.5V1097.5z"/>
<path d="M1177.9,1055c0-5.8,3.9-7.9,8.4-7.9c2.3,0,6.2,0.4,6.2,0.4v7.7c0,0-2.6-0.3-3.5-0.3c-1.6,0-2.7,0.4-2.7,2.5v6h5.7v7.2h-5.7
	v22.6h-8.4v-22.6h-4.7v-7.2h4.7V1055z"/>
<path d="M1194.7,1078.3c0-9.1,7.1-15.7,15.9-15.7s15.9,6.6,15.9,15.7s-7.1,15.7-15.9,15.7S1194.7,1087.4,1194.7,1078.3z
	 M1203.1,1078.3c0,4.6,3.1,8.1,7.5,8.1s7.4-3.5,7.4-8.1s-3-8.1-7.4-8.1S1203.1,1073.7,1203.1,1078.3z"/>
<path d="M1250.2,1071.8h-3.6c-4.3,0-6.2,2-6.2,7.2v14.2h-8.4v-29.8h8.2v4.7c1.2-3.2,4.3-5.3,7.7-5.1c0.8,0,1.6,0.1,2.3,0.3V1071.8z"
	/>
<path d="M1294,1075.8c0-3.7-2.3-5.2-4.9-5.2c-2.5,0.1-4.7,1.4-6.2,3.4v19.3h-8.4v-17.5c0-3.6-2.3-5.2-4.9-5.2
	c-2.5,0.1-4.7,1.4-6.2,3.4v19.3h-8.4v-29.8h8.3v1.2c0,1-0.1,2.3-0.1,2.3c2.2-2.7,5.4-4.3,8.9-4.3c4.4,0,7.9,1.9,9.6,5.4
	c2.2-3.4,6-5.4,10-5.4c6.4,0,11,4.1,11,11v19.5h-8.5V1075.8z"/>
<path d="M1325.9,1073.4c0-2.1-1.7-3.5-4.9-3.5c-3.2,0.2-6.3,1.2-9,2.8l-3.3-6.4c3.9-2.3,8.2-3.6,12.7-3.6c6.8,0,12.9,3.1,12.9,11
	v19.6h-8.5v-2.8c-1.6,2.3-4.9,3.6-8.3,3.6c-6.3,0-10.4-4.5-10.4-9.4c0-5.7,4.2-9.2,10.8-9.2h5.8c1.4,0,2.1-0.6,2.1-1.8
	L1325.9,1073.4z M1325.9,1082.6v-2.1c-0.8,0.5-1.7,0.8-2.6,0.7h-3.2c-2.7,0-4.2,1.2-4.2,3.2s1.6,3.5,4.2,3.5
	C1323.2,1087.8,1325.9,1086.3,1325.9,1082.6L1325.9,1082.6z"/>
<path d="M1352,1052.2v11.3h6.4v7.2h-6.4v13.5c0,1.9,1.5,2.1,2.8,2.1c2.2,0,3.9-0.2,3.9-0.2v7.2c0,0-4.1,0.4-6.6,0.4
	c-4.2,0-8.6-0.7-8.6-6.7v-16.3h-4.7v-7.2h4.7v-11.3L1352,1052.2z"/>
<path d="M1375,1052.2v11.3h6.4v7.2h-6.4v13.5c0,1.9,1.5,2.1,2.8,2.1c2.1,0,3.9-0.2,3.9-0.2v7.2c0,0-4.1,0.4-6.6,0.4
	c-4.2,0-8.6-0.7-8.6-6.7v-16.3h-4.7v-7.2h4.7v-11.3L1375,1052.2z"/>
<path d="M1397.4,1093.2h-8.4v-22.6h-4.2v-7.2h12.6L1397.4,1093.2z M1392.8,1047.7c3,0,5.5,2.4,5.5,5.4c0,0,0,0,0,0
	c0,3-2.4,5.4-5.4,5.4c-3,0-5.4-2.4-5.4-5.4C1387.4,1050.2,1389.8,1047.8,1392.8,1047.7z"/>
<path d="M1422,1062.7c6.4,0,11,4.1,11,11v19.5h-8.4v-17.3c0-3.8-2.4-5.3-5.1-5.3c-2.5,0.1-4.8,1.4-6.3,3.4v19.3h-8.4v-29.8h8.3v1.2
	c0,1-0.1,2.3-0.1,2.3C1415.1,1064.2,1418.5,1062.6,1422,1062.7z"/>
<path d="M1470.1,1063.5v32c0,4.7-2.3,9.2-9.6,9.2h-12.9v-7.2h10.9c1.5,0,3.2-0.4,3.2-2.7v-5.7c-1.4,2.4-5,4.5-9.2,4.5
	c-8.1,0-14.3-6.1-14.3-15.4s6.2-15.5,14.2-15.5c4.5,0,7.9,2.1,9.4,4.6c0-0.3-0.1-0.9-0.1-2.5v-1.4L1470.1,1063.5z M1454.3,1086.3
	c4.5,0,7.5-3.3,7.5-8.1s-3.1-8.2-7.5-8.2s-7.5,3.3-7.5,8.2S1449.9,1086.3,1454.3,1086.3L1454.3,1086.3z"/>
<path d="M1482.5,1082.7c3.1,0,5.7,2.5,5.7,5.7s-2.5,5.7-5.7,5.7c-3.1,0-5.7-2.5-5.7-5.7c0,0,0,0,0,0
	C1476.8,1085.2,1479.3,1082.7,1482.5,1082.7z"/>
<path d="M1496,1070.6h-4.2v-7.2h12.6v34c0,6.5-5.2,7.2-9.4,7.2h-4.5v-7.2h2.9c1.7,0,2.5-0.4,2.5-1.9V1070.6z M1499.8,1047.7
	c3,0,5.5,2.4,5.5,5.4c0,0,0,0,0,0c0,3-2.4,5.4-5.4,5.4c-3,0-5.4-2.4-5.4-5.4C1494.4,1050.2,1496.8,1047.8,1499.8,1047.7
	L1499.8,1047.7z"/>
<path d="M1529.3,1072.6c-2-1.9-4.6-3-7.3-3c-2.2,0-3,1.1-3,2s0.7,1.8,2.2,2.3l4.9,1.6c6.1,2,8.2,5.3,8.2,9.2c0,4.3-3.7,9.4-11.8,9.4
	c-4.8,0.1-9.5-1.5-13.1-4.7l4.5-5.8c2.4,2.2,5.5,3.5,8.8,3.7c2,0,3.2-1,3.2-2.2c0-1.5-1-2.2-3.4-2.9l-5.1-1.5
	c-4.8-1.6-6.9-4.8-6.9-8.7c0-4.9,4.4-9.2,11.6-9.2c4.4-0.1,8.7,1.5,12,4.4L1529.3,1072.6z"/>
<polyline class="st5" points="644.8,416 644.8,472.9 588,472.9 "/>
<line class="st5" x1="642.8" y1="471.7" x2="520.1" y2="348.9"/>
<polyline class="st5" points="1041.4,416 1041.4,472.9 1098.2,472.9 "/>
<line class="st5" x1="1043.4" y1="471.7" x2="1166.1" y2="348.9"/>
<polyline class="st5" points="644.8,889.1 644.8,832.3 588,832.3 "/>
<line class="st5" x1="642.8" y1="833.5" x2="520.1" y2="956.2"/>
<polyline class="st5" points="1041.4,889.1 1041.4,832.3 1098.2,832.3 "/>
<line class="st5" x1="1043.4" y1="833.5" x2="1166.1" y2="956.2"/>
</svg>
